<?xml version="1.0" standalone="no"?>
<!DOCTYPE svg PUBLIC "-//W3C//DTD SVG 1.1//EN" "http://www.w3.org/Graphics/SVG/1.1/DTD/svg11.dtd" >
<svg>
<metadata>
Created by FontForge 20090622 at Sat May 14 13:38:55 2016
 By deploy user
&#194;&#169; 1996, 2001 Adobe Systems Incorporated. All rights reserved. Protected by U.S. Patents D407,105; D407,106.
</metadata>
<defs>
<font id="CronosPro-LtIt" horiz-adv-x="275" >
  <font-face 
    font-family="Cronos Pro Light"
    font-weight="300"
    font-style="italic"
    font-stretch="normal"
    units-per-em="1000"
    panose-1="2 12 4 2 3 4 3 9 3 4"
    ascent="780"
    descent="-220"
    x-height="443"
    cap-height="628"
    bbox="-192 -263.143 1124.05 876"
    underline-thickness="50"
    underline-position="-50"
    slope="-10"
    unicode-range="U+0020-U+FB04"
  />
<missing-glyph horiz-adv-x="500" 
d="M0 0v700h500v-700h-500zM250 395l170 255h-340zM280 350l170 -255v510zM80 50h340l-170 255zM50 605v-510l170 255z" />
    <glyph glyph-name="T_h" unicode="Th" horiz-adv-x="912" 
d="M277 586h-197q-16 0 -21 4t-3 11q4 19 19 29q20 -5 149 -5h326q1 11 2.5 24t2.5 19q24 12 42 12q9 0 4 -38q-1 -5 -1 -8l-56 -385q51 98 114.5 147.5t116.5 49.5q88 0 65 -151l-14.5 -83t-12.5 -74q-18 -104 -18 -139q-22 -11 -44 -11q-3 0 -3.5 11.5t4 45.5t13.5 87
q2 10 12.5 72.5t17.5 109.5q14 90 -35 90q-66 0 -142.5 -96.5t-102.5 -260.5q-7 -39 -13 -45q-10 -8 -45 -10q33 174 89 594h-217l-63 -463q-12 -94 -15 -124q-16 -5 -45 -5q-7 0 -7 17z" />
    <glyph glyph-name="T_h.swash" unicode="&#xe0c1;h" horiz-adv-x="952" 
d="M813 446h1q87 0 64 -151l-27 -157q-18 -102 -19 -139q-22 -11 -45 -11q-2 0 -2.5 11t4 45.5t13.5 87.5l31 182q16 90 -34 90q-65 0 -142 -94.5t-104 -259.5q-7 -42 -13 -48q-10 -8 -45 -10q32 180 89 598q-22 -10 -49 -10q-22 0 -86.5 3.5t-75.5 3.5q-46 -329 -87 -587
q-16 -6 -42 -6q-9 0 -9 18l88 578q-24 1 -90 1q-133 0 -163 -111q-9 0 -18 7t-9 15q0 22 13 42q52 87 186 87q53 0 166 -5.5t127 -5.5q32 0 54 11q3 27 4 37q24 12 42 12q9 0 4 -38q-1 -5 -1 -8l-56 -385q40 75 90 122.5t82.5 61t58.5 13.5z" />
    <glyph glyph-name="T_hbar" unicode="T&#x127;" horiz-adv-x="916" 
d="M596 586l-50 -335q51 96 115 145.5t116 49.5q88 0 65 -151l-14.5 -83t-12.5 -74q-17 -99 -19 -139q-22 -11 -44 -11q-3 0 -3.5 11.5t4 45.5t13.5 87l31 182q7 38 -0.5 64t-33.5 26q-66 0 -143 -95.5t-103 -261.5q-7 -39 -13 -45q-10 -8 -45 -10q28 152 89 594h-218
l-63 -463q-14 -110 -15 -124q-16 -5 -45 -5q-10 0 -8 17l79 575h-197q-16 0 -21.5 4.5t-3.5 10.5q12 23 20 29q20 -5 149 -5h327q1 11 2.5 24t2.5 19q24 12 42 12q4 0 5.5 -5t1.5 -13t-1 -14.5t-3 -14.5l-1 -8h172q-1 -24 -13.5 -31.5t-41.5 -7.5h-122z" />
    <glyph glyph-name="T_hcircumflex" unicode="T&#x125;" horiz-adv-x="912" 
d="M277 586h-197q-16 0 -21 4t-3 11q4 19 19 29q20 -5 149 -5h326q1 11 2.5 24t2.5 19q24 12 42 12q9 0 4 -38q-1 -5 -1 -8l-56 -385q51 98 114.5 147.5t116.5 49.5q88 0 65 -151l-14.5 -83t-12.5 -74q-18 -104 -18 -139q-22 -11 -44 -11q-3 0 -3.5 11.5t4 45.5t13.5 87
q2 10 12.5 72.5t17.5 109.5q14 90 -35 90q-66 0 -142.5 -96.5t-102.5 -260.5q-7 -39 -13 -45q-10 -8 -45 -10q33 174 89 594h-217l-63 -463q-12 -94 -15 -124q-16 -5 -45 -5q-7 0 -7 17zM501 686h-1q-12 0 -23 11q56 48 101 93q6 5 13 10q9 2 15 2q32 -48 87 -100
q-11 -16 -26 -16q-13 0 -17 6q-12 9 -58 59q-45 -42 -71 -58q-16 -7 -20 -7z" />
    <glyph glyph-name="Tbar_h" unicode="&#x166;h" horiz-adv-x="915" 
d="M602 634l-56 -384q52 97 116 146.5t116 49.5q88 0 65 -151l-14.5 -83t-12.5 -74q-17 -99 -19 -139q-22 -11 -44 -11q-3 0 -3.5 11.5t4 45.5t13.5 87l31 182q7 38 -0.5 64t-33.5 26q-66 0 -143 -95.5t-104 -261.5q-7 -39 -13 -45q-10 -8 -45 -10q37 206 89 594h-218
l-33 -243h110q-1 -23 -13.5 -30t-41.5 -7h-60l-25 -183q-14 -110 -15 -124q-16 -5 -45 -5q-8 0 -8 17l41 295h-100q4 37 42 37h62l34 243h-197q-15 0 -21 4.5t-3 11.5q9 21 19 28q20 -5 149 -5h327q1 11 2.5 24t2.5 19q24 12 42 12q9 0 4 -38q-1 -5 -1 -8z" />
    <glyph glyph-name="Tbar_h.swash" unicode="&#xe0c7;h" horiz-adv-x="951" 
d="M638 634l-55 -382q52 97 115 145.5t115 48.5q88 0 65 -151l-27 -157q-17 -99 -19 -139q-22 -11 -44 -11q-3 0 -3.5 11.5t4 45.5t13.5 87l31 182q7 38 -0.5 64t-33.5 26q-66 0 -143 -95.5t-104 -261.5q-7 -39 -13 -45q-10 -8 -45 -10q33 175 90 597q-18 -9 -42 -9
q-21 0 -89.5 3.5t-79.5 3.5l-36 -244h110q-1 -23 -13.5 -30t-41.5 -7h-61l-45 -306q-16 -6 -42 -6q-9 0 -9 18l45 294h-100q4 37 42 37h63l38 247q-24 1 -90 1q-133 0 -163 -111q-9 0 -18 7t-9 15q0 22 13 42q52 87 186 87q53 0 170 -5.5t131 -5.5q24 0 46 8q2 18 4 40
q24 12 42 12q9 0 4 -38q-1 -5 -1 -8z" />
    <glyph glyph-name="Tcaron_h" unicode="&#x164;h" horiz-adv-x="912" 
d="M277 586h-197q-16 0 -21 4t-3 11q4 19 19 29q20 -5 149 -5h326q1 11 2.5 24t2.5 19q24 12 42 12q9 0 4 -38q-1 -5 -1 -8l-56 -385q51 98 114.5 147.5t116.5 49.5q88 0 65 -151l-14.5 -83t-12.5 -74q-18 -104 -18 -139q-22 -11 -44 -11q-3 0 -3.5 11.5t4 45.5t13.5 87
q2 10 12.5 72.5t17.5 109.5q14 90 -35 90q-66 0 -142.5 -96.5t-102.5 -260.5q-7 -39 -13 -45q-10 -8 -45 -10q33 174 89 594h-217l-63 -463q-12 -94 -15 -124q-16 -5 -45 -5q-7 0 -7 17zM406 781h1q13 0 24 -11q-82 -72 -101 -93q-2 -1 -6.5 -4t-6.5 -4q-8 -4 -16 -4
q-34 53 -85 100q8 16 24 16q15 0 19 -5q22 -19 57 -59q38 35 70 58q10 6 20 6z" />
    <glyph glyph-name="Tcaron_h.swash" unicode="&#xe0cb;h" horiz-adv-x="952" 
d="M813 446h1q87 0 64 -151l-27 -157q-18 -102 -19 -139q-22 -11 -45 -11q-2 0 -2.5 11t4 45.5t13.5 87.5l31 182q16 90 -34 90q-65 0 -142 -94.5t-104 -259.5q-7 -42 -13 -48q-10 -8 -45 -10q32 180 89 598q-22 -10 -49 -10q-22 0 -86.5 3.5t-75.5 3.5q-46 -329 -87 -587
q-16 -6 -42 -6q-9 0 -9 18l88 578q-24 1 -90 1q-133 0 -163 -111q-9 0 -18 7t-9 15q0 22 13 42q52 87 186 87q53 0 166 -5.5t127 -5.5q32 0 54 11q3 27 4 37q24 12 42 12q9 0 4 -38q-1 -5 -1 -8l-56 -385q40 75 90 122.5t82.5 61t58.5 13.5zM454 781h1q13 0 24 -11
q-82 -72 -101 -93q-2 -1 -6.5 -4t-6.5 -4q-8 -4 -16 -4q-34 53 -85 100q8 16 24 16q15 0 19 -5q22 -19 57 -59q38 35 70 58q10 6 20 6z" />
    <glyph glyph-name="Tcommaaccent_h" unicode="&#x162;h" horiz-adv-x="912" 
d="M277 586h-197q-16 0 -21 4t-3 11q4 19 19 29q20 -5 149 -5h326q1 11 2.5 24t2.5 19q24 12 42 12q9 0 4 -38q-1 -5 -1 -8l-56 -385q51 98 114.5 147.5t116.5 49.5q88 0 65 -151l-14.5 -83t-12.5 -74q-18 -104 -18 -139q-22 -11 -44 -11q-3 0 -3.5 11.5t4 45.5t13.5 87
q2 10 12.5 72.5t17.5 109.5q14 90 -35 90q-66 0 -142.5 -96.5t-102.5 -260.5q-7 -39 -13 -45q-10 -8 -45 -10q33 174 89 594h-217l-63 -463q-12 -94 -15 -124q-16 -5 -45 -5q-7 0 -7 17zM230 -34h1q14 0 14 -30q0 -39 -30.5 -88t-65.5 -71q-13 -6 -36 -5q63 72 71 141
q1 7 1 35q25 18 45 18z" />
    <glyph glyph-name="Tcommaaccent_h.swash" unicode="&#xe0cf;h" horiz-adv-x="952" 
d="M813 446h1q87 0 64 -151l-27 -157q-18 -102 -19 -139q-22 -11 -45 -11q-2 0 -2.5 11t4 45.5t13.5 87.5l31 182q16 90 -34 90q-65 0 -142 -94.5t-104 -259.5q-7 -42 -13 -48q-10 -8 -45 -10q32 180 89 598q-22 -10 -49 -10q-22 0 -86.5 3.5t-75.5 3.5q-46 -329 -87 -587
q-16 -6 -42 -6q-9 0 -9 18l88 578q-24 1 -90 1q-133 0 -163 -111q-9 0 -18 7t-9 15q0 22 13 42q52 87 186 87q53 0 166 -5.5t127 -5.5q32 0 54 11q3 27 4 37q24 12 42 12q9 0 4 -38q-1 -5 -1 -8l-56 -385q40 75 90 122.5t82.5 61t58.5 13.5zM270 -34h1q14 0 14 -30
q0 -39 -30.5 -88t-65.5 -71q-13 -6 -36 -5q63 72 71 141q1 7 1 35q25 18 45 18z" />
    <glyph glyph-name="f_f_j" unicode="ffj" horiz-adv-x="672" 
d="M95 387h-73q7 37 28 37h50q31 242 199 242q63 0 103 -36q42 54 120 56q26 0 50 -9.5t29 -16.5q1 -10 -6.5 -20t-18.5 -5q-28 14 -56 14q-57 0 -92 -49.5t-49 -175.5h180q14 0 32.5 4.5t19.5 4.5q4 0 5.5 -3t1 -15.5t-3.5 -38.5q-30 -218 -42 -299q-8 -55 -19.5 -95
t-32.5 -78t-56 -57.5t-83 -19.5q-72 0 -110 40q-46 -67 -142 -67q-56 0 -95 34q-39 -54 -103 -54q-29 0 -48 9.5t-22 18.5q-3 7 -1.5 17t7.5 12q29 -18 63 -18q57 0 80 57t47 224q27 183 38 287zM147 424h186q16 118 49 177q-30 30 -86 30q-126 0 -149 -207zM328 387h-187
q-28 -227 -47 -348q-17 -127 -44 -174q30 -30 84 -30q73 0 105.5 59.5t54.5 216.5q24 178 34 276zM569 387h-194q-17 -137 -42 -314q-14 -112 -46 -178q39 -31 97 -31q54 0 87.5 42.5t49.5 138.5q12 74 29 201t19 141z" />
    <glyph glyph-name="f_j" unicode="fj" horiz-adv-x="443" 
d="M95 387h-73q7 37 28 37h50q9 79 29 133.5t48 81t55 37t59 10.5q22 0 47.5 -9.5t31.5 -21.5q0 -10 -7.5 -20t-18.5 -3q-32 16 -58 16q-58 0 -92.5 -51t-48.5 -173h179q14 0 33 4l19 4q4 0 5.5 -1t2 -6.5t0 -17t-3.5 -31.5q-6 -40 -15 -109l-16 -120.5l-13 -92.5
q-8 -55 -20 -95.5t-33 -78t-56.5 -57.5t-83.5 -20q-66 0 -106 38q-37 -61 -113 -61q-33 0 -58 19q-7 7 -7 20t6 18q32 -18 63 -18q57 0 79.5 49.5t46.5 203.5q12 82 41 315zM336 387h-195q-24 -192 -48 -353q-17 -109 -40 -163q38 -31 93 -31t88 43t50 138z" />
    <glyph glyph-name="f_f" unicode="ff" horiz-adv-x="455" 
d="M95 387h-73q7 36 28 37h50q31 242 199 242q64 0 101 -35q41 53 104 55q41 0 61 -20q-2 -12 -8.5 -20.5t-17.5 -3.5q-17 7 -39 7q-46 0 -76 -51t-45 -174q94 0 112 2q-5 -23 -25 -33q-12 -6 -93 -6q-19 -167 -40 -314q-22 -158 -69.5 -215.5t-131.5 -57.5q-62 0 -98 34
q-39 -54 -103 -54q-30 0 -48.5 9.5t-21.5 18.5q-3 7 -1.5 17t7.5 12q28 -18 66 -18q53 0 77 58.5t48 222.5q24 160 37 287zM147 424h186q16 118 49 177q-30 30 -87 30q-125 0 -148 -207zM328 387h-187q-27 -220 -47 -349q-17 -127 -44 -174q33 -30 84 -30q73 0 106.5 61.5
t53.5 215.5q4 35 12 95.5t13.5 106t8.5 74.5z" />
    <glyph glyph-name="fi" unicode="fi" horiz-adv-x="438" 
d="M335 387h-194q-24 -192 -48 -353q-21 -141 -60 -197.5t-109 -56.5q-36 0 -59 20q-7 7 -7 20t6 18q30 -19 62 -19q58 0 81 49t47 202q11 72 41 317h-73q7 36 28 37h50q9 79 29 134t48 81t54.5 36.5t58.5 10.5q21 0 48.5 -10t32.5 -22q0 -11 -8 -20.5t-19 -2.5
q-34 17 -58 17q-57 0 -91.5 -51t-49.5 -173h180q14 0 33 6.5t20 6.5q3 0 4.5 -2t2 -8.5t-0.5 -18.5t-4 -32q-42 -288 -52 -343q-4 -22 -12 -30q-13 -12 -43 -14q36 210 62 398z" />
    <glyph glyph-name="fl" unicode="fl" horiz-adv-x="442" 
d="M96 388h-73q7 35 28 36h50q32 262 200 262q45 0 77 -25q27 24 36 24q11 0 4 -44q-71 -466 -88 -591q-6 -42 -17 -49q-19 -10 -39 -12q11 65 60 398h-192q-43 -314 -50 -358q-21 -138 -61 -193.5t-107 -55.5q-41 0 -61 20q-7 8 -6 21t7 18q31 -20 62 -20q56 0 80 51
t47 202q19 122 43 316zM338 424q25 161 29 201q-32 24 -70 24q-65 0 -100 -54.5t-50 -170.5h191z" />
    <glyph glyph-name="f_f_i" unicode="ffi" horiz-adv-x="672" 
d="M95 387h-73q7 36 28 37h50q31 242 200 242q66 0 103 -36q40 54 122 56q26 0 50.5 -9.5t28.5 -17.5q0 -9 -7.5 -19t-18.5 -5q-34 14 -56 14q-58 0 -93.5 -49t-50.5 -176h180q14 0 33.5 6.5t20.5 6.5q11 0 2 -61q-38 -259 -53 -343q-4 -22 -12 -30q-14 -12 -43 -14
q36 210 62 398h-193q-17 -137 -42 -314q-22 -158 -69 -215.5t-132 -57.5q-59 0 -100 34q-37 -54 -100 -54q-30 0 -50 9.5t-23 18.5q-3 7 -0.5 17t8.5 12q26 -18 64 -18q56 0 79 56.5t47 223.5q22 151 38 288zM147 424h186q16 119 50 177q-32 30 -87 30q-126 0 -149 -207z
M328 387h-187q-27 -217 -47 -346q-7 -51 -20.5 -104t-24.5 -72q32 -29 86 -29q73 0 105.5 60.5t52.5 214.5q29 215 35 276z" />
    <glyph glyph-name="f_f_l" unicode="ffl" horiz-adv-x="676" 
d="M95 387h-73q7 36 28 37h50q31 242 199 242q63 0 105 -36q47 56 128 56q46 0 78 -25q27 24 37 24q11 0 4 -44q-78 -518 -88 -591q-6 -42 -17 -49q-19 -10 -39 -12q11 65 60 398h-194q-6 -54 -14.5 -118.5l-16 -121.5t-9.5 -74q-22 -158 -69.5 -215.5t-132.5 -57.5
q-60 0 -99 34q-36 -54 -101 -54q-30 0 -49 9.5t-21 18.5q-8 24 6 29q26 -18 63 -18q56 0 79.5 57t47.5 223q27 186 38 288zM380 424h192q25 161 29 201q-32 24 -75 24q-65 0 -98 -54t-48 -171zM147 424h186q14 113 50 176q-29 31 -87 31q-126 0 -149 -207zM328 387h-187
q-22 -176 -47 -348q-19 -130 -45 -174q33 -30 85 -30q73 0 106.5 61.5t52.5 214.5q29 215 35 276z" />
    <glyph glyph-name=".notdef" horiz-adv-x="500" 
d="M0 0v700h500v-700h-500zM250 395l170 255h-340zM280 350l170 -255v510zM80 50h340l-170 255zM50 605v-510l170 255z" />
    <glyph glyph-name=".null" horiz-adv-x="0" 
 />
    <glyph glyph-name="nonmarkingreturn" horiz-adv-x="333" 
 />
    <glyph glyph-name="space" unicode=" " horiz-adv-x="215" 
 />
    <glyph glyph-name="exclam" unicode="!" horiz-adv-x="155" 
d="M142 607h1q10 0 7 -23q-55 -356 -56 -365q-3 -20 -14 -27q-14 -8 -24 -8q1 17 9.5 100l18.5 178t13 121q3 9 19 16.5t26 7.5zM59 71h1q15 0 24 -11t9 -27q0 -20 -11 -32t-29 -12q-16 0 -26 9.5t-10 25.5q0 21 11 34t31 13z" />
    <glyph glyph-name="quotedbl" unicode="&#x22;" horiz-adv-x="238" 
d="M125 655h1q12 0 5 -38q-21 -103 -44 -150q-19 -16 -34 -18q15 57 34 186q1 7 15 13.5t23 6.5zM243 655h1q12 0 5 -38q-23 -104 -44 -150q-18 -16 -34 -18q17 69 34 186q1 7 14.5 13.5t23.5 6.5z" />
    <glyph glyph-name="numbersign" unicode="#" horiz-adv-x="419" 
d="M79 441h76l37 127q2 3 13 7t18 4q8 0 4 -15l-34 -123h99l34 127q2 2 14 6.5t20 4.5q6 0 2 -15l-34 -123h64q8 0 9 -2.5t0 -11.5q-3 -7 -17 -25h-67l-38 -147h70q12 0 9 -12q-8 -20 -16 -26h-75l-39 -155q-12 -12 -34 -12q-5 0 -1 15l38 152h-102l-41 -155q-3 -12 -13 -12
q-16 0 -22 18l40 149h-64q-6 0 -9 1.5t-3.5 3.5t0.5 4q3 14 15 29h71l41 148h-69q-8 0 -11 2.5t-1 8.5q9 19 16 27zM282 403h-101l-41 -148h103z" />
    <glyph glyph-name="dollar" unicode="$" horiz-adv-x="419" 
d="M292 657l-16 -85q31 -3 62.5 -20t44.5 -33q-10 -35 -36 -18q-50 36 -99 36q-56 0 -87.5 -27.5t-31.5 -76.5q0 -21 7 -38t23.5 -33t30.5 -26t43 -29q64 -42 91.5 -75t27.5 -78q0 -69 -44 -108.5t-121 -44.5l-14 -71q-3 -12 -5.5 -15.5t-8.5 -5.5q-10 -2 -19.5 -2.5
t-10.5 0.5l20 95q-35 4 -67 18t-48 27t-18 20q3 13 12 20t21 0q61 -51 130 -49q126 0 126 109q0 18 -7 35t-14.5 27.5t-27.5 26t-29.5 21.5l-36.5 24q-51 32 -79 65.5t-28 83.5q0 52 37.5 95t116.5 48l12 66q3 10 16 14q16 4 27 4z" />
    <glyph glyph-name="percent" unicode="%" horiz-adv-x="686" 
d="M604 656q11 -18 10 -32q-33 -42 -228 -308l-264 -357q-7 -12 -13 0q-5 8 -11 29l410 562q-35 -19 -79 -25t-76.5 -3t-56.5 11q10 -27 10 -71q0 -78 -42.5 -134.5t-107.5 -56.5q-52 0 -77.5 39t-25.5 94q0 79 42.5 138.5t111.5 59.5q30 0 64 -20q50 -28 123.5 -25
t117.5 28q30 16 54 45l21 26q10 11 17 0zM200 568h-1q-45 0 -75 -49t-29 -120q0 -38 15.5 -66t50.5 -28q40 0 71.5 41t31.5 120q0 102 -64 102zM536 319h1q53 0 77.5 -41t24.5 -97q0 -80 -40.5 -136.5t-108.5 -56.5q-53 0 -79 40t-26 97q0 78 41 136t110 58zM529 285h-1
q-43 0 -72 -48.5t-29 -118.5q0 -39 16.5 -67.5t54.5 -28.5q39 0 69 43t30 121q0 99 -68 99z" />
    <glyph glyph-name="ampersand" unicode="&#x26;" horiz-adv-x="596" 
d="M527 2v-3q-28 -15 -39 -15t-30 22l-86 99q-56 -72 -101.5 -94.5t-93.5 -22.5q-67 0 -110.5 41.5t-43.5 108.5q0 43 21 78t47.5 56.5t70.5 50.5q9 5 13 8q-52 64 -52 132q0 64 39.5 107.5t103.5 43.5q51 0 84 -33.5t33 -84.5q0 -16 -4 -31t-8.5 -26t-16 -24l-17.5 -20
t-23 -19.5t-23.5 -16.5l-27 -17l-25.5 -16q80 -95 136 -155q111 173 139 206q27 33 38 33q15 0 27 -25v-2q-29 -24 -67 -76.5t-111 -162.5q119 -132 127 -142zM167 469v-1q0 -62 51 -116q68 43 89 68q30 34 30 74q0 36 -21 60t-55 24q-43 0 -68.5 -32t-25.5 -77zM186 31h1
q84 0 161 100l-153 174q-41 -28 -61.5 -44.5t-40 -46.5t-19.5 -64q0 -53 32 -86t80 -33z" />
    <glyph glyph-name="quotesingle" unicode="'" horiz-adv-x="120" 
d="M128 655h1q10 0 3 -38q-20 -96 -45 -150q-19 -16 -34 -18q19 73 34 189q4 5 17.5 11t23.5 6z" />
    <glyph glyph-name="parenleft" unicode="(" horiz-adv-x="282" 
d="M33 207v1q0 155 67.5 286t184.5 206q7 -3 12 -15t1 -17q-220 -177 -220 -461q0 -233 124 -367q-1 -8 -8.5 -15.5t-13.5 -8.5q-73 50 -110 164.5t-37 226.5z" />
    <glyph glyph-name="parenright" unicode=")" horiz-adv-x="282" 
d="M244 303v-1q0 -315 -254 -486q-7 3 -11 15.5t0 18.5q220 176 220 454q0 238 -123 372q1 8 8 15.5t12 8.5q76 -57 112 -171t36 -226z" />
    <glyph glyph-name="asterisk" unicode="*" horiz-adv-x="313" 
d="M179 547l16 117q10 0 23 -3q17 -5 12 -20l-26 -97l101 43q11 -11 12 -21q4 -16 -16 -21l-89 -24l87 -66q15 -11 5 -23q-8 -11 -22 -16l-86 87l-17 -115q-11 0 -29 7q-10 4 -3 29l23 86l-107 -47q-5 6 -11 26q-3 12 10 16l99 26l-80 63q-14 11 -7 21q7 9 20 19z" />
    <glyph glyph-name="plus" unicode="+" horiz-adv-x="565" 
d="M259 229h-197q2 40 31 40h166v110q0 53 -3 80l24 4q14 3 19.5 -5t5.5 -29v-160h196q-5 -40 -32 -40h-164v-188q0 -21 -28 -28l-18 -2v218z" />
    <glyph glyph-name="comma" unicode="," horiz-adv-x="148" 
d="M62 107h1q17 0 17 -48q0 -36 -25.5 -84.5t-55.5 -66.5q-21 -11 -49 -9q36 36 57.5 89t13.5 99q20 20 41 20z" />
    <glyph glyph-name="hyphen" unicode="-" horiz-adv-x="252" 
d="M221 268l1 -2q-3 -15 -16 -29.5t-35 -19.5q-76 -18 -155 -20l-2 3q11 37 27 41q154 20 180 27z" />
    <glyph glyph-name="period" unicode="." horiz-adv-x="148" 
d="M50 72h1q15 0 24 -11t9 -27q0 -20 -11 -32.5t-29 -12.5q-37 0 -37 36q0 21 11 34t32 13z" />
    <glyph glyph-name="slash" unicode="/" horiz-adv-x="310" 
d="M320 641l-269 -699q-9 -23 -15.5 -30t-18.5 -7h-27l275 706q10 28 27 29z" />
    <glyph glyph-name="zero" unicode="0" horiz-adv-x="419" 
d="M243 602h1q46 0 78 -21.5t47.5 -58t22 -73.5t6.5 -80q0 -66 -12 -129.5t-36 -121.5t-68 -94t-101 -36q-45 0 -77 22t-48 59.5t-22.5 75.5t-6.5 80q0 58 12 120t36 121.5t68 97.5t100 38zM243 565h-1q-52 0 -91 -52t-57 -127.5t-18 -159.5q0 -32 4.5 -62.5t15 -64
t33.5 -54t56 -20.5q42 0 74 31t50.5 82t27.5 110t9 122q0 195 -103 195z" />
    <glyph glyph-name="one" unicode="1" horiz-adv-x="419" 
d="M307 602l8 -5l-78 -573q-2 -15 -5 -19.5t-11 -6.5l-40 -4q26 172 77 542q-32 -14 -88 -33.5t-77 -24.5l-1 2q5 18 20 40q124 45 195 82z" />
    <glyph glyph-name="two" unicode="2" horiz-adv-x="419" 
d="M17 1l-2 6q3 4 8 13.5t8 13.5q172 168 230.5 251.5t58.5 161.5q0 52 -27 82.5t-77 30.5q-79 0 -144 -80h-2q-12 32 14 60q25 26 63.5 43.5t79.5 17.5q67 0 105.5 -43t38.5 -111q0 -84 -60 -165q-61 -83 -225 -245q129 -7 282 1q0 -7 -8.5 -19.5t-17.5 -15.5
q-23 -8 -90 -8q-185 0 -235 6z" />
    <glyph glyph-name="three" unicode="3" horiz-adv-x="419" 
d="M121 282v2q1 7 12 20.5t16 15.5q71 10 115.5 48t44.5 100q0 41 -25 68t-66 27q-70 0 -136 -63q0 1 -2 1q-6 27 13 46q19 20 56 37.5t76 17.5q60 0 97.5 -36t37.5 -94q0 -56 -34.5 -97.5t-88.5 -60.5q127 -35 127 -153q0 -90 -60 -140.5t-152 -50.5q-43 0 -78.5 11.5
t-50.5 25.5q-8 8 -11.5 23t-1.5 26l2 1q68 -48 142 -48q73 0 115.5 39t42.5 108q0 60 -41.5 95t-108.5 35q-21 0 -41 -4z" />
    <glyph glyph-name="four" unicode="4" horiz-adv-x="419" 
d="M406 630l1 -3q-175 -161 -350 -408q88 -11 220 -11l33 201q11 4 42 9l3 -1l-31 -209q34 0 74 4v-2q-9 -24 -34 -35q-11 -4 -46 -6q-4 -34 -20 -145q-3 -22 -15 -26q-20 -4 -40 -4q12 63 28 175q-180 2 -252 15q-16 10 -20 27q44 67 158.5 207t161.5 176q42 31 87 36z" />
    <glyph glyph-name="five" unicode="5" horiz-adv-x="419" 
d="M61 320l-5 14q69 235 75 252q40 1 135.5 8t101.5 7l2 -1q-2 -18 -11 -29q-8 -12 -30 -15q-29 -3 -96 -7t-71 -4q-36 -103 -57 -189q116 -26 165 -52q89 -48 89 -141q-1 -89 -62.5 -141t-155.5 -52q-73 0 -112 26q-6 5 -10 19t-3 26q2 0 2 1q19 -13 54 -23t68 -10
q81 0 124 41t43 113q0 53 -40.5 85t-120.5 53q-20 5 -47.5 10.5t-37.5 8.5z" />
    <glyph glyph-name="six" unicode="6" horiz-adv-x="419" 
d="M422 602l-1 -2q-161 -27 -252 -127q-49 -55 -75 -125.5t-26 -140.5q0 -46 10.5 -84.5t41 -68t76.5 -29.5q61 0 98.5 47.5t37.5 115.5q0 54 -24.5 90t-75.5 36q-57 0 -110 -43l-3 2q-3 25 17 42q48 40 110 40q66 0 102 -47.5t36 -115.5q0 -90 -55.5 -147t-134.5 -57
q-92 0 -134.5 60.5t-42.5 157.5q0 159 103 276q39 45 84 76.5t82.5 44t60 17.5t35.5 5q26 0 40 -23z" />
    <glyph glyph-name="seven" unicode="7" horiz-adv-x="419" 
d="M40 -13v3q94 99 189 257t140 300h-255q-47 0 -47 11q0 17 28 36q16 -4 95 -4h230q0 -28 -21 -91q-41 -120 -129 -266.5t-143 -208.5q-33 -39 -60 -41q-15 0 -27 4z" />
    <glyph glyph-name="eight" unicode="8" horiz-adv-x="419" 
d="M238 602h1q58 0 99.5 -38t41.5 -95q0 -32 -9.5 -57t-33.5 -47.5t-37.5 -32t-49.5 -32.5q72 -48 96 -84.5t24 -73.5q0 -61 -47 -107.5t-137 -46.5q-82 0 -124.5 45t-42.5 99q0 17 4 32.5t8.5 27t16.5 25l18 20t24 19.5l23 16.5t26.5 16.5t24.5 15q-43 34 -65 66t-22 78
q0 63 45 108.5t116 45.5zM236 565h-1q-52 0 -82 -34t-30 -74q0 -38 22.5 -68.5t75.5 -68.5q61 38 86 68.5t25 79.5q0 40 -28.5 68.5t-67.5 28.5zM193 25h1q58 0 92 31.5t34 81.5q0 37 -30 68.5t-95 75.5q-70 -39 -97.5 -70.5t-27.5 -75.5q0 -47 35.5 -79t87.5 -32z" />
    <glyph glyph-name="nine" unicode="9" horiz-adv-x="419" 
d="M301 309l2 -2q0 -24 -15 -37q-10 -9 -39 -18t-54 -9q-68 0 -108 45.5t-40 116.5q0 83 52.5 140t127.5 57q58 0 97.5 -33.5t55.5 -80.5t16 -102q0 -68 -19.5 -133.5t-71.5 -132.5t-131 -112q-71 -39 -109 -39q-25 0 -35 25q103 20 188 95q126 108 126 300q0 74 -30.5 125
t-91.5 51q-54 0 -89.5 -44.5t-35.5 -107.5q0 -61 32.5 -95t80.5 -34q47 0 91 25z" />
    <glyph glyph-name="colon" unicode=":" horiz-adv-x="148" 
d="M91 415h1q16 0 25 -11.5t9 -27.5q0 -19 -11.5 -31.5t-29.5 -12.5q-36 0 -36 36q0 21 11 34t31 13zM49 72h1q15 0 24 -11t9 -27q0 -20 -11 -32.5t-29 -12.5q-16 0 -26.5 9t-10.5 26q0 21 11.5 34.5t31.5 13.5z" />
    <glyph glyph-name="semicolon" unicode=";" horiz-adv-x="148" 
d="M88 415h1q16 0 25 -11t9 -27q0 -20 -11 -32.5t-29 -12.5q-16 0 -26.5 9.5t-10.5 26.5q0 21 11 34t31 13zM63 107h1q16 0 16 -49q0 -35 -25.5 -83.5t-55.5 -66.5q-18 -12 -49 -9q36 35 57.5 88.5t13.5 99.5q20 20 42 20z" />
    <glyph glyph-name="less" unicode="&#x3c;" horiz-adv-x="565" 
d="M443 424l-299 -191v-3l299 -187q0 -17 -10 -30q-10 -14 -24 -4l-315 202q-13 9 -13 14q0 13 11 24l317 207q14 10 24 -5q8 -15 10 -27z" />
    <glyph glyph-name="equal" unicode="=" horiz-adv-x="565" 
d="M469 322h-408q2 40 31 40h409q-1 -23 -7.5 -31.5t-24.5 -8.5zM469 130h-408q2 40 31 40h409q-1 -23 -7.5 -31.5t-24.5 -8.5z" />
    <glyph glyph-name="greater" unicode="&#x3e;" horiz-adv-x="565" 
d="M112 44l299 191v3l-299 187q0 15 10 30t26 4l313 -201q13 -8 13 -14q0 -17 -11 -25l-316 -207q-16 -11 -25 5q-4 7 -10 27z" />
    <glyph glyph-name="question" unicode="?" horiz-adv-x="283" 
d="M181 607h1q47 0 78.5 -27.5t31.5 -70.5q0 -41 -26.5 -71t-79.5 -64l-32.5 -21.5t-24.5 -19.5t-20.5 -26t-5.5 -29q1 -28 25.5 -46.5t70.5 -17.5q1 0 3 -0.5t3 -0.5q1 -20 -10 -26.5t-32 -6.5q-38 0 -72 25.5t-35 72.5q-1 37 23.5 66.5t78.5 62.5q84 51 84 100
q0 25 -18 42.5t-53 17.5q-39 0 -82 -29q-13 -11 -21 3q-5 9 -3 20q52 46 116 46zM119 71h1q36 0 36 -39q0 -18 -11.5 -30.5t-27.5 -12.5q-17 0 -27.5 10.5t-10.5 25.5q0 20 11.5 33t28.5 13z" />
    <glyph glyph-name="at" unicode="@" horiz-adv-x="699" 
d="M486 -57l2 -1q6 -26 -14 -39q-63 -42 -172 -42q-122 0 -193.5 83t-71.5 207q0 158 100 267t263 109q118 0 191 -71.5t73 -188.5q0 -99 -48 -169.5t-131 -70.5q-14 0 -26 4.5t-24.5 16t-18 37t-0.5 62.5q-30 -58 -73 -89t-79 -31q-34 0 -51 31t-17 70q0 100 56.5 174
t152.5 74q27 0 85 -14q-23 -94 -34 -189q-7 -57 3 -83t39 -26q61 0 92.5 55.5t31.5 135.5q0 103 -59.5 169t-161.5 66q-145 0 -230.5 -95.5t-85.5 -237.5q0 -116 63 -187t179 -71q85 0 159 44zM399 342h-1q-76 0 -116.5 -61.5t-40.5 -141.5q0 -72 39 -72q41 0 86.5 56
t66.5 158q7 40 10 54q-14 7 -44 7z" />
    <glyph glyph-name="A" unicode="A" horiz-adv-x="585" 
d="M409 228h-254l-120 -223q-6 -11 -16 -11q-11 0 -33 10l-1 2q280 506 320 586l-7 21q10 15 35 15q9 0 13 -13l126 -416q46 -154 63 -194v-2q-29 -9 -42 -9q-6 0 -10 5t-9 21zM176 267h224l-33 113l-29 100.5l-18 61.5z" />
    <glyph glyph-name="B" unicode="B" horiz-adv-x="477" 
d="M91 577v1q4 25 17 34q47 18 130 18q88 0 133.5 -38t45.5 -107q0 -109 -118 -155q125 -34 125 -146q0 -96 -70 -145t-163 -49q-72 0 -146 25l26.5 166l25.5 158.5t15 102.5l13.5 87t8.5 56q-8 -1 -16 -2.5l-16 -3t-11 -2.5zM363 480v1q0 34 -13.5 58t-35.5 34.5t-41 14.5
t-39 4q-41 0 -50 -2l-36 -248q54 0 71 2q144 13 144 136zM370 178v1q0 63 -46 96t-118 34q-33 1 -63 -3q-6 -45 -20.5 -139.5t-18.5 -124.5q29 -15 88 -15q78 0 128 40t50 111z" />
    <glyph glyph-name="C" unicode="C" horiz-adv-x="521" 
d="M474 66l2 -1q-2 -29 -16 -44q-59 -36 -158 -36q-125 0 -192.5 78.5t-67.5 204.5q0 50 13 100.5t42 99.5t70 87t101.5 61.5t131.5 23.5q92 0 130 -35q-5 -38 -31 -26q-47 21 -103 21q-130 0 -213.5 -94.5t-83.5 -236.5q0 -106 56 -174.5t161 -68.5q96 0 158 40z" />
    <glyph glyph-name="D" unicode="D" horiz-adv-x="604" 
d="M96 578l-1 1q2 19 14 35q57 16 141 16q157 0 238.5 -72t80.5 -223q-1 -107 -49.5 -186.5t-128 -119t-178.5 -39.5q-78 0 -166 26l63 410l23 158q-7 -1 -18.5 -2.5t-18.5 -3.5zM514 331q0 262 -274 262q-29 0 -56 -3q-14 -92 -39.5 -274t-39.5 -274q47 -15 108 -15
t114 18.5t95.5 54.5t67 95.5t24.5 135.5z" />
    <glyph glyph-name="E" unicode="E" horiz-adv-x="413" 
d="M143 341h222q-6 -25 -18.5 -32t-47.5 -7h-163l-35 -260q26 -9 123 -9q109 0 150 6l1 -2q-2 -11 -12 -23.5t-24 -15.5q-23 -4 -105 -4q-121 0 -176 11l-12 16l67 463q7 51 16 128q18 10 43 13h222q0 -22 -14 -30q-14 -9 -63 -9h-140z" />
    <glyph glyph-name="F" unicode="F" horiz-adv-x="392" 
d="M140 318h231q-8 -26 -19.5 -32.5t-38.5 -6.5h-180q-22 -172 -38 -280q-10 -5 -38 -5q-9 0 -11.5 3.5t-1.5 13.5l71 493q3 17 13 111q13 5 40 10h251q-2 -20 -15 -30q-14 -9 -64 -9h-165z" />
    <glyph glyph-name="G" unicode="G" horiz-adv-x="594" 
d="M393 640h1q51 0 95 -13.5t66 -31.5q-7 -40 -43 -23q-54 27 -121 27q-133 0 -212.5 -91t-79.5 -220q0 -128 68.5 -197t196.5 -69q55 0 82 11q31 187 35 259q29 9 41 9q13 0 11 -15q-3 -27 -16.5 -120t-21.5 -160q-84 -21 -151 -21q-142 0 -222 78t-80 222q0 46 12 93.5
t40 95t67.5 84t99.5 59.5t132 23z" />
    <glyph glyph-name="H" unicode="H" horiz-adv-x="590" 
d="M144 342h330l38 256q4 27 18 29q14 1 38 1l-74 -504q-11 -69 -16 -124q-17 -6 -43 -6q-13 0 -10 18l43 293q-24 -2 -159 -2h-170l-39 -279q-4 -26 -17 -28q-29 -2 -42 -2q21 130 73 497q15 112 15 131q8 1 17 2.5t14.5 2.5t11.5 1q4 0 5.5 -2t2.5 -8t0 -17.5t-4 -29.5z
" />
    <glyph glyph-name="I" unicode="I" horiz-adv-x="208" 
d="M44 12l69 479q6 44 16 130q21 7 42 7q4 0 6 -1.5t2.5 -7.5t-0.5 -17t-4 -31l-64 -447q-13 -88 -16 -124q-17 -6 -40 -6q-14 0 -11 18z" />
    <glyph glyph-name="J" unicode="J" horiz-adv-x="210" 
d="M-95 -115l2 3q74 4 105.5 50t50.5 184q23 158 46 348q13 114 16 152q30 6 43 6q7 0 8.5 -5.5t-0.5 -26.5q-6 -50 -66 -505q-7 -55 -20.5 -97.5t-31 -67t-33.5 -40.5t-35.5 -22t-30 -7.5t-23.5 -1.5q-11 0 -20 10t-11 20z" />
    <glyph glyph-name="K" unicode="K" horiz-adv-x="540" 
d="M44 12l68 461q6 37 21 149q20 6 39 6q9 0 9 -11t-3 -27l-40 -272l365 317q14 2 34 -5q16 -5 3 -17l-342 -294q5 -6 32.5 -37l45 -50.5l47.5 -53l52.5 -57l47.5 -49.5t44.5 -43.5t32.5 -26.5l-1 -4q-16 -6 -42 -6q-24 0 -69 47q-25 25 -81 87l-109.5 122.5t-59.5 66.5
l-42 -315q-21 -6 -44 -6q-11 0 -8 18z" />
    <glyph glyph-name="L" unicode="L" horiz-adv-x="407" 
d="M47 20l65 471q15 112 15 131q32 6 44 6q3 0 4 -1.5t1.5 -8t-0.5 -17.5t-4 -31l-70 -528q26 -9 122 -9q109 0 140 6l1 -2q-3 -11 -13 -23.5t-23 -15.5q-23 -4 -100 -4q-118 0 -170 10q-8 8 -12 16z" />
    <glyph glyph-name="M" unicode="M" horiz-adv-x="793" 
d="M656 614l1 9q15 5 32 5q11 0 11 -15q-1 -594 0 -613q-18 -6 -43 -6q-8 0 -8 17q0 14 1 99t3 201l4 229l-101 -198.5l-119.5 -234t-54.5 -108.5q-11 -10 -31 -13q-43 177 -146 540q-128 -485 -138 -520q-4 -12 -18 -12q-6 0 -13 1.5t-11.5 3t-5.5 1.5l77.5 279.5
l88.5 320.5l-5 19q9 9 30 9q6 0 9 -3.5t7 -15.5q8 -24 152 -528z" />
    <glyph glyph-name="N" unicode="N" horiz-adv-x="618" 
d="M505 320l39 282q2 21 19 23q24 3 30 3q-63 -415 -88 -630q-11 -11 -25 -11q-6 0 -16 17l-226 381l-78 136l-30 -234l-36 -263q-3 -23 -18 -27q-15 -3 -34 -3l83 563q3 16 -4 27l-20 33v5q22 6 38 6q7 0 18 -15q11 -17 41.5 -68l82 -138.5l82.5 -138.5q93 -155 112 -192
q15 133 30 244z" />
    <glyph glyph-name="O" unicode="O" horiz-adv-x="618" 
d="M354 640h1q77 0 130.5 -39t77 -99t23.5 -135q0 -56 -11.5 -110t-36 -103.5t-60 -87t-88 -59.5t-114.5 -22q-108 0 -170 74t-62 200q0 95 35 180.5t107.5 143t167.5 57.5zM346 603h-1q-106 0 -175 -104.5t-69 -243.5q0 -101 47.5 -167t136.5 -66q80 0 137.5 53.5t82 129.5
t24.5 161q0 101 -43.5 169t-139.5 68z" />
    <glyph glyph-name="P" unicode="P" horiz-adv-x="456" 
d="M89 579l-2 2q0 17 17 34q47 15 124 15q111 0 163.5 -49.5t52.5 -134.5q0 -55 -20.5 -97t-52.5 -64t-64 -32.5t-63 -10.5q-48 0 -70 15q-12 9 -14 33l2 3q29 -12 70 -12q70 0 113 38.5t43 126.5q0 72 -44 109t-121 37q-34 0 -39 -2l-84 -590q-13 -6 -41 -6q-14 0 -10 18
q36 231 84 573q-6 -1 -21.5 -3t-22.5 -3z" />
    <glyph glyph-name="Q" unicode="Q" horiz-adv-x="617" 
d="M623 -127l1 -2q-13 -29 -54 -29q-51 0 -179 80q-6 4 -20.5 13l-18.5 11.5l-15 9t-14.5 8t-12.5 6t-14 6l-13.5 4t-16 3.5t-16.5 2q-103 11 -155 84.5t-52 190.5q0 96 35.5 181.5t108 142t167.5 56.5q115 0 173 -79t58 -197q0 -132 -60.5 -236.5t-172.5 -130.5
q19 -5 80 -46q123 -77 191 -78zM348 603h-1q-72 0 -129 -49t-87.5 -128t-30.5 -169q0 -103 46.5 -169t136.5 -66q62 0 110.5 30t77 80.5t43.5 110.5t15 125q0 100 -44 167.5t-137 67.5z" />
    <glyph glyph-name="R" unicode="R" horiz-adv-x="497" 
d="M87 577l-2 3q3 15 19 31q51 19 127 19q89 0 137.5 -44t48.5 -120q0 -67 -41.5 -116.5t-109.5 -70.5q14 -14 86 -133t98 -145v-2q-12 -7 -37 -7q-26 0 -54 45l-103 169q-25 42 -40 51.5t-50 7.5q-9 -1 -32 -1l-36 -240q-4 -26 -21 -29q-18 -1 -37 -1q37 208 89 592
q-8 -1 -16 -2.5t-15.5 -3.5t-10.5 -3zM180 590l-40 -289q99 0 147 24q36 18 57 53.5t21 82.5q0 60 -37.5 95.5t-110.5 35.5q-19 0 -37 -2z" />
    <glyph glyph-name="S" unicode="S" horiz-adv-x="409" 
d="M245 640h1q34 0 70.5 -13t49.5 -31q-2 -12 -11.5 -21t-19.5 -3q-47 28 -94 28q-56 0 -89 -29.5t-33 -84.5q0 -43 26.5 -76.5t92.5 -83.5q61 -45 89.5 -82.5t28.5 -87.5q0 -79 -53 -125t-140 -46q-88 0 -139 51q-14 13 -14 22q-1 6 3.5 15t12.5 14q64 -61 145 -61
q57 0 95.5 30.5t38.5 92.5q0 37 -27 72.5t-95 85.5q-62 44 -87.5 84t-25.5 87q0 73 49.5 117.5t125.5 44.5z" />
    <glyph glyph-name="T" unicode="T" horiz-adv-x="509" 
d="M189 11l78 575h-186q-27 0 -25 14q7 23 20 30q20 -5 143 -5h329q-5 -40 -48 -39h-181l-63 -463q-13 -98 -14 -124q-16 -5 -45 -5q-8 0 -8 17z" />
    <glyph glyph-name="U" unicode="U" horiz-adv-x="620" 
d="M164 568l-33 -258q-37 -285 159 -285q44 0 74.5 10.5t60 42.5t50.5 98t34 169l33 250q4 28 17 31q26 2 33 2l-10 -81t-16 -121l-18 -126q-24 -173 -88.5 -244t-175.5 -71q-120 0 -173 78t-31 253l22 173q5 38 11.5 80.5t7.5 50.5q19 8 39 8q7 0 7.5 -11t-3.5 -49z" />
    <glyph glyph-name="V" unicode="V" horiz-adv-x="558" 
d="M104 628h1q9 0 24 -60l119 -500l293 560q23 -5 31 -9q12 -6 1 -26l-303 -566q-12 -26 -26 -33q-8 -5 -25 -7q-109 457 -155 629q12 12 40 12z" />
    <glyph glyph-name="W" unicode="W" horiz-adv-x="846" 
d="M105 628h1q9 0 15 -40q7 -38 80 -519l235 532q2 3 2 14q21 13 34 13q8 0 12 -26l86 -531l256 557l27 -3q18 -5 11 -23l-269 -567q-14 -27 -28 -37q-18 -10 -30 -8l-86 552l-230 -521q-8 -16 -21 -24q-12 -9 -32 -9q-82 526 -103 631q18 9 40 9z" />
    <glyph glyph-name="X" unicode="X" horiz-adv-x="517" 
d="M64 617v2q18 9 40 9q7 0 12.5 -6.5t16.5 -27.5l133 -233l202 249q15 18 22 18q17 0 36 -14v-2l-239 -289l81.5 -139.5l65.5 -113t41 -66.5v-2q-21 -8 -41 -8q-12 0 -24 20q-19 30 -70.5 121.5l-85.5 150.5l-221 -281q-9 -11 -21 -11q-19 0 -32 11v2l253 316l-95.5 167
t-73.5 127z" />
    <glyph glyph-name="Y" unicode="Y" horiz-adv-x="526" 
d="M62 617l1 3q24 8 41 8q11 0 33 -44l59 -113l72 -140q24 26 127 158t109 139q15 -1 31 -7t-4 -29l-126 -153.5l-115 -143.5q-6 -7 -10 -34l-16 -137q-13 -109 -14 -124q-20 -6 -43 -6q-7 0 -8.5 3.5t-0.5 14.5l29 231q1 11 2 26.5t1 19.5q0 16 -12 38q-101 200 -156 290z
" />
    <glyph glyph-name="Z" unicode="Z" horiz-adv-x="471" 
d="M444 38l1 -2q-6 -15 -18.5 -25t-23.5 -13q-16 -4 -144 -4q-182 0 -243 8q-7 2 -13 9.5t-6 12.5q98 122 223.5 297.5t182.5 264.5h-304q-38 0 -38 10q0 16 23 35q28 -6 84 -6h305q1 -17 -15 -40q-52 -83 -165 -244t-222 -301q74 -7 195.5 -7t177.5 5z" />
    <glyph glyph-name="bracketleft" unicode="[" horiz-adv-x="282" 
d="M87 213q55 415 65 445q6 5 53.5 11t79.5 6q6 -12 6 -21q0 -8 -16 -10q-48 -5 -72 -11q-14 -4 -20 -28q-1 -6 -6.5 -47l-19.5 -149l-27 -204q-40 -313 -40 -326q2 -17 19 -20q9 -2 83 -10q10 -2 10 -6q0 -8 -15 -22q-30 0 -64.5 3.5t-57 7.5t-24.5 7q0 14 46 374z" />
    <glyph glyph-name="backslash" unicode="\" horiz-adv-x="302" 
d="M119 640l129 -706q4 -25 -11 -25l-28 -4l-126 706q-2 15 2 21t22 7z" />
    <glyph glyph-name="bracketright" unicode="]" horiz-adv-x="282" 
d="M200 284q-44 -366 -65 -446q-7 -4 -54.5 -10.5t-81.5 -6.5q-5 12 -5 21q0 7 19 10q62 8 71 11q12 2 17 28q11 49 56 400q39 304 39 326q-1 14 -17 17q-28 7 -84 12q-9 2 -9 8q4 12 13 21q38 0 88 -6.5t58 -11.5q-1 -26 -8 -82.5l-19 -146.5t-18 -144z" />
    <glyph glyph-name="asciicircum" unicode="^" horiz-adv-x="565" 
d="M70 233l170 350q7 13 22 17q21 3 31 2l180 -369q-5 -5 -19 -10.5t-21 -5.5q-9 0 -18 22l-146 312l-146 -318q-10 -16 -17 -16q-18 0 -36 16z" />
    <glyph glyph-name="underscore" unicode="_" horiz-adv-x="500" 
d="M472 -75v-50h-500v50h500z" />
    <glyph glyph-name="grave" unicode="`" horiz-adv-x="400" 
d="M176 676h1q8 -1 38.5 -51.5t45.5 -83.5q6 -16 -1 -22q-4 -3 -7.5 -6t-5.5 -5t-3 -2q-46 74 -99 135q-8 10 0 17q20 18 31 18z" />
    <glyph glyph-name="a" unicode="a" horiz-adv-x="466" 
d="M24 113v1q0 66 27 139.5t80 124.5q73 68 178 68q37 0 111 -18q-25 -108 -46 -289q-11 -79 -11 -140q-24 -11 -43 -11q-3 0 -3 17.5t2.5 49.5t7.5 70q0 3 4 27.5t5 35.5q-51 -100 -113.5 -150t-119.5 -50q-34 0 -56.5 31t-22.5 94zM123 32h1q64 0 138 97t96 223q8 32 8 45
q-29 11 -64 11q-98 0 -154 -72q-70 -90 -70 -224q0 -36 11.5 -58t33.5 -22z" />
    <glyph glyph-name="b" unicode="b" horiz-adv-x="481" 
d="M170 -12h-1q-34 0 -70 13t-57 40q4 16 31.5 205t37.5 271l10 82l5.5 47l2.5 21q26 13 42 13q10 0 4 -40q-2 -10 -21 -147t-33 -225q49 84 109 130.5t115 46.5q35 0 57.5 -24.5t29 -52t6.5 -56.5q0 -81 -30.5 -154t-93 -121.5t-144.5 -48.5zM329 401h-1q-62 0 -134 -82.5
t-92 -202.5q-7 -42 -9 -58q11 -14 36.5 -22.5t47.5 -8.5q98 0 152.5 84.5t54.5 200.5q0 40 -15 64.5t-40 24.5z" />
    <glyph glyph-name="c" unicode="c" horiz-adv-x="373" 
d="M274 446h1q20 0 42 -7.5t28 -16.5q-2 -13 -9.5 -20.5t-13.5 -5.5q-29 11 -56 11q-78 0 -131.5 -75t-53.5 -183q0 -56 22.5 -87t65.5 -31q73 0 140 70q10 -6 10 -21q0 -12 -12 -24q-63 -68 -154 -68q-52 0 -88 36.5t-36 117.5q0 117 68.5 210.5t176.5 93.5z" />
    <glyph glyph-name="d" unicode="d" horiz-adv-x="476" 
d="M113 -12h-1q-41 0 -65 35t-24 102q0 78 31 150t93.5 121.5t141.5 49.5q51 0 87 -26q22 128 35 248q19 12 42 12q8 0 2 -43q-64 -404 -75 -498q-11 -83 -9 -140q-24 -11 -43 -11q-4 1 -2 43.5t7 90.5q9 56 9 58q-45 -84 -106 -138t-123 -54zM129 33h1q64 0 139 93t95 222
q1 4 2.5 16.5t2.5 16.5q-32 27 -85 27q-92 0 -150 -82.5t-58 -200.5q0 -92 53 -92z" />
    <glyph glyph-name="e" unicode="e" horiz-adv-x="385" 
d="M259 446h1q40 0 65 -21.5t25 -58.5q0 -41 -25.5 -73t-67 -51t-86 -29t-90.5 -12q-3 -16 -3 -48q0 -56 22.5 -89.5t67.5 -33.5q83 0 149 79q10 -3 10 -20q0 -16 -14 -32q-59 -69 -159 -69q-126 0 -126 159q0 111 63 205t168 94zM249 410h-1q-60 0 -102.5 -51t-58.5 -122
q111 7 163.5 41.5t52.5 82.5q0 23 -15 36t-39 13z" />
    <glyph glyph-name="f" unicode="f" horiz-adv-x="223" 
d="M95 387h-73q5 36 27 37h50q9 68 25 118t32.5 77t38 43t38 20t36.5 4q41 0 58 -19q0 -12 -7.5 -21t-16.5 -5q-16 7 -36 7q-51 0 -78 -55t-41 -169q101 0 115 3q-9 -24 -25 -34q-11 -6 -96 -6q-25 -200 -47 -348q-21 -143 -62.5 -201t-112.5 -58q-20 0 -40.5 7t-27.5 16
q-7 8 -4.5 20.5t10.5 16.5q32 -21 63 -21q59 0 85.5 56t48.5 208q14 97 40 304z" />
    <glyph glyph-name="g" unicode="g" horiz-adv-x="386" 
d="M219 446h1q39 0 75 -25q10 -7 19 -5q6 0 41 4.5t45 7.5q-3 -9 -8 -47h-71q14 -32 14 -69q0 -93 -51.5 -149.5t-122.5 -57.5q-23 0 -41 6q-24 -18 -24 -31q0 -24 45 -35q104 -29 140 -42q31 -12 47.5 -35.5t16.5 -50.5q0 -56 -53 -101.5t-139 -45.5q-92 0 -142 43t-50 92
q0 53 117 120q-29 20 -29 47q0 9 14.5 24.5t30.5 26.5q-53 35 -53 115q0 79 48.5 143.5t129.5 64.5zM287 317v1q0 36 -18.5 64t-58.5 28q-52 0 -86 -49.5t-34 -121.5q0 -49 20.5 -74t57.5 -25q56 0 87.5 53.5t31.5 123.5zM163 -189h1q61 0 97 28t36 64q0 25 -14 41.5
t-50 28.5q-78 26 -125 36q-43 -23 -70.5 -50.5t-27.5 -48.5q0 -40 44.5 -69.5t108.5 -29.5z" />
    <glyph glyph-name="h" unicode="h" horiz-adv-x="488" 
d="M351 446h1q87 0 64 -151l-27 -157q-17 -99 -19 -139q-22 -11 -44 -11q-3 0 -3.5 11.5t4 45.5t13.5 87l31 182q16 90 -35 90q-29 0 -64.5 -22.5t-71 -64.5t-65.5 -113t-44 -157q-7 -39 -13 -45q-10 -8 -45 -10q19 94 79 525q13 93 19 151q24 12 41 12q7 0 7.5 -11.5
t-3.5 -34.5l-56 -385q51 97 115 147t116 50z" />
    <glyph glyph-name="i" unicode="i" horiz-adv-x="197" 
d="M145 662h1q26 0 26 -31q0 -17 -11 -25.5t-23 -8.5q-27 0 -27 29q0 20 11 28t23 8zM136 446h1q9 0 6 -23l-53 -392q-2 -22 -12 -28q-21 -9 -41 -11q15 98 36 252q21 160 22 190q26 12 41 12z" />
    <glyph glyph-name="j" unicode="j" horiz-adv-x="200" 
d="M145 662h1q26 0 26 -31q0 -17 -11 -25.5t-23 -8.5q-27 0 -27 29q0 20 11 28t23 8zM139 446h1q7 0 4 -33q-14 -121 -52 -385q-7 -48 -14.5 -81.5t-20 -67t-29 -54t-42 -33t-58.5 -12.5q-19 0 -35 10q-9 6 -10.5 19t4.5 19q18 -10 40 -10q52 0 76 43t40 146q23 154 40 284
q14 107 14 143q20 12 42 12z" />
    <glyph glyph-name="k" unicode="k" horiz-adv-x="428" 
d="M406 420q-34 -19 -115 -80.5t-124 -99.5q31 -45 101 -123.5t106 -106.5q-3 -6 -15.5 -14t-21.5 -8q-14 0 -69 59q-90 99 -155 185q-13 -98 -28 -182q-7 -39 -15 -46q-15 -12 -42 -12q29 137 83 526q18 133 18 148q20 14 43 14q8 0 3 -45l-60 -394q62 58 195 160
q59 45 72 45q8 0 16 -9t8 -17z" />
    <glyph glyph-name="l" unicode="l" horiz-adv-x="197" 
d="M173 635l-86 -594q-5 -36 -17 -41q-16 -6 -39 -8q30 162 79 525q17 118 20 153q26 10 42 10q8 0 1 -45z" />
    <glyph glyph-name="m" unicode="m" horiz-adv-x="768" 
d="M122 252h3q46 87 107 140.5t115 53.5q90 0 64 -163q-2 -9 -2.5 -15.5t-1.5 -11.5h3q49 92 108.5 141t112.5 49q92 0 65 -167q-2 -13 -23 -141q-15 -95 -17 -139q-20 -11 -46 -11q-2 2 -1.5 18.5t4.5 50.5t11 73q26 158 27 167q13 105 -40 105q-24 0 -56 -21t-67.5 -61.5
t-67 -114.5t-48.5 -167q-4 -19 -7.5 -26t-11.5 -11q-14 -8 -37 -9q2 14 12.5 72.5l21 122t16.5 113.5q13 102 -38 102q-23 0 -54.5 -20.5t-68 -60.5t-69 -114.5t-47.5 -168.5q-4 -30 -19 -37q-13 -7 -38 -9q33 190 42 256q20 146 18 186q18 12 44 12q3 0 4 -11t-1.5 -46
t-9.5 -90q-1 -5 -3 -21t-4 -26z" />
    <glyph glyph-name="n" unicode="n" horiz-adv-x="486" 
d="M120 248h3q46 88 109 143t118 55q18 0 30.5 -5t25.5 -21.5t14 -48.5t-5 -86q-3 -17 -10.5 -63.5l-13.5 -83.5q-17 -118 -17 -139q-22 -11 -47 -11q-2 3 -2 15t4 47t12 82q1 8 11.5 68t15.5 100q9 43 1 72.5t-38 29.5q-27 0 -61.5 -24t-70 -67t-66 -115t-44.5 -158
q-4 -19 -7.5 -26t-11.5 -11q-14 -8 -37 -9q20 109 41 256q21 148 18 186q16 12 44 12q2 0 2.5 -12.5t-2 -47.5t-9.5 -87q-1 -13 -7 -51z" />
    <glyph glyph-name="o" unicode="o" horiz-adv-x="446" 
d="M258 446h1q72 0 106 -46t34 -121q0 -121 -66 -206t-161 -85q-144 0 -144 167q0 66 25.5 131t80 112.5t124.5 47.5zM252 409h-1q-67 0 -117.5 -76.5t-50.5 -181.5q0 -67 27 -96.5t68 -29.5q63 0 114.5 71t51.5 190q0 51 -21.5 87t-70.5 36z" />
    <glyph glyph-name="p" unicode="p" horiz-adv-x="481" 
d="M120 268h3q47 82 104 129.5t117 47.5q50 0 72.5 -42.5t22.5 -91.5q0 -131 -69 -227t-179 -96q-66 0 -106 42q-4 -29 -10.5 -68l-13 -78.5t-8.5 -53.5q-5 -33 -14 -39q-12 -10 -42 -11q46 257 77 484q19 143 21 172q24 16 51 16q-5 -32 -13.5 -92.5t-12.5 -91.5zM326 400
h-1q-61 0 -135 -87t-93 -214q-1 -5 -4 -23q14 -20 42 -33t58 -13q92 0 142 81t50 193q0 43 -15 69.5t-44 26.5z" />
    <glyph glyph-name="q" unicode="q" horiz-adv-x="476" 
d="M24 119v1q0 81 30.5 154t95.5 122.5t151 49.5q46 0 127 -22q-18 -95 -94 -602q-4 -25 -17 -33q-15 -8 -40 -9q5 22 15 83l25 155.5l25 152.5q-48 -90 -109 -136.5t-120 -46.5q-38 0 -63.5 33.5t-25.5 97.5zM77 121v-1q0 -35 14 -61.5t41 -26.5q26 0 59 19t68.5 56.5
t66 104.5t43.5 150q1 6 4 33q-39 13 -80 13q-68 0 -118.5 -43t-74 -107t-23.5 -137z" />
    <glyph glyph-name="r" unicode="r" horiz-adv-x="313" 
d="M121 270h2q38 81 82.5 128.5t81.5 47.5q24 0 33 -16q1 -16 -18 -38q-14 8 -27 8q-9 0 -23.5 -8.5t-37 -33.5t-44.5 -62.5t-44.5 -104t-37.5 -149.5q-7 -37 -20 -42q-14 -6 -38 -8q20 94 48 291q15 105 6 151q14 12 41 12q3 0 5 -15t0.5 -57.5t-9.5 -103.5z" />
    <glyph glyph-name="s" unicode="s" horiz-adv-x="331" 
d="M200 446h1q22 0 49 -10t38 -24q-8 -33 -31 -23q-41 18 -66 18q-36 0 -60.5 -22t-24.5 -57q0 -26 15.5 -44.5t67.5 -53.5q51 -33 66 -57t15 -56q0 -55 -41.5 -92t-104.5 -37q-77 0 -107 38q-9 13 6 40q51 -39 103 -39q47 0 71 22.5t24 57.5q0 26 -15 45.5t-68 54.5
q-46 29 -62.5 53.5t-16.5 58.5q0 54 41 90.5t100 36.5z" />
    <glyph glyph-name="t" unicode="t" horiz-adv-x="294" 
d="M243 100h2q15 -28 -11 -58q-48 -54 -107 -54q-40 0 -57 32t-5 114q9 67 40 253h-69q0 12 8 24.5t18 12.5h49q3 14 6 32t5 29t4.5 22.5t4.5 18t4 8.5q22 22 46 22l-23 -132q110 0 136 4q-6 -22 -25 -33q-12 -8 -117 -8q-30 -179 -40 -263q-6 -51 1 -72t30 -21q48 0 100 69
z" />
    <glyph glyph-name="u" unicode="u" horiz-adv-x="478" 
d="M342 156l-2 1q-88 -169 -210 -169q-51 0 -67.5 45.5t-4.5 117.5q10 64 24 139q12 75 19 143q24 13 44 13q8 0 4 -32q-31 -186 -45 -282q-8 -53 5.5 -77t39.5 -24q24 0 53.5 17t63.5 54t64 110.5t47 171.5q7 46 20 53q19 9 38 9q-33 -153 -50 -307q-12 -89 -9 -140
q-24 -11 -42 -11q-3 0 -3.5 19t2.5 59t9 90z" />
    <glyph glyph-name="v" unicode="v" horiz-adv-x="404" 
d="M379 400v-1q0 -77 -54 -169q-73 -128 -175 -217q-16 -13 -24 -16q-24 -9 -32 -9q-14 28 -22 138q-8 129 -10 308q21 12 40 12q9 0 9 -23q-2 -159 10 -304q5 -60 10 -69q78 71 140.5 169t62.5 188v28q22 11 35 11q10 0 10 -46z" />
    <glyph glyph-name="w" unicode="w" horiz-adv-x="634" 
d="M353 416h1q8 0 8 -23q0 -64 10.5 -189.5t20.5 -149.5q59 63 116 161t57 185q0 17 -3 38q16 8 34 8q5 0 8.5 -17t3.5 -33q0 -66 -39.5 -149t-78.5 -135t-76 -91q-16 -16 -32 -25q-18 -9 -28 -9q-10 23 -21.5 135.5t-13.5 180.5q-32 -67 -88.5 -154t-95.5 -133
q-8 -10 -23 -19q-15 -8 -28 -9q-15 28 -17 148q-1 46 -0.5 151.5t0.5 146.5q30 12 41 12t10 -23q-6 -144 -4 -274q0 -68 7 -89q41 53 102 147t92 168v27q20 14 37 14z" />
    <glyph glyph-name="x" unicode="x" horiz-adv-x="388" 
d="M55 433l1 2q17 11 38 11q9 0 19 -22l86 -167q132 142 166 196q9 0 17 -10t7 -22q-7 -23 -172 -199q93 -180 116 -218v-2q-16 -8 -38 -8q-12 0 -19 11q-9 14 -24.5 44l-36.5 71.5l-34 66.5q-157 -169 -177 -211q-11 0 -20 8.5t-9 15.5q0 13 33 52t154 172
q-52 108 -107 209z" />
    <glyph glyph-name="y" unicode="y" horiz-adv-x="399" 
d="M-7 -225q-14 0 -27 9.5t-11 15.5q82 73 168 191q-11 24 -22 81q-38 202 -52 361q20 13 38 13q9 0 11 -18q16 -149 45 -322q9 -54 18 -69q84 118 128 225.5t47 176.5q14 7 33 7q8 0 8 -22q0 -55 -41 -158.5t-116 -217.5q-53 -80 -123 -162.5t-104 -110.5z" />
    <glyph glyph-name="z" unicode="z" horiz-adv-x="345" 
d="M207 434h1q110 0 127 2q-4 -18 -18 -44q-21 -38 -98.5 -145t-158.5 -206q10 -6 116 -6q124 0 141 5q2 -8 -4 -19.5t-19 -17.5q-13 -8 -130 -8q-151 0 -167 11q-7 11 -9 17q55 63 154 192t128 181q-56 -2 -91 -2q-49 0 -74.5 0.5t-41.5 2.5t-19.5 4.5t-1.5 8.5q4 13 27 33
q6 -6 28.5 -7.5t109.5 -1.5z" />
    <glyph glyph-name="braceleft" unicode="{" horiz-adv-x="282" 
d="M292 700q3 -7 3 -18q0 -9 -21 -15q-82 -25 -82 -137q0 -94 -2 -120q-10 -105 -79 -130q33 -29 40.5 -66.5t-5.5 -89.5q-24 -114 -29 -156q-13 -102 69 -117q9 -2 9 -9q-5 -15 -18 -19q-120 11 -106 159q4 37 18 106.5t16 86.5q6 46 -8 69.5t-56 31.5q-2 1 -2 4.5t2.5 8.5
t5.5 9q81 1 92 81q3 21 6 149q3 104 65 146q35 24 82 26z" />
    <glyph glyph-name="bar" unicode="|" horiz-adv-x="251" 
d="M133 750v-1000h-45v1000h45z" />
    <glyph glyph-name="braceright" unicode="}" horiz-adv-x="282" 
d="M98 699q57 -5 85.5 -47.5t21.5 -111.5q-5 -38 -17.5 -100t-13.5 -70q-11 -71 58 -72q5 -11 -6 -22q-47 -11 -62.5 -34.5t-21.5 -81.5q-4 -39 -6.5 -99t-2.5 -68q-6 -105 -66 -143q-38 -25 -83 -28q-2 6 -2 18q0 11 22 17q45 14 63 45t19 84q0 41 8 163q5 58 21.5 90
t56.5 45q-26 14 -36 38t-8.5 43.5t7.5 50.5q20 84 27 138q12 100 -72 116q-7 2 -9 9q4 15 17 20z" />
    <glyph glyph-name="asciitilde" unicode="~" horiz-adv-x="565" 
d="M175 353h1q33 0 57 -13.5t52 -41.5q3 -3 16 -17t17.5 -18.5t16 -14.5t19 -14t17.5 -7.5t20 -3.5q32 0 49.5 24.5t24.5 86.5q2 15 11 15q16 0 27 -13q-8 -158 -111 -158q-33 0 -61 19.5t-70 63.5q-48 49 -84 49q-60 0 -79 -109q-4 -21 -24 -21q-12 0 -22 4q6 54 21.5 91
t35.5 52.5t35 20.5t31 5z" />
    <glyph glyph-name="uni00A0" unicode="&#xa0;" horiz-adv-x="215" 
 />
    <glyph glyph-name="exclamdown" unicode="&#xa1;" horiz-adv-x="155" 
d="M87 364h-1q-15 0 -24.5 10.5t-9.5 26.5q0 20 11.5 32.5t30.5 12.5q15 0 25 -10t10 -27q0 -20 -11.5 -32.5t-30.5 -12.5zM3 -172h-1q-12 0 -9 18q5 27 30 188.5l28 180.5q2 17 13 26q18 10 26 10q-1 -14 -19.5 -186.5t-22.5 -212.5q-4 -9 -19.5 -16.5t-25.5 -7.5z" />
    <glyph glyph-name="cent" unicode="&#xa2;" horiz-adv-x="419" 
d="M312 574l-15 -77q50 -6 77 -27q-2 -16 -13 -24q-9 -6 -24 1q-29 13 -63 13q-84 0 -128.5 -52t-44.5 -126q0 -65 35.5 -105t95.5 -40q31 0 64 10t51 23q7 -31 -18 -45q-35 -23 -94 -27l-13 -74q-2 -12 -7 -16.5t-16 -6.5q-6 -1 -23 -1l20 99q-74 13 -109.5 60t-35.5 117
q0 86 54.5 148t148.5 71l13 60q3 14 17 17q16 4 28 2z" />
    <glyph glyph-name="sterling" unicode="&#xa3;" horiz-adv-x="419" 
d="M382 15l1 -1q-6 -29 -26 -38q-28 -14 -83 -14q-142 0 -279 54l5 13q91 70 99 247q-70 0 -78 7q-5 5 1 8q38 21 80 24q8 156 50 230t130 74q55 0 84 -29q0 -13 -8.5 -22t-19.5 -3q-30 14 -61 14q-88 0 -113 -129q-7 -40 -14 -136q174 0 185 1q-9 -32 -44 -37
q-14 -2 -145 -2q-6 -159 -86 -237q34 -14 100.5 -25.5t113.5 -11.5q74 0 108 13z" />
    <glyph glyph-name="currency" unicode="&#xa4;" horiz-adv-x="419" 
d="M224 470h1q59 0 96 -33q14 14 33 35.5t27 29.5q15 -15 15 -41q-1 -4 -7 -11l-19.5 -22l-24.5 -27q21 -44 21 -90q0 -88 -50 -135q46 -63 47 -66q-12 -29 -24 -30q-5 1 -56 70q-38 -27 -89 -27q-46 0 -81 20l-45 -50q-17 -19 -29 -12q-15 12 -15 26l58 63q-36 44 -36 113
q0 77 52 133q-1 1 -12.5 15.5l-22.5 29.5q-10 13 -4 24q9 15 20 19q42 -52 51 -61q39 27 94 27zM217 434h-1q-55 0 -89.5 -43t-34.5 -109q0 -52 27.5 -87.5t77.5 -35.5q55 0 89 42t34 108q0 56 -25 90.5t-78 34.5z" />
    <glyph glyph-name="yen" unicode="&#xa5;" horiz-adv-x="419" 
d="M234 311h133l-6 -20q-3 -14 -22 -14h-116l-11 -87h127l-9 -22q-5 -12 -25 -12h-98l-17 -156q-19 -8 -36 -8q-10 0 -8 20l17 144h-128q-2 21 11 34h123l10 87h-137q0 20 12 34h127q-83 180 -131 269v3q17 12 36 12q7 0 12 -10q7 -13 26.5 -55.5l46 -99.5l42.5 -91
q121 162 178 245q6 8 11.5 9.5t14.5 -2.5q24 -7 16 -16z" />
    <glyph glyph-name="brokenbar" unicode="&#xa6;" horiz-adv-x="251" 
d="M133 675v-350h-45v350h45zM133 175v-350h-45v350h45z" />
    <glyph glyph-name="section" unicode="&#xa7;" horiz-adv-x="408" 
d="M270 630h1q19 0 40.5 -7.5t32.5 -19.5q-1 -11 -9.5 -19.5t-18.5 -2.5q-26 13 -50 13q-42 0 -61 -23.5t-18 -59.5q1 -18 9 -37.5t15.5 -31.5t32 -46.5l36.5 -52.5q38 -56 54.5 -94t16.5 -75q0 -54 -20.5 -100.5t-81.5 -102.5q-15 -43 -48.5 -67.5t-78.5 -24.5
q-36 0 -63.5 14.5t-39.5 31.5q8 35 29 19q37 -28 79 -28q33 0 57.5 23t21.5 63q-2 23 -16.5 55t-62.5 103q-78 115 -78 176q0 113 98 195q13 48 44.5 73.5t78.5 25.5zM309 167v1q0 56 -74 161l-43 64t-27.5 49.5t-16.5 50.5q-58 -60 -58 -144q0 -26 13 -58t26.5 -53.5
l42.5 -65.5q38 -57 53.5 -89t21.5 -70q62 62 62 154z" />
    <glyph glyph-name="dieresis" unicode="&#xa8;" horiz-adv-x="400" 
d="M157 611h1q14 0 23.5 -10.5t9.5 -25.5q0 -17 -11 -28.5t-28 -11.5q-15 0 -24.5 10t-9.5 26q0 15 10.5 27.5t28.5 12.5zM307 611h1q15 0 24 -10.5t9 -25.5q0 -17 -11 -28.5t-27 -11.5q-15 0 -25 9.5t-10 25.5q0 15 11 28t28 13z" />
    <glyph glyph-name="copyright" unicode="&#xa9;" horiz-adv-x="669" 
d="M341 630h1q130 0 210.5 -91t80.5 -223q0 -139 -84 -226.5t-208 -87.5q-126 0 -211 87.5t-85 226.5t85 226.5t211 87.5zM342 596h-1q-111 0 -182.5 -81t-71.5 -199q0 -116 72 -198t184 -82q110 0 179 80.5t69 199.5q0 116 -67.5 198t-181.5 82zM453 203v-2q-3 -22 -17 -33
q-24 -16 -77 -16q-71 0 -117 45t-46 116q0 73 47.5 120.5t125.5 47.5q29 0 54.5 -8t34.5 -17q0 -34 -25 -23q-33 14 -70 14q-45 0 -83 -32t-38 -95q0 -62 35 -97t99 -35q44 0 77 15z" />
    <glyph glyph-name="ordfeminine" unicode="&#xaa;" horiz-adv-x="325" 
d="M99 275h-1q-23 0 -39.5 21.5t-16.5 64.5q0 84 49.5 147.5t131.5 63.5q16 0 82 -12q-14 -53 -29 -193q-8 -67 -7 -83q-36 -9 -37 -9q-10 0 -3 52q3 25 8 54q-30 -51 -68 -78.5t-70 -27.5zM115 316h1q35 0 77.5 49.5t55.5 124.5q1 3 3.5 21t3.5 23q-15 5 -43 5
q-57 0 -91 -53.5t-34 -121.5q0 -48 27 -48z" />
    <glyph glyph-name="guillemotleft" unicode="&#xab;" horiz-adv-x="515" 
d="M92 223q15 -23 48.5 -85.5t34.5 -73.5q0 -8 -6.5 -17.5t-14.5 -11.5q-35 71 -107 175q-5 9 -5 24q92 88 146 178q16 -13 18 -31q1 -15 -43 -72.5t-71 -85.5zM258 223q23 -32 55.5 -91.5t33.5 -76.5q1 -10 -7.5 -20t-16.5 -13q-37 92 -111 187q-6 11 -6 25q87 87 154 189
q20 -12 20 -28q1 -22 -122 -172z" />
    <glyph glyph-name="logicalnot" unicode="&#xac;" horiz-adv-x="565" 
d="M452 85v232h-394q1 23 7 31.5t22 8.5h404l7 -9v-234q0 -25 -40 -27z" />
    <glyph glyph-name="uni00AD" unicode="&#xad;" horiz-adv-x="252" 
d="M221 268l1 -2q-3 -15 -16 -29.5t-35 -19.5q-76 -18 -155 -20l-2 3q11 37 27 41q154 20 180 27z" />
    <glyph glyph-name="registered" unicode="&#xae;" horiz-adv-x="229" 
d="M148 640h1q44 0 72 -29t28 -73q0 -43 -28 -72t-73 -29q-44 0 -71.5 29t-27.5 72t27.5 72.5t71.5 29.5zM147 620h-1q-31 0 -52 -23t-21 -58q0 -37 21 -59.5t55 -22.5q33 0 54.5 23t21.5 59q0 35 -21.5 58t-56.5 23zM134 528v-34q0 -8 -8 -8h-13v102q32 4 33 4q43 0 43 -32
q0 -20 -21 -26q2 -2 13 -21t17 -24v-2q-8 -2 -14 -2q-10 0 -17 10q-8 12 -12 23q-6 11 -21 10zM134 576v-35q15 0 20 1q13 4 13 18q0 17 -20 17q-11 0 -13 -1z" />
    <glyph glyph-name="macron" unicode="&#xaf;" horiz-adv-x="400" 
d="M319 544h-169q-11 0 -11 10q0 21 13 31h173q9 0 9 -6q0 -17 -15 -35z" />
    <glyph glyph-name="degree" unicode="&#xb0;" horiz-adv-x="256" 
d="M167 602h1q40 0 64 -27t24 -68q0 -45 -30.5 -76t-79.5 -31q-36 0 -61.5 24t-25.5 66q0 47 30 79.5t78 32.5zM164 568h-1q-31 0 -47 -21t-16 -55q0 -26 14 -42t37 -16q30 0 47 19.5t17 51.5q0 63 -51 63z" />
    <glyph glyph-name="plusminus" unicode="&#xb1;" horiz-adv-x="565" 
d="M252 302h-197q2 40 32 40h165v115q0 39 -3 64l23 5q15 3 20 -5t5 -28v-151h197q-2 -40 -32 -40h-165v-177q0 -25 -28 -28l-17 -2v207zM463 0h-407q2 40 31 40h408q-2 -40 -32 -40z" />
    <glyph glyph-name="twosuperior" unicode="&#xb2;" 
d="M79 675h-2q-2 9 1.5 22t9.5 18q41 35 92 35q42 0 68 -24.5t26 -66.5q0 -18 -6 -36.5t-18.5 -36l-23 -31t-29.5 -30l-28 -24t-28.5 -22t-20.5 -15.5q65 -4 165 0q-10 -25 -20 -31q-15 -6 -90 -6q-89 0 -127 6l-1 3q1 3 2.5 6t3.5 6.5t3 5.5q2 1 37 27.5t49.5 39t40 38
t36.5 49t11 47.5q0 28 -16.5 43.5t-41.5 15.5q-51 0 -93 -39z" />
    <glyph glyph-name="threesuperior" unicode="&#xb3;" 
d="M106 563l-2 4q11 22 14 24q95 21 95 78q0 20 -13 32t-36 12q-43 0 -80 -37q-2 2 -4 7q-4 21 9 34q36 33 85 33q35 0 59 -19.5t24 -53.5q0 -32 -17 -51t-46 -34q72 -21 72 -82q0 -52 -39 -80.5t-90 -28.5q-29 0 -53 7.5t-31 18.5q-7 14 -5 30h2q40 -21 83 -21
q37 0 62.5 17t25.5 54q0 28 -22 44t-56 16q-19 0 -37 -4z" />
    <glyph glyph-name="acute" unicode="&#xb4;" horiz-adv-x="400" 
d="M275 674h1q18 0 32 -18q8 -8 -4 -19q-33 -37 -99 -134q-7 3 -18 16q-5 5 5 26q19 38 47.5 83.5t35.5 45.5z" />
    <glyph glyph-name="mu" unicode="&#xb5;" horiz-adv-x="480" 
d="M83 290q12 75 19 143q24 13 44 13q8 0 4 -32q-31 -186 -44 -282q-8 -53 5.5 -77t38.5 -24q24 0 53.5 17t63.5 54t64 110.5t47 171.5q5 30 8.5 39.5t11.5 13.5q19 9 38 9q-33 -153 -50 -307q-12 -89 -9 -140q-24 -11 -42 -11q-3 0 -3.5 19t2.5 59t9 90l-2 1
q-88 -169 -209 -169q-32 0 -49 27q-9 -64 -35 -235q-17 0 -32 9q-18 9 -12 38z" />
    <glyph glyph-name="paragraph" unicode="&#xb6;" horiz-adv-x="448" 
d="M289 170l-33 -8q-16 -4 -38 -4q-58 0 -105 44.5t-46 121.5q1 92 57.5 147t132.5 55h94h99l1 -4q-4 -15 -19 -28l-56 -5l-46 -341q-19 -141 -62 -209.5t-127 -68.5q-44 0 -72 17t-29 32q0 13 13 26h2q37 -38 91 -38q56 0 87 50t47 156z" />
    <glyph glyph-name="periodcentered" unicode="&#xb7;" horiz-adv-x="148" 
d="M74 266h1q15 0 24 -11t9 -27q0 -20 -11.5 -32.5t-30.5 -12.5q-16 0 -25.5 10t-9.5 26q0 21 11.5 34t31.5 13z" />
    <glyph glyph-name="cedilla" unicode="&#xb8;" horiz-adv-x="400" 
d="M172 4h45l-42 -58q59 -21 59 -68q0 -43 -37 -66t-83 -28q-7 1 -12 10t-4 15q-1 3 1 5t9 4q77 15 77 53q0 21 -23.5 31t-54.5 10v3z" />
    <glyph glyph-name="onesuperior" unicode="&#xb9;" 
d="M226 750l3 -2l-40 -306q-1 -15 -19 -17l-25 -2q9 40 38 271q-52 -17 -88 -19l-1 2q3 12 15 27q29 7 66 22t51 24z" />
    <glyph glyph-name="ordmasculine" unicode="&#xba;" horiz-adv-x="295" 
d="M195 572h1q43 0 67.5 -33t24.5 -78q0 -84 -41 -135t-103 -51q-47 0 -73 30.5t-26 82.5q0 72 40.5 128t109.5 56zM188 538h-1q-44 0 -70.5 -46.5t-26.5 -101.5q0 -82 58 -82q38 0 66 41.5t28 108.5q0 32 -13.5 56t-40.5 24z" />
    <glyph glyph-name="guillemotright" unicode="&#xbb;" horiz-adv-x="515" 
d="M413 223q-13 19 -47.5 83.5t-35.5 74.5q-1 8 6 17.5t15 11.5q31 -62 107 -175q5 -9 5 -24q-92 -88 -146 -178q-16 14 -18 31q-1 14 41 69.5t73 89.5zM247 223q-21 29 -54.5 89.5t-34.5 77.5q-1 11 8 20.5t17 12.5q33 -88 110 -187q6 -10 6 -25q-88 -88 -153 -189
q-19 11 -21 28q0 7 10 25t27.5 41l33 42.5l32.5 40.5t19 24z" />
    <glyph glyph-name="onequarter" unicode="&#xbc;" horiz-adv-x="650" 
d="M210 602l2 -2q-1 -10 -8 -63.5l-17 -130.5t-14 -112q-1 -15 -20 -17l-25 -2q7 32 37 269q-45 -15 -86 -17l-1 2q3 12 15 27q29 7 66 22t51 24zM534 599l-437 -621q-11 -14 -18 -4q-13 11 -13 25l437 622q9 13 21 0q9 -12 10 -22zM557 335l3 -4q-98 -90 -190 -213
q27 -4 114 -6l13 80q4 4 17.5 10t18.5 7h4l-14 -95q22 0 50 4l1 -3q-7 -20 -19 -29q-2 -1 -37 -6q-5 -31 -10 -79q-23 -8 -40 -10l-4 5q10 53 13 82q-106 0 -146 8q-3 3 -8 11t-4 11q33 46 89.5 111.5t83.5 89.5q31 25 65 26z" />
    <glyph glyph-name="onehalf" unicode="&#xbd;" horiz-adv-x="650" 
d="M203 602l2 -2q-1 -10 -8 -63.5l-17 -130.5t-14 -112q-1 -15 -20 -17l-25 -2q7 32 37 269q-44 -15 -86 -17l-1 2q3 12 15 27q29 7 66 22t51 24zM527 599l-437 -621q-11 -14 -18 -4q-13 11 -13 25l437 622q10 13 21 0q8 -10 10 -22zM481 321h1q42 0 67.5 -25t25.5 -67
q0 -18 -6 -36.5t-18 -36t-23.5 -31.5t-30 -30l-28 -24t-28 -21.5t-20.5 -15.5q65 -4 165 0q-10 -25 -20 -31q-15 -6 -90 -6q-88 0 -127 6l-1 3q1 3 2.5 6t3.5 6.5t3 5.5l31 23.5t39 30.5t36 32t36 38t22 37.5t10 40.5q0 27 -17 43t-41 16q-51 0 -92 -38h-2q-2 8 1.5 21.5
t9.5 18.5q41 34 91 34z" />
    <glyph glyph-name="threequarters" unicode="&#xbe;" horiz-adv-x="650" 
d="M168 602h1q35 0 58.5 -19.5t23.5 -53.5q0 -53 -64 -85q72 -23 72 -82q0 -52 -39 -80.5t-90 -28.5q-29 0 -53 7.5t-31 18.5q-8 16 -6 30l1 1q40 -22 85 -22q37 0 62.5 17t25.5 54q0 29 -22 44.5t-56 15.5q-5 0 -37 -4l-2 2q9 23 15 26q95 23 95 78q0 20 -13 32t-36 12
q-43 0 -81 -36q-3 2 -5 8q-2 19 11 32q36 33 85 33zM572 599l-437 -621q-11 -14 -18 -4q-13 11 -13 25l437 622q9 13 21 0q9 -12 10 -22zM567 335l3 -5q-100 -93 -190 -212q27 -4 114 -6l13 80q4 4 17.5 10t18.5 7h4l-14 -95q21 0 49 4l2 -3q-7 -20 -19 -29q-2 -1 -37 -6
q-5 -32 -10 -79q-22 -8 -39 -10l-4 5q10 53 13 82q-108 0 -146 8q-4 3 -9 11t-4 11q32 46 89 110.5t85 89.5q26 24 64 27z" />
    <glyph glyph-name="questiondown" unicode="&#xbf;" horiz-adv-x="283" 
d="M154 364h-1q-36 0 -36 38q0 18 11.5 31t29.5 13q17 0 26.5 -10.5t9.5 -27.5q0 -19 -11 -31.5t-29 -12.5zM88 -172h-1q-45 0 -76 27t-31 73q0 39 27.5 69t79.5 63q44 27 65 47.5t21 48.5q0 30 -26 48t-74 17q-4 2 -4 4q-2 12 9 23q9 7 31 7q41 0 76 -25.5t35 -74.5
q0 -36 -24 -65.5t-77 -59.5q-43 -26 -66 -49.5t-23 -53.5q0 -25 18.5 -42t52.5 -17q41 0 82 29q14 11 22 -3q5 -9 3 -20q-53 -46 -120 -46z" />
    <glyph glyph-name="Agrave" unicode="&#xc0;" horiz-adv-x="585" 
d="M409 228h-254l-120 -223q-6 -11 -16 -11q-11 0 -33 10l-1 2q280 506 320 586l-7 21q10 15 35 15q9 0 13 -13l126 -416q46 -154 63 -194v-2q-29 -9 -42 -9q-6 0 -10 5t-9 21zM176 267h224l-33 113l-29 100.5l-18 61.5zM245 770h1q12 0 57.5 -26t72.5 -47q11 -8 4 -18
q-5 -7 -14 -14q-90 46 -152 65q-10 2 -5 10q4 10 15.5 20t20.5 10z" />
    <glyph glyph-name="Aacute" unicode="&#xc1;" horiz-adv-x="585" 
d="M409 228h-254l-120 -223q-6 -11 -16 -11q-11 0 -33 10l-1 2q280 506 320 586l-7 21q10 15 35 15q9 0 13 -13l126 -416q46 -154 63 -194v-2q-29 -9 -42 -9q-6 0 -10 5t-9 21zM176 267h224l-33 113l-29 100.5l-18 61.5zM421 769q8 -4 18.5 -14t14.5 -18q4 -11 -11 -16
q-89 -25 -155 -56q-8 5 -12 15q-5 11 7 18q26 18 74.5 43.5t63.5 27.5z" />
    <glyph glyph-name="Acircumflex" unicode="&#xc2;" horiz-adv-x="585" 
d="M409 228h-254l-120 -223q-6 -11 -16 -11q-11 0 -33 10l-1 2q280 506 320 586l-7 21q10 15 35 15q9 0 13 -13l126 -416q46 -154 63 -194v-2q-29 -9 -42 -9q-6 0 -10 5t-9 21zM176 267h224l-33 113l-29 100.5l-18 61.5zM241 660h-1q-12 0 -23 11q56 48 101 93q6 6 13 10
q9 2 15 2q32 -48 87 -100q-11 -16 -26 -16q-13 0 -17 6q-12 9 -58 59q-45 -42 -71 -58q-16 -7 -20 -7z" />
    <glyph glyph-name="Atilde" unicode="&#xc3;" horiz-adv-x="585" 
d="M409 228h-254l-120 -223q-6 -11 -16 -11q-11 0 -33 10l-1 2q280 506 320 586l-7 21q10 15 35 15q9 0 13 -13l126 -416q46 -154 63 -194v-2q-29 -9 -42 -9q-6 0 -10 5t-9 21zM176 267h224l-33 113l-29 100.5l-18 61.5zM290 770h1q31 0 60 -35q24 -29 32 -29q16 0 23 53
q2 11 10 11q13 0 24 -16q-3 -40 -18 -64.5t-40 -24.5q-6 0 -11.5 2t-9 3.5t-9.5 7t-8.5 8l-10 10.5l-10.5 11q-20 23 -33 23q-16 0 -28 -49q-2 -11 -8 -11t-27 8q10 92 63 92z" />
    <glyph glyph-name="Adieresis" unicode="&#xc4;" horiz-adv-x="585" 
d="M409 228h-254l-120 -223q-6 -11 -16 -11q-11 0 -33 10l-1 2q280 506 320 586l-7 21q10 15 35 15q9 0 13 -13l126 -416q46 -154 63 -194v-2q-29 -9 -42 -9q-6 0 -10 5t-9 21zM176 267h224l-33 113l-29 100.5l-18 61.5zM254 742h1q14 0 23.5 -11t9.5 -26q0 -17 -11 -28.5
t-27 -11.5q-15 0 -25 10t-10 28q0 15 11 27t28 12zM407 742h1q14 0 24 -10.5t10 -25.5q0 -19 -10.5 -30t-27.5 -11q-15 0 -25 10t-10 27q0 15 11 27.5t27 12.5z" />
    <glyph glyph-name="Aring" unicode="&#xc5;" horiz-adv-x="585" 
d="M409 228h-254l-120 -223q-6 -11 -16 -11q-11 0 -33 10l-1 2q280 506 320 586l-7 21q10 15 35 15q9 0 13 -13l126 -416q46 -154 63 -194v-2q-29 -9 -42 -9q-6 0 -10 5t-9 21zM176 267h224l-33 113l-29 100.5l-18 61.5zM339 824h1q34 0 54.5 -22t20.5 -57q0 -38 -25 -61.5
t-64 -23.5q-33 0 -54 21t-21 58q0 36 25 60.5t63 24.5zM335 788h-1q-19 0 -30.5 -15.5t-11.5 -33.5q0 -44 39 -44q19 0 31 14t12 33q0 46 -39 46z" />
    <glyph glyph-name="AE" unicode="&#xc6;" horiz-adv-x="760" 
d="M482 300h224q-9 -25 -19.5 -32t-34.5 -7h-174l-26 -219q28 -8 123 -8q103 0 151 5l1 -5q-10 -17 -37 -34q-22 -5 -105 -5q-128 0 -174 10l-12 20l30 236q-170 0 -217 -12q-149 -217 -178 -252q-6 -8 -17 -8q-14 0 -34 12l1 4l422 582q3 3 15 28q16 6 68 10h246
q0 -22 -14 -30q-14 -9 -56 -9h-148zM469 586h-15l-212 -296q49 10 192 10z" />
    <glyph glyph-name="Ccedilla" unicode="&#xc7;" horiz-adv-x="521" 
d="M227 -85l52 71q-113 7 -175 85t-62 197q0 63 22 126.5t64 119.5t113 91t159 35q89 0 129 -36q-5 -38 -30 -25q-45 21 -103 21q-130 0 -213.5 -94.5t-83.5 -236.5q0 -106 56.5 -174.5t161.5 -68.5q49 0 91.5 13t65.5 28l2 -2q0 -27 -16 -43q-52 -33 -136 -36l-29 -40
q59 -21 59 -70q0 -42 -37 -64.5t-83 -27.5q-7 1 -12 10t-4 15q-1 3 1 5t9 4q78 15 78 54q0 21 -23.5 30.5t-55.5 9.5v3z" />
    <glyph glyph-name="Egrave" unicode="&#xc8;" horiz-adv-x="413" 
d="M143 341h222q-6 -25 -18.5 -32t-47.5 -7h-163l-35 -260q26 -9 123 -9q109 0 150 6l1 -2q-2 -11 -12 -23.5t-24 -15.5q-23 -4 -105 -4q-121 0 -176 11l-12 16l67 463q7 51 16 128q18 10 43 13h222q0 -22 -14 -30q-14 -9 -63 -9h-140zM196 770h1q12 0 57.5 -26t72.5 -47
q11 -8 4 -18q-5 -7 -14 -14q-90 46 -152 65q-10 2 -5 10q4 10 15.5 20t20.5 10z" />
    <glyph glyph-name="Eacute" unicode="&#xc9;" horiz-adv-x="413" 
d="M143 341h222q-6 -25 -18.5 -32t-47.5 -7h-163l-35 -260q26 -9 123 -9q109 0 150 6l1 -2q-2 -11 -12 -23.5t-24 -15.5q-23 -4 -105 -4q-121 0 -176 11l-12 16l67 463q7 51 16 128q18 10 43 13h222q0 -22 -14 -30q-14 -9 -63 -9h-140zM360 769q8 -4 18.5 -14t14.5 -18
q4 -11 -11 -16q-89 -25 -155 -56q-8 5 -12 15q-5 11 7 18q26 18 74.5 43.5t63.5 27.5z" />
    <glyph glyph-name="Ecircumflex" unicode="&#xca;" horiz-adv-x="413" 
d="M143 341h222q-6 -25 -18.5 -32t-47.5 -7h-163l-35 -260q26 -9 123 -9q109 0 150 6l1 -2q-2 -11 -12 -23.5t-24 -15.5q-23 -4 -105 -4q-121 0 -176 11l-12 16l67 463q7 51 16 128q18 10 43 13h222q0 -22 -14 -30q-14 -9 -63 -9h-140zM187 665h-1q-12 0 -23 11
q56 48 101 93q6 5 13 10q9 2 15 2q32 -48 87 -100q-11 -16 -26 -16q-13 0 -17 6q-12 9 -58 59q-45 -42 -71 -58q-16 -7 -20 -7z" />
    <glyph glyph-name="Edieresis" unicode="&#xcb;" horiz-adv-x="413" 
d="M143 341h222q-6 -25 -18.5 -32t-47.5 -7h-163l-35 -260q26 -9 123 -9q109 0 150 6l1 -2q-2 -11 -12 -23.5t-24 -15.5q-23 -4 -105 -4q-121 0 -176 11l-12 16l67 463q7 51 16 128q18 10 43 13h222q0 -22 -14 -30q-14 -9 -63 -9h-140zM200 747h1q14 0 23.5 -11t9.5 -26
q0 -17 -11 -28.5t-27 -11.5q-15 0 -25 10t-10 28q0 15 11 27t28 12zM353 747h1q14 0 24 -10.5t10 -25.5q0 -19 -10.5 -30t-27.5 -11q-15 0 -25 10t-10 27q0 15 11 27.5t27 12.5z" />
    <glyph glyph-name="Igrave" unicode="&#xcc;" horiz-adv-x="208" 
d="M44 12l69 479q6 44 16 130q21 7 42 7q4 0 6 -1.5t2.5 -7.5t-0.5 -17t-4 -31l-64 -447q-13 -88 -16 -124q-17 -6 -40 -6q-14 0 -11 18zM81 770h1q12 0 57.5 -26t72.5 -47q11 -8 4 -18q-5 -7 -14 -14q-90 46 -152 65q-10 2 -5 10q4 10 15.5 20t20.5 10z" />
    <glyph glyph-name="Iacute" unicode="&#xcd;" horiz-adv-x="208" 
d="M44 12l69 479q6 44 16 130q21 7 42 7q4 0 6 -1.5t2.5 -7.5t-0.5 -17t-4 -31l-64 -447q-13 -88 -16 -124q-17 -6 -40 -6q-14 0 -11 18zM257 769q8 -4 18.5 -14t14.5 -18q4 -11 -11 -16q-89 -25 -155 -56q-8 5 -12 15q-5 11 7 18q26 18 74.5 43.5t63.5 27.5z" />
    <glyph glyph-name="Icircumflex" unicode="&#xce;" horiz-adv-x="208" 
d="M44 12l69 479q6 44 16 130q21 7 42 7q4 0 6 -1.5t2.5 -7.5t-0.5 -17t-4 -31l-64 -447q-13 -88 -16 -124q-17 -6 -40 -6q-14 0 -11 18zM72 665h-1q-12 0 -23 11q56 48 101 93q5 5 13 10q9 2 15 2q32 -48 87 -100q-11 -16 -26 -16q-12 0 -17 6q-12 9 -58 59
q-45 -42 -71 -58q-16 -7 -20 -7z" />
    <glyph glyph-name="Idieresis" unicode="&#xcf;" horiz-adv-x="208" 
d="M44 12l69 479q6 44 16 130q21 7 42 7q4 0 6 -1.5t2.5 -7.5t-0.5 -17t-4 -31l-64 -447q-13 -88 -16 -124q-17 -6 -40 -6q-14 0 -11 18zM88 742h1q14 0 23.5 -11t9.5 -26q0 -17 -11 -28.5t-27 -11.5q-15 0 -25 10t-10 28q0 15 11 27t28 12zM241 742h1q14 0 24 -10.5
t10 -25.5q0 -19 -10.5 -30t-27.5 -11q-15 0 -25 10t-10 27q0 15 11 27.5t27 12.5z" />
    <glyph glyph-name="Eth" unicode="&#xd0;" horiz-adv-x="614" 
d="M106 578l-1 1q2 19 14 35q57 16 141 16q156 0 238 -73t81 -225q-1 -107 -49.5 -185.5t-128 -117.5t-178.5 -39q-78 0 -166 26q23 140 44 286h-84q9 39 50 39h40q3 18 7.5 49.5t5.5 35.5l23 158q-7 -1 -18.5 -2.5t-18.5 -3.5zM278 302h-126l-37 -260q47 -15 108 -15
t114 18.5t95.5 54.5t67 95t24.5 135q0 263 -274 263q-29 0 -56 -3l-36 -249h174q-9 -39 -54 -39z" />
    <glyph glyph-name="Ntilde" unicode="&#xd1;" horiz-adv-x="618" 
d="M505 320l39 282q2 21 19 23q24 3 30 3q-63 -415 -88 -630q-11 -11 -25 -11q-6 0 -16 17l-226 381l-78 136l-30 -234l-36 -263q-3 -23 -18 -27q-15 -3 -34 -3l83 563q3 16 -4 27l-20 33v5q22 6 38 6q7 0 18 -15q11 -17 41.5 -68l82 -138.5l82.5 -138.5q93 -155 112 -192
q15 133 30 244zM327 770h1q31 0 60 -35q24 -29 32 -29q16 0 23 53q2 11 10 11q13 0 24 -16q-3 -40 -18 -64.5t-40 -24.5q-6 0 -11.5 2t-9 3.5t-9.5 7t-8.5 8l-10 10.5l-10.5 11q-20 23 -33 23q-16 0 -28 -49q-2 -11 -8 -11t-27 8q10 92 63 92z" />
    <glyph glyph-name="Ograve" unicode="&#xd2;" horiz-adv-x="618" 
d="M354 640h1q77 0 130.5 -39t77 -99t23.5 -135q0 -56 -11.5 -110t-36 -103.5t-60 -87t-88 -59.5t-114.5 -22q-108 0 -170 74t-62 200q0 95 35 180.5t107.5 143t167.5 57.5zM346 603h-1q-106 0 -175 -104.5t-69 -243.5q0 -101 47.5 -167t136.5 -66q80 0 137.5 53.5t82 129.5
t24.5 161q0 101 -43.5 169t-139.5 68zM290 776h1q12 0 57.5 -26t72.5 -47q11 -8 4 -18q-5 -7 -14 -14q-90 46 -152 65q-10 2 -5 10q4 10 15.5 20t20.5 10z" />
    <glyph glyph-name="Oacute" unicode="&#xd3;" horiz-adv-x="618" 
d="M354 640h1q77 0 130.5 -39t77 -99t23.5 -135q0 -56 -11.5 -110t-36 -103.5t-60 -87t-88 -59.5t-114.5 -22q-108 0 -170 74t-62 200q0 95 35 180.5t107.5 143t167.5 57.5zM346 603h-1q-106 0 -175 -104.5t-69 -243.5q0 -101 47.5 -167t136.5 -66q80 0 137.5 53.5t82 129.5
t24.5 161q0 101 -43.5 169t-139.5 68zM444 781q8 -4 18.5 -14t14.5 -18q4 -11 -11 -16q-89 -25 -155 -56q-8 5 -12 15q-5 11 7 18q26 18 74.5 43.5t63.5 27.5z" />
    <glyph glyph-name="Ocircumflex" unicode="&#xd4;" horiz-adv-x="618" 
d="M354 640h1q77 0 130.5 -39t77 -99t23.5 -135q0 -56 -11.5 -110t-36 -103.5t-60 -87t-88 -59.5t-114.5 -22q-108 0 -170 74t-62 200q0 95 35 180.5t107.5 143t167.5 57.5zM346 603h-1q-106 0 -175 -104.5t-69 -243.5q0 -101 47.5 -167t136.5 -66q80 0 137.5 53.5t82 129.5
t24.5 161q0 101 -43.5 169t-139.5 68zM274 680h-1q-12 0 -23 11q56 48 101 93q5 5 13 10q9 2 15 2q32 -48 87 -100q-11 -16 -26 -16q-12 0 -17 6q-12 9 -58 59q-45 -42 -71 -58q-16 -7 -20 -7z" />
    <glyph glyph-name="Otilde" unicode="&#xd5;" horiz-adv-x="618" 
d="M354 640h1q77 0 130.5 -39t77 -99t23.5 -135q0 -56 -11.5 -110t-36 -103.5t-60 -87t-88 -59.5t-114.5 -22q-108 0 -170 74t-62 200q0 95 35 180.5t107.5 143t167.5 57.5zM346 603h-1q-106 0 -175 -104.5t-69 -243.5q0 -101 47.5 -167t136.5 -66q80 0 137.5 53.5t82 129.5
t24.5 161q0 101 -43.5 169t-139.5 68zM321 785h1q31 0 60 -35q24 -29 32 -29q16 0 23 53q2 11 10 11q13 0 24 -16q-3 -40 -18 -64.5t-40 -24.5q-6 0 -11.5 2t-9 3.5t-9.5 7t-8.5 8l-10 10.5l-10.5 11q-20 23 -33 23q-16 0 -28 -49q-2 -11 -8 -11t-27 8q10 92 63 92z" />
    <glyph glyph-name="Odieresis" unicode="&#xd6;" horiz-adv-x="618" 
d="M354 640h1q77 0 130.5 -39t77 -99t23.5 -135q0 -56 -11.5 -110t-36 -103.5t-60 -87t-88 -59.5t-114.5 -22q-108 0 -170 74t-62 200q0 95 35 180.5t107.5 143t167.5 57.5zM346 603h-1q-106 0 -175 -104.5t-69 -243.5q0 -101 47.5 -167t136.5 -66q80 0 137.5 53.5t82 129.5
t24.5 161q0 101 -43.5 169t-139.5 68zM290 757h1q14 0 23.5 -11t9.5 -26q0 -17 -11 -28.5t-27 -11.5q-15 0 -25 10t-10 28q0 15 11 27t28 12zM443 757h1q14 0 24 -10.5t10 -25.5q0 -19 -10.5 -30t-27.5 -11q-15 0 -25 10t-10 27q0 15 11 27.5t27 12.5z" />
    <glyph glyph-name="multiply" unicode="&#xd7;" horiz-adv-x="565" 
d="M484 427l-177 -184l162 -170q10 -9 2 -23q-6 -11 -20 -21l-175 184l-173 -184q-8 5 -18 25q-4 11 6 24l157 164l-162 168q-8 8 0 25q7 12 17 17l175 -180l160 166q16 17 29 7q7 -5 17 -18z" />
    <glyph glyph-name="Oslash" unicode="&#xd8;" horiz-adv-x="618" 
d="M566 640l-48 -69q68 -72 68 -209q0 -71 -19.5 -137t-56.5 -120.5t-97 -87t-135 -32.5q-90 0 -148 52l-52 -71q-10 -13 -20 -5q-12 10 -17 22l59 83q-56 73 -56 200q0 96 37 181t109 139t163 54q83 0 133 -40l37 52q13 21 24 12q17 -15 19 -24zM132 109l328 456
q-43 38 -113 38q-105 0 -177 -100t-72 -231q0 -105 34 -163zM489 533l-332 -457q45 -54 123 -54q64 0 114 32t79 83.5t43.5 110t14.5 119.5q0 110 -42 166z" />
    <glyph glyph-name="Ugrave" unicode="&#xd9;" horiz-adv-x="620" 
d="M164 568l-33 -258q-37 -285 159 -285q44 0 74.5 10.5t60 42.5t50.5 98t34 169l33 250q4 28 17 31q26 2 33 2l-10 -81t-16 -121l-18 -126q-24 -173 -88.5 -244t-175.5 -71q-120 0 -173 78t-31 253l22 173q5 38 11.5 80.5t7.5 50.5q19 8 39 8q7 0 7.5 -11t-3.5 -49z
M294 770h1q12 0 57.5 -26t72.5 -47q11 -8 4 -18q-5 -7 -14 -14q-90 46 -152 65q-10 2 -5 10q4 10 15.5 20t20.5 10z" />
    <glyph glyph-name="Uacute" unicode="&#xda;" horiz-adv-x="620" 
d="M164 568l-33 -258q-37 -285 159 -285q44 0 74.5 10.5t60 42.5t50.5 98t34 169l33 250q4 28 17 31q26 2 33 2l-10 -81t-16 -121l-18 -126q-24 -173 -88.5 -244t-175.5 -71q-120 0 -173 78t-31 253l22 173q5 38 11.5 80.5t7.5 50.5q19 8 39 8q7 0 7.5 -11t-3.5 -49z
M438 769q8 -4 18.5 -14t14.5 -18q4 -11 -11 -16q-89 -25 -155 -56q-8 5 -12 15q-5 11 7 18q26 18 74.5 43.5t63.5 27.5z" />
    <glyph glyph-name="Ucircumflex" unicode="&#xdb;" horiz-adv-x="620" 
d="M164 568l-33 -258q-37 -285 159 -285q44 0 74.5 10.5t60 42.5t50.5 98t34 169l33 250q4 28 17 31q26 2 33 2l-10 -81t-16 -121l-18 -126q-24 -173 -88.5 -244t-175.5 -71q-120 0 -173 78t-31 253l22 173q5 38 11.5 80.5t7.5 50.5q19 8 39 8q7 0 7.5 -11t-3.5 -49z
M278 665h-1q-12 0 -23 11q56 48 101 93q5 5 13 10q9 2 15 2q32 -48 87 -100q-11 -16 -26 -16q-12 0 -17 6q-12 9 -58 59q-45 -42 -71 -58q-16 -7 -20 -7z" />
    <glyph glyph-name="Udieresis" unicode="&#xdc;" horiz-adv-x="620" 
d="M164 568l-33 -258q-37 -285 159 -285q44 0 74.5 10.5t60 42.5t50.5 98t34 169l33 250q4 28 17 31q26 2 33 2l-10 -81t-16 -121l-18 -126q-24 -173 -88.5 -244t-175.5 -71q-120 0 -173 78t-31 253l22 173q5 38 11.5 80.5t7.5 50.5q19 8 39 8q7 0 7.5 -11t-3.5 -49z
M292 742h1q14 0 23.5 -11t9.5 -26q0 -17 -11 -28.5t-27 -11.5q-15 0 -25 10t-10 28q0 15 11 27t28 12zM445 742h1q14 0 24 -10.5t10 -25.5q0 -19 -10.5 -30t-27.5 -11q-15 0 -25 10t-10 27q0 15 11 27.5t27 12.5z" />
    <glyph glyph-name="Yacute" unicode="&#xdd;" horiz-adv-x="526" 
d="M62 617l1 3q24 8 41 8q11 0 33 -44l59 -113l72 -140q24 26 127 158t109 139q15 -1 31 -7t-4 -29l-126 -153.5l-115 -143.5q-6 -7 -10 -34l-16 -137q-13 -109 -14 -124q-20 -6 -43 -6q-7 0 -8.5 3.5t-0.5 14.5l29 231q1 11 2 26.5t1 19.5q0 16 -12 38q-101 200 -156 290z
M396 769q8 -4 18.5 -14t14.5 -18q4 -11 -11 -16q-89 -25 -155 -56q-8 5 -12 15q-5 11 7 18q26 18 74.5 43.5t63.5 27.5z" />
    <glyph glyph-name="Thorn" unicode="&#xde;" horiz-adv-x="447" 
d="M45 13l66 478q1 6 4 26.5t6 47t7 55.5q21 8 39 8q9 0 10 -7t-2 -32l-13 -91q56 4 63 4q96 0 144 -48.5t48 -127.5q0 -50 -17 -88.5t-41 -59.5t-54.5 -34.5t-53 -17.5t-40.5 -4q-40 0 -52 9q-14 13 -12 32q19 -6 50 -6q20 0 43.5 6t53 21.5t49 52t19.5 88.5
q0 67 -38 103.5t-111 35.5q-29 0 -56 -5l-44 -335q-16 -122 -16 -124q-36 -6 -44 -6q-10 0 -8 19z" />
    <glyph glyph-name="germandbls" unicode="&#xdf;" horiz-adv-x="490" 
d="M95 387h-73q0 13 7.5 24.5t19.5 12.5h51q7 39 14.5 69t24.5 68.5t39 63.5t58 43t81 18q63 0 97.5 -38t34.5 -94q0 -33 -9 -51q-136 -73 -136 -158q0 -16 10 -33t21.5 -29l37.5 -38q58 -59 58 -112q0 -71 -45 -108t-110 -37q-39 0 -74 16t-40 29q-7 14 2 34q3 5 11 1
q50 -38 107 -38q44 0 71 24t27 68q0 45 -58 102q-67 63 -67 113t41.5 97t100.5 84q4 18 4 41q0 38 -24.5 64t-63.5 26q-72 0 -113.5 -64t-58.5 -205q-19 -159 -44 -337q-8 -56 -18 -98t-28.5 -82t-48 -61.5t-69.5 -21.5q-55 0 -69 24q-5 8 -4 18t5 15q25 -18 66 -18
q56 0 81.5 63t48.5 237z" />
    <glyph glyph-name="agrave" unicode="&#xe0;" horiz-adv-x="466" 
d="M24 113v1q0 66 27 139.5t80 124.5q73 68 178 68q37 0 111 -18q-25 -108 -46 -289q-11 -79 -11 -140q-24 -11 -43 -11q-3 0 -3 17.5t2.5 49.5t7.5 70q0 3 4 27.5t5 35.5q-51 -100 -113.5 -150t-119.5 -50q-34 0 -56.5 31t-22.5 94zM123 32h1q64 0 138 97t96 223q8 32 8 45
q-29 11 -64 11q-98 0 -154 -72q-70 -90 -70 -224q0 -36 11.5 -58t33.5 -22zM249 676h1q8 -1 38.5 -51.5t45.5 -83.5q6 -16 -1 -22q-4 -3 -7.5 -6t-5.5 -5t-3 -2q-46 74 -99 135q-8 10 0 17q20 18 31 18z" />
    <glyph glyph-name="aacute" unicode="&#xe1;" horiz-adv-x="466" 
d="M24 113v1q0 66 27 139.5t80 124.5q73 68 178 68q37 0 111 -18q-25 -108 -46 -289q-11 -79 -11 -140q-24 -11 -43 -11q-3 0 -3 17.5t2.5 49.5t7.5 70q0 3 4 27.5t5 35.5q-51 -100 -113.5 -150t-119.5 -50q-34 0 -56.5 31t-22.5 94zM123 32h1q64 0 138 97t96 223q8 32 8 45
q-29 11 -64 11q-98 0 -154 -72q-70 -90 -70 -224q0 -36 11.5 -58t33.5 -22zM348 674h1q18 0 32 -18q7 -8 -4 -19q-33 -37 -99 -134q-7 3 -18 16q-5 5 5 26q19 38 47.5 83.5t35.5 45.5z" />
    <glyph glyph-name="acircumflex" unicode="&#xe2;" horiz-adv-x="466" 
d="M24 113v1q0 66 27 139.5t80 124.5q73 68 178 68q37 0 111 -18q-25 -108 -46 -289q-11 -79 -11 -140q-24 -11 -43 -11q-3 0 -3 17.5t2.5 49.5t7.5 70q0 3 4 27.5t5 35.5q-51 -100 -113.5 -150t-119.5 -50q-34 0 -56.5 31t-22.5 94zM123 32h1q64 0 138 97t96 223q8 32 8 45
q-29 11 -64 11q-98 0 -154 -72q-70 -90 -70 -224q0 -36 11.5 -58t33.5 -22zM213 503h-1q-6 0 -15 4.5t-11 9.5l39.5 62t44.5 73q8 13 18 16q16 4 19 4q10 -26 68 -156q-16 -13 -27 -13q-7 0 -12 10q-4 7 -47 104l-68 -110q-4 -4 -8 -4z" />
    <glyph glyph-name="atilde" unicode="&#xe3;" horiz-adv-x="466" 
d="M24 113v1q0 66 27 139.5t80 124.5q73 68 178 68q37 0 111 -18q-25 -108 -46 -289q-11 -79 -11 -140q-24 -11 -43 -11q-3 0 -3 17.5t2.5 49.5t7.5 70q0 3 4 27.5t5 35.5q-51 -100 -113.5 -150t-119.5 -50q-34 0 -56.5 31t-22.5 94zM123 32h1q64 0 138 97t96 223q8 32 8 45
q-29 11 -64 11q-98 0 -154 -72q-70 -90 -70 -224q0 -36 11.5 -58t33.5 -22zM249 625h1q27 0 57 -34q22 -27 30 -27q16 0 21 50q3 11 11 11q13 0 24 -15q-2 -40 -16.5 -64t-39.5 -24q-6 0 -11 1.5t-9 3.5t-9.5 7t-8.5 7.5t-10 10.5t-10 11q-19 22 -30 22q-17 0 -27 -47
q-2 -10 -8 -10t-27 8q3 35 17.5 62t44.5 27z" />
    <glyph glyph-name="adieresis" unicode="&#xe4;" horiz-adv-x="466" 
d="M24 113v1q0 66 27 139.5t80 124.5q73 68 178 68q37 0 111 -18q-25 -108 -46 -289q-11 -79 -11 -140q-24 -11 -43 -11q-3 0 -3 17.5t2.5 49.5t7.5 70q0 3 4 27.5t5 35.5q-51 -100 -113.5 -150t-119.5 -50q-34 0 -56.5 31t-22.5 94zM123 32h1q64 0 138 97t96 223q8 32 8 45
q-29 11 -64 11q-98 0 -154 -72q-70 -90 -70 -224q0 -36 11.5 -58t33.5 -22zM213 611h1q14 0 23.5 -10.5t9.5 -25.5q0 -17 -11 -28.5t-28 -11.5q-15 0 -24.5 10t-9.5 26q0 15 10.5 27.5t28.5 12.5zM363 611h1q15 0 24 -10.5t9 -25.5q0 -17 -11 -28.5t-27 -11.5q-15 0 -25 9.5
t-10 25.5q0 15 11 28t28 13z" />
    <glyph glyph-name="aring" unicode="&#xe5;" horiz-adv-x="466" 
d="M24 113v1q0 66 27 139.5t80 124.5q73 68 178 68q37 0 111 -18q-25 -108 -46 -289q-11 -79 -11 -140q-24 -11 -43 -11q-3 0 -3 17.5t2.5 49.5t7.5 70q0 3 4 27.5t5 35.5q-51 -100 -113.5 -150t-119.5 -50q-34 0 -56.5 31t-22.5 94zM123 32h1q64 0 138 97t96 223q8 32 8 45
q-29 11 -64 11q-98 0 -154 -72q-70 -90 -70 -224q0 -36 11.5 -58t33.5 -22zM301 655h1q34 0 54 -21t20 -55q0 -37 -24.5 -60t-61.5 -23q-33 0 -53 20t-20 55t23.5 59.5t60.5 24.5zM299 621h-1q-18 0 -29.5 -15t-11.5 -32q0 -43 37 -43q19 0 30.5 13.5t11.5 31.5q0 45 -37 45
z" />
    <glyph glyph-name="ae" unicode="&#xe6;" horiz-adv-x="622" 
d="M270 105h-2q-93 -116 -177 -116q-31 0 -51.5 23t-20.5 71q0 62 34 131.5t94 119.5q105 84 273 94q39 18 84 18q41 0 64.5 -24t23.5 -61q-1 -44 -30.5 -77.5t-74 -51.5t-87.5 -27t-80 -10q-3 -34 -1 -70.5t25 -65t62 -28.5q83 0 156 80q9 -4 9 -22q0 -16 -14 -30
q-68 -71 -164 -71q-52 0 -83.5 31.5t-39.5 85.5zM490 409h-1q-49 0 -96 -50t-67 -126q216 14 216 127q0 22 -14.5 35.5t-37.5 13.5zM109 32h1q31 0 74 32.5t82 97.5q6 80 42 145.5t69 81.5q-58 -6 -116 -32t-99 -67q-39 -39 -64 -94.5t-25 -106.5q0 -57 36 -57z" />
    <glyph glyph-name="ccedilla" unicode="&#xe7;" horiz-adv-x="370" 
d="M93 -85l55 74q-58 1 -90 41.5t-32 111.5q0 117 68.5 210.5t176.5 93.5q22 0 43.5 -7.5t27.5 -17.5q-1 -13 -9 -20.5t-14 -4.5q-29 11 -55 11q-79 0 -132.5 -74.5t-53.5 -183.5q0 -56 22.5 -87t65.5 -31q73 0 140 70q10 -6 10 -20q0 -12 -12 -24q-45 -48 -109 -63l-34 -47
q59 -21 59 -69q0 -41 -37 -64.5t-82 -28.5q-7 1 -12.5 10t-4.5 15q0 5 10 8q78 16 78 54q0 39 -79 41v2z" />
    <glyph glyph-name="egrave" unicode="&#xe8;" horiz-adv-x="385" 
d="M259 446h1q40 0 65 -21.5t25 -58.5q0 -41 -25.5 -73t-67 -51t-86 -29t-90.5 -12q-3 -16 -3 -48q0 -56 22.5 -89.5t67.5 -33.5q83 0 149 79q10 -3 10 -20q0 -16 -14 -32q-59 -69 -159 -69q-126 0 -126 159q0 111 63 205t168 94zM249 410h-1q-60 0 -102.5 -51t-58.5 -122
q111 7 163.5 41.5t52.5 82.5q0 23 -15 36t-39 13zM202 676h1q8 -1 38.5 -51.5t45.5 -83.5q6 -16 -1 -22q-4 -3 -7.5 -6t-5.5 -5t-3 -2q-46 74 -99 135q-8 10 0 17q20 18 31 18z" />
    <glyph glyph-name="eacute" unicode="&#xe9;" horiz-adv-x="385" 
d="M259 446h1q40 0 65 -21.5t25 -58.5q0 -41 -25.5 -73t-67 -51t-86 -29t-90.5 -12q-3 -16 -3 -48q0 -56 22.5 -89.5t67.5 -33.5q83 0 149 79q10 -3 10 -20q0 -16 -14 -32q-59 -69 -159 -69q-126 0 -126 159q0 111 63 205t168 94zM249 410h-1q-60 0 -102.5 -51t-58.5 -122
q111 7 163.5 41.5t52.5 82.5q0 23 -15 36t-39 13zM301 674h1q18 0 32 -18q8 -8 -4 -19q-33 -37 -99 -134q-7 3 -18 16q-5 5 5 26q19 38 47.5 83.5t35.5 45.5z" />
    <glyph glyph-name="ecircumflex" unicode="&#xea;" horiz-adv-x="385" 
d="M259 446h1q40 0 65 -21.5t25 -58.5q0 -41 -25.5 -73t-67 -51t-86 -29t-90.5 -12q-3 -16 -3 -48q0 -56 22.5 -89.5t67.5 -33.5q83 0 149 79q10 -3 10 -20q0 -16 -14 -32q-59 -69 -159 -69q-126 0 -126 159q0 111 63 205t168 94zM249 410h-1q-60 0 -102.5 -51t-58.5 -122
q111 7 163.5 41.5t52.5 82.5q0 23 -15 36t-39 13zM169 503h-1q-6 0 -15 4.5t-11 9.5l39.5 62t44.5 73q8 13 18 16q16 4 19 4q10 -26 68 -156q-16 -13 -27 -13q-7 0 -12 10q-4 7 -47 104l-68 -110q-4 -4 -8 -4z" />
    <glyph glyph-name="edieresis" unicode="&#xeb;" horiz-adv-x="385" 
d="M259 446h1q40 0 65 -21.5t25 -58.5q0 -41 -25.5 -73t-67 -51t-86 -29t-90.5 -12q-3 -16 -3 -48q0 -56 22.5 -89.5t67.5 -33.5q83 0 149 79q10 -3 10 -20q0 -16 -14 -32q-59 -69 -159 -69q-126 0 -126 159q0 111 63 205t168 94zM249 410h-1q-60 0 -102.5 -51t-58.5 -122
q111 7 163.5 41.5t52.5 82.5q0 23 -15 36t-39 13zM172 611h1q14 0 23.5 -10.5t9.5 -25.5q0 -17 -11 -28.5t-28 -11.5q-15 0 -24.5 10t-9.5 26q0 15 10.5 27.5t28.5 12.5zM322 611h1q15 0 24 -10.5t9 -25.5q0 -17 -11 -28.5t-27 -11.5q-15 0 -25 9.5t-10 25.5q0 15 11 28
t28 13z" />
    <glyph glyph-name="igrave" unicode="&#xec;" horiz-adv-x="197" 
d="M136 446h1q9 0 6 -23l-53 -392q-2 -22 -12 -28q-21 -9 -41 -11q15 98 36 252q21 160 22 190q26 12 41 12zM77 676h1q8 -1 38.5 -51.5t45.5 -83.5q6 -16 -1 -22q-4 -3 -7.5 -6t-5.5 -5t-3 -2q-46 74 -99 135q-8 10 0 17q20 18 31 18z" />
    <glyph glyph-name="iacute" unicode="&#xed;" horiz-adv-x="197" 
d="M136 446h1q9 0 6 -23l-53 -392q-2 -22 -12 -28q-21 -9 -41 -11q15 98 36 252q21 160 22 190q26 12 41 12zM191 674h1q18 0 32 -18q8 -8 -4 -19q-33 -37 -99 -134q-7 3 -18 16q-5 5 5 26q19 38 47.5 83.5t35.5 45.5z" />
    <glyph glyph-name="icircumflex" unicode="&#xee;" horiz-adv-x="197" 
d="M136 446h1q9 0 6 -23l-53 -392q-2 -22 -12 -28q-21 -9 -41 -11q15 98 36 252q21 160 22 190q26 12 41 12zM62 503h-1q-6 0 -15 4.5t-11 9.5l39.5 62t44.5 73q8 13 18 16q16 4 19 4l68 -156q-16 -13 -27 -13q-7 0 -12 10q-4 7 -47 104l-68 -110q-4 -4 -8 -4z" />
    <glyph glyph-name="idieresis" unicode="&#xef;" horiz-adv-x="197" 
d="M136 446h1q9 0 6 -23l-53 -392q-2 -22 -12 -28q-21 -9 -41 -11q15 98 36 252q21 160 22 190q26 12 41 12zM56 611h1q14 0 23.5 -10.5t9.5 -25.5q0 -17 -11 -28.5t-28 -11.5q-15 0 -24.5 10t-9.5 26q0 15 10.5 27.5t28.5 12.5zM206 611h1q15 0 24 -10.5t9 -25.5
q0 -17 -11 -28.5t-27 -11.5q-15 0 -25 9.5t-10 25.5q0 15 11 28t28 13z" />
    <glyph glyph-name="eth" unicode="&#xf0;" horiz-adv-x="428" 
d="M390 618l-70 -44q74 -102 74 -248q0 -43 -7 -86.5t-23.5 -90t-41.5 -81.5t-65.5 -57.5t-91.5 -22.5q-71 0 -103.5 49t-32.5 121q1 68 26.5 132.5t79 110t122.5 45.5q47 0 79 -25q-2 22 -19 65.5t-35 64.5l-102 -60q-9 -6 -14.5 -4.5t-4.5 10.5q0 15 5 25l96 57
q-16 20 -56 43t-71 31l-1 2q6 8 10 14q9 11 23 11q16 -1 60 -25t73 -54l79 50q16 10 16 -3q2 -16 -5 -30zM177 25h1q17 0 37 7.5t43 29t41.5 53.5t31 86t12.5 122q0 6 -0.5 19.5t-0.5 20.5q-9 20 -33.5 32t-51.5 12q-77 0 -125.5 -75.5t-48.5 -173.5q0 -61 23.5 -97
t70.5 -36z" />
    <glyph glyph-name="ntilde" unicode="&#xf1;" horiz-adv-x="486" 
d="M120 248h3q46 88 109 143t118 55q18 0 30.5 -5t25.5 -21.5t14 -48.5t-5 -86q-3 -17 -10.5 -63.5l-13.5 -83.5q-17 -118 -17 -139q-22 -11 -47 -11q-2 3 -2 15t4 47t12 82q1 8 11.5 68t15.5 100q9 43 1 72.5t-38 29.5q-27 0 -61.5 -24t-70 -67t-66 -115t-44.5 -158
q-4 -19 -7.5 -26t-11.5 -11q-14 -8 -37 -9q20 109 41 256q21 148 18 186q16 12 44 12q2 0 2.5 -12.5t-2 -47.5t-9.5 -87q-1 -13 -7 -51zM231 625h1q27 0 57 -34q22 -27 30 -27q16 0 21 50q3 11 11 11q13 0 24 -15q-2 -40 -16.5 -64t-39.5 -24q-6 0 -11 1.5t-9 3.5t-9.5 7
t-8.5 7.5t-10 10.5t-10 11q-19 22 -30 22q-17 0 -27 -47q-2 -10 -8 -10t-27 8q3 35 17.5 62t44.5 27z" />
    <glyph glyph-name="ograve" unicode="&#xf2;" horiz-adv-x="446" 
d="M258 446h1q72 0 106 -46t34 -121q0 -121 -66 -206t-161 -85q-144 0 -144 167q0 66 25.5 131t80 112.5t124.5 47.5zM252 409h-1q-67 0 -117.5 -76.5t-50.5 -181.5q0 -67 27 -96.5t68 -29.5q63 0 114.5 71t51.5 190q0 51 -21.5 87t-70.5 36zM224 676h1q8 -1 38.5 -51.5
t45.5 -83.5q6 -16 -1 -22q-4 -3 -7.5 -6t-5.5 -5t-3 -2q-46 74 -99 135q-8 10 0 17q20 18 31 18z" />
    <glyph glyph-name="oacute" unicode="&#xf3;" horiz-adv-x="446" 
d="M258 446h1q72 0 106 -46t34 -121q0 -121 -66 -206t-161 -85q-144 0 -144 167q0 66 25.5 131t80 112.5t124.5 47.5zM252 409h-1q-67 0 -117.5 -76.5t-50.5 -181.5q0 -67 27 -96.5t68 -29.5q63 0 114.5 71t51.5 190q0 51 -21.5 87t-70.5 36zM316 674h1q18 0 32 -18
q7 -8 -4 -19q-33 -37 -99 -134q-7 3 -18 16q-5 5 5 26q19 38 47.5 83.5t35.5 45.5z" />
    <glyph glyph-name="ocircumflex" unicode="&#xf4;" horiz-adv-x="446" 
d="M258 446h1q72 0 106 -46t34 -121q0 -121 -66 -206t-161 -85q-144 0 -144 167q0 66 25.5 131t80 112.5t124.5 47.5zM252 409h-1q-67 0 -117.5 -76.5t-50.5 -181.5q0 -67 27 -96.5t68 -29.5q63 0 114.5 71t51.5 190q0 51 -21.5 87t-70.5 36zM191 503h-1q-6 0 -15 4.5
t-11 9.5l39.5 62t44.5 73q8 13 18 16q16 4 19 4l68 -156q-16 -13 -27 -13q-7 0 -12 10q-4 7 -47 104l-68 -110q-4 -4 -8 -4z" />
    <glyph glyph-name="otilde" unicode="&#xf5;" horiz-adv-x="446" 
d="M258 446h1q72 0 106 -46t34 -121q0 -121 -66 -206t-161 -85q-144 0 -144 167q0 66 25.5 131t80 112.5t124.5 47.5zM252 409h-1q-67 0 -117.5 -76.5t-50.5 -181.5q0 -67 27 -96.5t68 -29.5q63 0 114.5 71t51.5 190q0 51 -21.5 87t-70.5 36zM221 625h1q27 0 57 -34
q22 -27 30 -27q16 0 21 50q3 11 11 11q13 0 24 -15q-2 -40 -16.5 -64t-39.5 -24q-6 0 -11 1.5t-9 3.5t-9.5 7t-8.5 7.5t-10 10.5t-10 11q-19 22 -30 22q-17 0 -27 -47q-2 -10 -8 -10t-27 8q3 35 17.5 62t44.5 27z" />
    <glyph glyph-name="odieresis" unicode="&#xf6;" horiz-adv-x="446" 
d="M258 446h1q72 0 106 -46t34 -121q0 -121 -66 -206t-161 -85q-144 0 -144 167q0 66 25.5 131t80 112.5t124.5 47.5zM252 409h-1q-67 0 -117.5 -76.5t-50.5 -181.5q0 -67 27 -96.5t68 -29.5q63 0 114.5 71t51.5 190q0 51 -21.5 87t-70.5 36zM194 611h1q14 0 23.5 -10.5
t9.5 -25.5q0 -17 -11 -28.5t-28 -11.5q-15 0 -24.5 10t-9.5 26q0 15 10.5 27.5t28.5 12.5zM344 611h1q15 0 24 -10.5t9 -25.5q0 -17 -11 -28.5t-27 -11.5q-15 0 -25 9.5t-10 25.5q0 15 11 28t28 13z" />
    <glyph glyph-name="divide" unicode="&#xf7;" horiz-adv-x="565" 
d="M278 350h-1q-13 0 -24.5 12t-11.5 27q0 16 11.5 28t26.5 12q17 0 28.5 -11.5t11.5 -28.5q0 -16 -12 -27.5t-29 -11.5zM468 225h-408q2 40 29 40h412q-1 -22 -8 -31t-25 -9zM279 140h1q15 0 26 -12t11 -27q0 -16 -11.5 -28t-26.5 -12q-16 0 -27 12t-11 28t11 27.5t27 11.5
z" />
    <glyph glyph-name="oslash" unicode="&#xf8;" horiz-adv-x="439" 
d="M393 446l-34 -51q35 -45 35 -127q1 -118 -62 -199t-160 -81q-53 0 -88 27l-33 -46q-13 -15 -21 -8q-8 6 -12 24l42 58q-32 43 -32 125q0 65 27.5 128t81.5 106.5t120 43.5q47 0 75 -23l23 34q16 25 25 16q13 -13 13 -27zM93 89l214 298q-18 22 -55 22q-45 0 -84 -32.5
t-60 -80.5t-28 -104t13 -103zM328 352l-215 -299q19 -28 65 -28q47 0 86 34t57.5 84t23 106.5t-16.5 102.5z" />
    <glyph glyph-name="ugrave" unicode="&#xf9;" horiz-adv-x="478" 
d="M342 156l-2 1q-88 -169 -210 -169q-51 0 -67.5 45.5t-4.5 117.5q10 64 24 139q12 75 19 143q24 13 44 13q8 0 4 -32q-31 -186 -45 -282q-8 -53 5.5 -77t39.5 -24q24 0 53.5 17t63.5 54t64 110.5t47 171.5q7 46 20 53q19 9 38 9q-33 -153 -50 -307q-12 -89 -9 -140
q-24 -11 -42 -11q-3 0 -3.5 19t2.5 59t9 90zM228 676h1q8 -1 38.5 -51.5t45.5 -83.5q6 -16 -1 -22q-4 -3 -7.5 -6t-5.5 -5t-3 -2q-46 74 -99 135q-8 10 0 17q20 18 31 18z" />
    <glyph glyph-name="uacute" unicode="&#xfa;" horiz-adv-x="478" 
d="M342 156l-2 1q-88 -169 -210 -169q-51 0 -67.5 45.5t-4.5 117.5q10 64 24 139q12 75 19 143q24 13 44 13q8 0 4 -32q-31 -186 -45 -282q-8 -53 5.5 -77t39.5 -24q24 0 53.5 17t63.5 54t64 110.5t47 171.5q7 46 20 53q19 9 38 9q-33 -153 -50 -307q-12 -89 -9 -140
q-24 -11 -42 -11q-3 0 -3.5 19t2.5 59t9 90zM339 674h1q18 0 32 -18q8 -8 -4 -19q-33 -37 -99 -134q-7 3 -18 16q-5 5 5 26q19 38 47.5 83.5t35.5 45.5z" />
    <glyph glyph-name="ucircumflex" unicode="&#xfb;" horiz-adv-x="478" 
d="M342 156l-2 1q-88 -169 -210 -169q-51 0 -67.5 45.5t-4.5 117.5q10 64 24 139q12 75 19 143q24 13 44 13q8 0 4 -32q-31 -186 -45 -282q-8 -53 5.5 -77t39.5 -24q24 0 53.5 17t63.5 54t64 110.5t47 171.5q7 46 20 53q19 9 38 9q-33 -153 -50 -307q-12 -89 -9 -140
q-24 -11 -42 -11q-3 0 -3.5 19t2.5 59t9 90zM209 503h-1q-6 0 -15 4.5t-11 9.5l39.5 62t44.5 73q8 13 18 16q16 4 19 4l68 -156q-16 -13 -27 -13q-7 0 -12 10q-4 7 -47 104l-68 -110q-4 -4 -8 -4z" />
    <glyph glyph-name="udieresis" unicode="&#xfc;" horiz-adv-x="478" 
d="M342 156l-2 1q-88 -169 -210 -169q-51 0 -67.5 45.5t-4.5 117.5q10 64 24 139q12 75 19 143q24 13 44 13q8 0 4 -32q-31 -186 -45 -282q-8 -53 5.5 -77t39.5 -24q24 0 53.5 17t63.5 54t64 110.5t47 171.5q7 46 20 53q19 9 38 9q-33 -153 -50 -307q-12 -89 -9 -140
q-24 -11 -42 -11q-3 0 -3.5 19t2.5 59t9 90zM211 611h1q14 0 23.5 -10.5t9.5 -25.5q0 -17 -11 -28.5t-28 -11.5q-15 0 -24.5 10t-9.5 26q0 15 10.5 27.5t28.5 12.5zM361 611h1q15 0 24 -10.5t9 -25.5q0 -17 -11 -28.5t-27 -11.5q-15 0 -25 9.5t-10 25.5q0 15 11 28t28 13z
" />
    <glyph glyph-name="yacute" unicode="&#xfd;" horiz-adv-x="399" 
d="M-7 -225q-14 0 -27 9.5t-11 15.5q82 73 168 191q-11 24 -22 81q-38 202 -52 361q20 13 38 13q9 0 11 -18q16 -149 45 -322q9 -54 18 -69q84 118 128 225.5t47 176.5q14 7 33 7q8 0 8 -22q0 -55 -41 -158.5t-116 -217.5q-53 -80 -123 -162.5t-104 -110.5zM288 674h1
q18 0 32 -18q7 -8 -4 -19q-33 -37 -99 -134q-7 3 -18 16q-5 5 5 26q19 38 47.5 83.5t35.5 45.5z" />
    <glyph glyph-name="thorn" unicode="&#xfe;" horiz-adv-x="480" 
d="M119 266h2q106 179 222 179q44 0 69.5 -37t25.5 -102q0 -132 -71.5 -225t-175.5 -93q-71 0 -107 42q-4 -28 -15.5 -98.5t-14.5 -93.5q-6 -36 -14 -46q-12 -10 -43 -12q49 269 113 737q17 125 18 149q25 14 42 14q9 0 4 -40q-4 -24 -26 -176zM325 400h-1q-59 0 -133 -86
t-95 -217q-1 -7 -2.5 -13.5t-1.5 -10.5q40 -47 102 -47q84 0 137 78.5t53 203.5q0 92 -59 92z" />
    <glyph glyph-name="ydieresis" unicode="&#xff;" horiz-adv-x="399" 
d="M-7 -225q-14 0 -27 9.5t-11 15.5q82 73 168 191q-11 24 -22 81q-38 202 -52 361q20 13 38 13q9 0 11 -18q16 -149 45 -322q9 -54 18 -69q84 118 128 225.5t47 176.5q14 7 33 7q8 0 8 -22q0 -55 -41 -158.5t-116 -217.5q-53 -80 -123 -162.5t-104 -110.5zM153 611h1
q14 0 23.5 -10.5t9.5 -25.5q0 -17 -11 -28.5t-28 -11.5q-15 0 -24.5 10t-9.5 26q0 15 10.5 27.5t28.5 12.5zM303 611h1q15 0 24 -10.5t9 -25.5q0 -17 -11 -28.5t-27 -11.5q-15 0 -25 9.5t-10 25.5q0 15 11 28t28 13z" />
    <glyph glyph-name="Amacron" unicode="&#x100;" horiz-adv-x="585" 
d="M409 228h-254l-120 -223q-6 -11 -16 -11q-11 0 -33 10l-1 2q280 506 320 586l-7 21q10 15 35 15q9 0 13 -13l126 -416q46 -154 63 -194v-2q-29 -9 -42 -9q-6 0 -10 5t-9 21zM176 267h224l-33 113l-29 100.5l-18 61.5zM415 670h-168q-11 0 -13 11q0 16 13 29h172
q11 0 11 -6q0 -5 -5 -17t-10 -17z" />
    <glyph glyph-name="amacron" unicode="&#x101;" horiz-adv-x="466" 
d="M24 113v1q0 66 27 139.5t80 124.5q73 68 178 68q37 0 111 -18q-25 -108 -46 -289q-11 -79 -11 -140q-24 -11 -43 -11q-3 0 -3 17.5t2.5 49.5t7.5 70q0 3 4 27.5t5 35.5q-51 -100 -113.5 -150t-119.5 -50q-34 0 -56.5 31t-22.5 94zM123 32h1q64 0 138 97t96 223q8 32 8 45
q-29 11 -64 11q-98 0 -154 -72q-70 -90 -70 -224q0 -36 11.5 -58t33.5 -22zM372 544h-169q-11 0 -11 10q0 21 13 31h173q9 0 9 -6q0 -17 -15 -35z" />
    <glyph glyph-name="Abreve" unicode="&#x102;" horiz-adv-x="585" 
d="M409 228h-254l-120 -223q-6 -11 -16 -11q-11 0 -33 10l-1 2q280 506 320 586l-7 21q10 15 35 15q9 0 13 -13l126 -416q46 -154 63 -194v-2q-29 -9 -42 -9q-6 0 -10 5t-9 21zM176 267h224l-33 113l-29 100.5l-18 61.5zM269 779h1q8 0 8 -13q6 -31 18.5 -43t34.5 -12
q24 0 40.5 11.5t33.5 44.5q8 12 15 12q8 0 17 -5t7 -12q-12 -47 -44.5 -72t-75.5 -25t-65.5 29.5t-17.5 64.5q3 20 28 20z" />
    <glyph glyph-name="abreve" unicode="&#x103;" horiz-adv-x="466" 
d="M24 113v1q0 66 27 139.5t80 124.5q73 68 178 68q37 0 111 -18q-25 -108 -46 -289q-11 -79 -11 -140q-24 -11 -43 -11q-3 0 -3 17.5t2.5 49.5t7.5 70q0 3 4 27.5t5 35.5q-51 -100 -113.5 -150t-119.5 -50q-34 0 -56.5 31t-22.5 94zM123 32h1q64 0 138 97t96 223q8 32 8 45
q-29 11 -64 11q-98 0 -154 -72q-70 -90 -70 -224q0 -36 11.5 -58t33.5 -22zM231 641h1q6 0 6 -8q0 -75 41 -75q24 0 41 16t30 60q4 7 10 7q8 0 16.5 -5t7.5 -12q-20 -108 -109 -108q-36 0 -57 28.5t-17 74.5q3 22 30 22z" />
    <glyph glyph-name="Aogonek" unicode="&#x104;" horiz-adv-x="585" 
d="M535 8v-5q-36 -20 -64 -58.5t-28 -80.5q0 -20 11 -31t28 -11q37 0 69 23l4 -3q2 -27 -8 -39q-3 -4 -11.5 -11t-28 -14t-40.5 -7q-37 0 -58 22.5t-21 56.5q0 82 99 151q-8 4 -13 19l-64 208h-254l-120 -223q-6 -11 -17 -11q-10 0 -32 10l-1 3q278 499 319 585l-6 21
q8 15 35 15q9 0 13 -13l125 -416q52 -166 63 -191zM176 267h225q-75 257 -81 275z" />
    <glyph glyph-name="aogonek" unicode="&#x105;" horiz-adv-x="465" 
d="M319 0l-3 2q2 74 19 186q-54 -105 -115 -152.5t-117 -47.5q-33 0 -56 29.5t-23 92.5q0 71 27.5 144.5t80.5 123.5q73 68 178 68q37 0 109 -18q-26 -125 -46 -289q-11 -99 -11 -140q-39 -27 -70 -65.5t-31 -76.5q0 -19 11 -30t29 -11q38 0 72 23l3 -3q2 -26 -8 -39
q-7 -10 -29 -22t-53 -12q-38 0 -59.5 23t-21.5 56q0 82 114 158zM122 32h1q67 0 141.5 100.5t96.5 235.5q3 11 5 29q-27 11 -63 11q-99 0 -155 -72q-70 -90 -70 -226q0 -33 11.5 -55.5t32.5 -22.5z" />
    <glyph glyph-name="Cacute" unicode="&#x106;" horiz-adv-x="521" 
d="M474 66l2 -1q-2 -29 -16 -44q-59 -36 -158 -36q-125 0 -192.5 78.5t-67.5 204.5q0 50 13 100.5t42 99.5t70 87t101.5 61.5t131.5 23.5q92 0 130 -35q-5 -38 -31 -26q-47 21 -103 21q-130 0 -213.5 -94.5t-83.5 -236.5q0 -106 56 -174.5t161 -68.5q96 0 158 40zM471 782
q8 -4 18.5 -14t14.5 -18q4 -11 -11 -16q-89 -25 -155 -56q-8 5 -12 15q-5 11 7 18q26 18 74.5 43.5t63.5 27.5z" />
    <glyph glyph-name="cacute" unicode="&#x107;" horiz-adv-x="373" 
d="M274 446h1q20 0 42 -7.5t28 -16.5q-2 -13 -9.5 -20.5t-13.5 -5.5q-29 11 -56 11q-78 0 -131.5 -75t-53.5 -183q0 -56 22.5 -87t65.5 -31q73 0 140 70q10 -6 10 -21q0 -12 -12 -24q-63 -68 -154 -68q-52 0 -88 36.5t-36 117.5q0 117 68.5 210.5t176.5 93.5zM307 674h1
q18 0 32 -18q8 -8 -4 -19q-33 -37 -99 -134q-7 3 -18 16q-5 5 5 26q19 38 47.5 83.5t35.5 45.5z" />
    <glyph glyph-name="Ccircumflex" unicode="&#x108;" horiz-adv-x="521" 
d="M474 66l2 -1q-2 -29 -16 -44q-59 -36 -158 -36q-125 0 -192.5 78.5t-67.5 204.5q0 50 13 100.5t42 99.5t70 87t101.5 61.5t131.5 23.5q92 0 130 -35q-5 -38 -31 -26q-47 21 -103 21q-130 0 -213.5 -94.5t-83.5 -236.5q0 -106 56 -174.5t161 -68.5q96 0 158 40zM297 678
h-1q-12 0 -23 11q56 48 101 93q6 6 13 10q9 2 15 2q32 -48 87 -100q-11 -16 -26 -16q-13 0 -17 6q-12 9 -58 59q-45 -42 -71 -58q-16 -7 -20 -7z" />
    <glyph glyph-name="ccircumflex" unicode="&#x109;" horiz-adv-x="373" 
d="M274 446h1q20 0 42 -7.5t28 -16.5q-2 -13 -9.5 -20.5t-13.5 -5.5q-29 11 -56 11q-78 0 -131.5 -75t-53.5 -183q0 -56 22.5 -87t65.5 -31q73 0 140 70q10 -6 10 -21q0 -12 -12 -24q-63 -68 -154 -68q-52 0 -88 36.5t-36 117.5q0 117 68.5 210.5t176.5 93.5zM177 503h-1
q-6 0 -15 4.5t-11 9.5l39.5 62t44.5 73q8 13 18 16q16 4 19 4q10 -26 68 -156q-16 -13 -27 -13q-7 0 -12 10q-4 7 -47 104l-68 -110q-4 -4 -8 -4z" />
    <glyph glyph-name="Cdotaccent" unicode="&#x10a;" horiz-adv-x="521" 
d="M474 66l2 -1q-2 -29 -16 -44q-59 -36 -158 -36q-125 0 -192.5 78.5t-67.5 204.5q0 50 13 100.5t42 99.5t70 87t101.5 61.5t131.5 23.5q92 0 130 -35q-5 -38 -31 -26q-47 21 -103 21q-130 0 -213.5 -94.5t-83.5 -236.5q0 -106 56 -174.5t161 -68.5q96 0 158 40zM385 763h1
q14 0 23.5 -11t9.5 -26q0 -17 -11 -28.5t-27 -11.5q-15 0 -25 10t-10 27q0 15 11 27.5t28 12.5z" />
    <glyph glyph-name="cdotaccent" unicode="&#x10b;" horiz-adv-x="373" 
d="M274 446h1q20 0 42 -7.5t28 -16.5q-2 -13 -9.5 -20.5t-13.5 -5.5q-29 11 -56 11q-78 0 -131.5 -75t-53.5 -183q0 -56 22.5 -87t65.5 -31q73 0 140 70q10 -6 10 -21q0 -12 -12 -24q-63 -68 -154 -68q-52 0 -88 36.5t-36 117.5q0 117 68.5 210.5t176.5 93.5zM258 611h1
q14 0 23.5 -10.5t9.5 -24.5q0 -18 -10.5 -29.5t-27.5 -11.5q-15 0 -25 9.5t-10 26.5q0 15 10.5 27.5t28.5 12.5z" />
    <glyph glyph-name="Ccaron" unicode="&#x10c;" horiz-adv-x="521" 
d="M474 66l2 -1q-2 -29 -16 -44q-59 -36 -158 -36q-125 0 -192.5 78.5t-67.5 204.5q0 50 13 100.5t42 99.5t70 87t101.5 61.5t131.5 23.5q92 0 130 -35q-5 -38 -31 -26q-47 21 -103 21q-130 0 -213.5 -94.5t-83.5 -236.5q0 -106 56 -174.5t161 -68.5q96 0 158 40zM469 794h1
q13 0 24 -11q-82 -72 -101 -93q-2 -1 -6.5 -4t-6.5 -4q-8 -4 -16 -4q-34 53 -85 100q8 16 24 16q15 0 19 -5q22 -19 57 -59q38 35 70 58q10 6 20 6z" />
    <glyph glyph-name="ccaron" unicode="&#x10d;" horiz-adv-x="373" 
d="M274 446h1q20 0 42 -7.5t28 -16.5q-2 -13 -9.5 -20.5t-13.5 -5.5q-29 11 -56 11q-78 0 -131.5 -75t-53.5 -183q0 -56 22.5 -87t65.5 -31q73 0 140 70q10 -6 10 -21q0 -12 -12 -24q-63 -68 -154 -68q-52 0 -88 36.5t-36 117.5q0 117 68.5 210.5t176.5 93.5zM320 672h1
q7 0 15.5 -4t10.5 -10l-37.5 -59t-46.5 -76q-9 -13 -19 -16q-14 -4 -18 -4q-18 46 -68 156q16 13 28 13q7 0 12 -10l20 -45.5l25 -57.5q30 51 67 106q4 7 10 7z" />
    <glyph glyph-name="Dcaron" unicode="&#x10e;" horiz-adv-x="604" 
d="M96 578l-1 1q2 19 14 35q57 16 141 16q157 0 238.5 -72t80.5 -223q-1 -107 -49.5 -186.5t-128 -119t-178.5 -39.5q-78 0 -166 26l63 410l23 158q-7 -1 -18.5 -2.5t-18.5 -3.5zM514 331q0 262 -274 262q-29 0 -56 -3q-14 -92 -39.5 -274t-39.5 -274q47 -15 108 -15
t114 18.5t95.5 54.5t67 95.5t24.5 135.5zM410 781h1q13 0 24 -11q-82 -72 -101 -93q-2 -1 -6.5 -4t-6.5 -4q-8 -4 -16 -4q-34 53 -85 100q8 16 24 16q15 0 19 -5q22 -19 57 -59q38 35 70 58q11 6 20 6z" />
    <glyph glyph-name="dcaron" unicode="&#x10f;" horiz-adv-x="476" 
d="M113 -12h-1q-41 0 -65 35t-24 102q0 78 31 150t93.5 121.5t141.5 49.5q51 0 87 -26q22 128 35 248q19 12 42 12q8 0 2 -43q-64 -404 -75 -498q-11 -83 -9 -140q-24 -11 -43 -11q-4 1 -2 43.5t7 90.5q9 56 9 58q-45 -84 -106 -138t-123 -54zM129 33h1q64 0 139 93t95 222
q1 4 2.5 16.5t2.5 16.5q-32 27 -85 27q-92 0 -150 -82.5t-58 -200.5q0 -92 53 -92zM585 696h1q14 0 14 -30q0 -39 -30.5 -88t-65.5 -71q-13 -6 -36 -5q63 72 71 141q1 7 1 35q25 18 45 18z" />
    <glyph glyph-name="Dcroat" unicode="&#x110;" horiz-adv-x="614" 
d="M106 578l-1 1q2 19 14 35q57 16 141 16q156 0 238 -73t81 -225q-1 -107 -49.5 -185.5t-128 -117.5t-178.5 -39q-78 0 -166 26q23 140 44 286h-84q9 39 50 39h40q3 18 7.5 49.5t5.5 35.5l23 158q-7 -1 -18.5 -2.5t-18.5 -3.5zM278 302h-126l-37 -260q47 -15 108 -15
t114 18.5t95.5 54.5t67 95t24.5 135q0 263 -274 263q-29 0 -56 -3l-36 -249h174q-9 -39 -54 -39z" />
    <glyph glyph-name="dcroat" unicode="&#x111;" horiz-adv-x="476" 
d="M23 124v1q0 77 30.5 149t93.5 122t143 50q50 0 86 -26l18 119h-125q4 37 42 37h88q12 88 12 92q19 12 42 12q8 0 2 -43q-7 -44 -10 -61h75q-1 -24 -13.5 -30.5t-41.5 -6.5h-26q-51 -327 -59 -400q-9 -69 -9 -140q-24 -11 -42 -11q-3 0 -3.5 15t1 45.5t6.5 69.5
q1 3 4 24.5l5 36.5q-41 -78 -103 -134.5t-128 -56.5q-40 0 -64 34.5t-24 101.5zM128 33h1q64 0 140.5 93.5t96.5 228.5q0 1 1 10.5t2 14.5q-35 28 -85 28q-91 0 -149.5 -83.5t-58.5 -201.5q0 -41 14 -65.5t38 -24.5z" />
    <glyph glyph-name="Emacron" unicode="&#x112;" horiz-adv-x="413" 
d="M143 341h222q-6 -25 -18.5 -32t-47.5 -7h-163l-35 -260q26 -9 123 -9q109 0 150 6l1 -2q-2 -11 -12 -23.5t-24 -15.5q-23 -4 -105 -4q-121 0 -176 11l-12 16l67 463q7 51 16 128q18 10 43 13h222q0 -22 -14 -30q-14 -9 -63 -9h-140zM355 683h-168q-11 0 -13 11
q0 16 13 29h172q11 0 11 -6q0 -5 -5 -17t-10 -17z" />
    <glyph glyph-name="emacron" unicode="&#x113;" horiz-adv-x="385" 
d="M259 446h1q40 0 65 -21.5t25 -58.5q0 -41 -25.5 -73t-67 -51t-86 -29t-90.5 -12q-3 -16 -3 -48q0 -56 22.5 -89.5t67.5 -33.5q83 0 149 79q10 -3 10 -20q0 -16 -14 -32q-59 -69 -159 -69q-126 0 -126 159q0 111 63 205t168 94zM249 410h-1q-60 0 -102.5 -51t-58.5 -122
q111 7 163.5 41.5t52.5 82.5q0 23 -15 36t-39 13zM330 544h-169q-11 0 -11 10q0 21 13 31h173q9 0 9 -6q0 -17 -15 -35z" />
    <glyph glyph-name="Ebreve" unicode="&#x114;" horiz-adv-x="413" 
d="M143 341h222q-6 -25 -18.5 -32t-47.5 -7h-163l-35 -260q26 -9 123 -9q109 0 150 6l1 -2q-2 -11 -12 -23.5t-24 -15.5q-23 -4 -105 -4q-121 0 -176 11l-12 16l67 463q7 51 16 128q18 10 43 13h222q0 -22 -14 -30q-14 -9 -63 -9h-140zM208 779h1q8 0 8 -13q6 -31 18.5 -43
t34.5 -12q24 0 40.5 11.5t33.5 44.5q8 12 15 12q8 0 17 -5t7 -12q-12 -47 -44.5 -72t-75.5 -25t-65.5 29.5t-17.5 64.5q3 20 28 20z" />
    <glyph glyph-name="ebreve" unicode="&#x115;" horiz-adv-x="385" 
d="M259 446h1q40 0 65 -21.5t25 -58.5q0 -41 -25.5 -73t-67 -51t-86 -29t-90.5 -12q-3 -16 -3 -48q0 -56 22.5 -89.5t67.5 -33.5q83 0 149 79q10 -3 10 -20q0 -16 -14 -32q-59 -69 -159 -69q-126 0 -126 159q0 111 63 205t168 94zM249 410h-1q-60 0 -102.5 -51t-58.5 -122
q111 7 163.5 41.5t52.5 82.5q0 23 -15 36t-39 13zM193 641h1q6 0 6 -8q0 -75 41 -75q24 0 41 16t30 60q4 7 10 7q8 0 16.5 -5t7.5 -12q-20 -108 -109 -108q-36 0 -57 28.5t-17 74.5q3 22 30 22z" />
    <glyph glyph-name="Edotaccent" unicode="&#x116;" horiz-adv-x="413" 
d="M143 341h222q-6 -25 -18.5 -32t-47.5 -7h-163l-35 -260q26 -9 123 -9q109 0 150 6l1 -2q-2 -11 -12 -23.5t-24 -15.5q-23 -4 -105 -4q-121 0 -176 11l-12 16l67 463q7 51 16 128q18 10 43 13h222q0 -22 -14 -30q-14 -9 -63 -9h-140zM278 742h1q14 0 23.5 -11t9.5 -26
q0 -17 -11 -28.5t-27 -11.5t-25.5 9.5t-9.5 27.5q0 15 11 27.5t28 12.5z" />
    <glyph glyph-name="edotaccent" unicode="&#x117;" horiz-adv-x="385" 
d="M259 446h1q40 0 65 -21.5t25 -58.5q0 -41 -25.5 -73t-67 -51t-86 -29t-90.5 -12q-3 -16 -3 -48q0 -56 22.5 -89.5t67.5 -33.5q83 0 149 79q10 -3 10 -20q0 -16 -14 -32q-59 -69 -159 -69q-126 0 -126 159q0 111 63 205t168 94zM249 410h-1q-60 0 -102.5 -51t-58.5 -122
q111 7 163.5 41.5t52.5 82.5q0 23 -15 36t-39 13zM249 611h1q14 0 23.5 -10.5t9.5 -24.5q0 -18 -10.5 -29.5t-27.5 -11.5q-15 0 -25 9.5t-10 26.5q0 15 10.5 27.5t28.5 12.5z" />
    <glyph glyph-name="Eogonek" unicode="&#x118;" horiz-adv-x="413" 
d="M375 39v-2q-2 -11 -12 -23.5t-24 -15.5q-3 -1 -8.5 -1.5t-8.5 -0.5q-83 -62 -83 -132q0 -20 11 -31t28 -11q37 0 69 23l4 -2q2 -24 -8 -40q-27 -32 -80 -32q-37 0 -58 22.5t-21 56.5q0 80 91 144h-41q-124 0 -174 10l-13 20l66 460q7 51 16 128q18 10 43 13h222
q0 -22 -14 -30q-14 -9 -63 -9h-140l-34 -245h222q-6 -25 -18.5 -32t-47.5 -7h-163l-35 -260q28 -9 123 -9q110 0 151 6z" />
    <glyph glyph-name="eogonek" unicode="&#x119;" horiz-adv-x="385" 
d="M81 201q-3 -16 -3 -48q0 -56 22.5 -89.5t67.5 -33.5q50 0 84 21t65 58q10 -3 10 -19t-14 -33q-25 -28 -66 -49q-45 -27 -82.5 -69.5t-37.5 -80.5q0 -20 11 -30.5t29 -10.5q36 0 70 23q4 -2 5 -3q2 -26 -8 -39q-7 -10 -29 -22t-53 -12q-38 0 -59.5 23.5t-21.5 56.5
q0 77 96 144q-73 -4 -106 39.5t-33 119.5q0 70 25 136.5t79.5 114.5t125.5 48q41 0 66.5 -21.5t25.5 -58.5q0 -54 -45 -92t-102.5 -54t-121.5 -19zM249 410h-1q-58 0 -101.5 -51t-59.5 -122q111 6 163.5 41.5t52.5 82.5q0 23 -15 36t-39 13z" />
    <glyph glyph-name="Ecaron" unicode="&#x11a;" horiz-adv-x="413" 
d="M143 341h222q-6 -25 -18.5 -32t-47.5 -7h-163l-35 -260q26 -9 123 -9q109 0 150 6l1 -2q-2 -11 -12 -23.5t-24 -15.5q-23 -4 -105 -4q-121 0 -176 11l-12 16l67 463q7 51 16 128q18 10 43 13h222q0 -22 -14 -30q-14 -9 -63 -9h-140zM363 781h1q13 0 24 -11
q-82 -72 -101 -93q-2 -1 -6.5 -4t-6.5 -4q-8 -4 -16 -4q-34 53 -85 100q8 16 24 16q15 0 19 -5q22 -19 57 -59q38 35 70 58q10 6 20 6z" />
    <glyph glyph-name="ecaron" unicode="&#x11b;" horiz-adv-x="385" 
d="M259 446h1q40 0 65 -21.5t25 -58.5q0 -41 -25.5 -73t-67 -51t-86 -29t-90.5 -12q-3 -16 -3 -48q0 -56 22.5 -89.5t67.5 -33.5q83 0 149 79q10 -3 10 -20q0 -16 -14 -32q-59 -69 -159 -69q-126 0 -126 159q0 111 63 205t168 94zM249 410h-1q-60 0 -102.5 -51t-58.5 -122
q111 7 163.5 41.5t52.5 82.5q0 23 -15 36t-39 13zM314 672h1q7 0 15.5 -4t10.5 -10l-37.5 -59t-46.5 -76q-9 -13 -19 -16q-14 -4 -18 -4q-18 46 -68 156q16 13 28 13q7 0 12 -10l20 -45.5l25 -57.5q30 51 67 106q4 7 10 7z" />
    <glyph glyph-name="Gcircumflex" unicode="&#x11c;" horiz-adv-x="594" 
d="M393 640h1q51 0 95 -13.5t66 -31.5q-7 -40 -43 -23q-54 27 -121 27q-133 0 -212.5 -91t-79.5 -220q0 -128 68.5 -197t196.5 -69q55 0 82 11q31 187 35 259q29 9 41 9q13 0 11 -15q-3 -27 -16.5 -120t-21.5 -160q-84 -21 -151 -21q-142 0 -222 78t-80 222q0 46 12 93.5
t40 95t67.5 84t99.5 59.5t132 23zM280 678h-1q-12 0 -23 11q56 48 101 93q5 6 13 10q9 2 15 2q32 -48 87 -100q-11 -16 -26 -16q-12 0 -17 6q-12 9 -58 59q-45 -42 -71 -58q-16 -7 -20 -7z" />
    <glyph glyph-name="gcircumflex" unicode="&#x11d;" horiz-adv-x="386" 
d="M219 446h1q39 0 75 -25q10 -7 19 -5q6 0 41 4.5t45 7.5q-3 -9 -8 -47h-71q14 -32 14 -69q0 -93 -51.5 -149.5t-122.5 -57.5q-23 0 -41 6q-24 -18 -24 -31q0 -24 45 -35q104 -29 140 -42q31 -12 47.5 -35.5t16.5 -50.5q0 -56 -53 -101.5t-139 -45.5q-92 0 -142 43t-50 92
q0 53 117 120q-29 20 -29 47q0 9 14.5 24.5t30.5 26.5q-53 35 -53 115q0 79 48.5 143.5t129.5 64.5zM287 317v1q0 36 -18.5 64t-58.5 28q-52 0 -86 -49.5t-34 -121.5q0 -49 20.5 -74t57.5 -25q56 0 87.5 53.5t31.5 123.5zM163 -189h1q61 0 97 28t36 64q0 25 -14 41.5
t-50 28.5q-78 26 -125 36q-43 -23 -70.5 -50.5t-27.5 -48.5q0 -40 44.5 -69.5t108.5 -29.5zM158 503h-1q-6 0 -15 4.5t-11 9.5l39.5 62t44.5 73q8 13 18 16q16 4 19 4q10 -26 68 -156q-16 -13 -27 -13q-7 0 -12 10q-4 7 -47 104l-68 -110q-4 -4 -8 -4z" />
    <glyph glyph-name="Gbreve" unicode="&#x11e;" horiz-adv-x="594" 
d="M393 640h1q51 0 95 -13.5t66 -31.5q-7 -40 -43 -23q-54 27 -121 27q-133 0 -212.5 -91t-79.5 -220q0 -128 68.5 -197t196.5 -69q55 0 82 11q31 187 35 259q29 9 41 9q13 0 11 -15q-3 -27 -16.5 -120t-21.5 -160q-84 -21 -151 -21q-142 0 -222 78t-80 222q0 46 12 93.5
t40 95t67.5 84t99.5 59.5t132 23zM313 794h1q8 0 8 -13q6 -31 18.5 -43t34.5 -12q24 0 40.5 11.5t33.5 44.5q8 12 15 12q8 0 17 -5t7 -12q-12 -47 -44.5 -72t-75.5 -25t-65.5 29.5t-17.5 64.5q3 20 28 20z" />
    <glyph glyph-name="gbreve" unicode="&#x11f;" horiz-adv-x="386" 
d="M219 446h1q39 0 75 -25q10 -7 19 -5q6 0 41 4.5t45 7.5q-3 -9 -8 -47h-71q14 -32 14 -69q0 -93 -51.5 -149.5t-122.5 -57.5q-23 0 -41 6q-24 -18 -24 -31q0 -24 45 -35q104 -29 140 -42q31 -12 47.5 -35.5t16.5 -50.5q0 -56 -53 -101.5t-139 -45.5q-92 0 -142 43t-50 92
q0 53 117 120q-29 20 -29 47q0 9 14.5 24.5t30.5 26.5q-53 35 -53 115q0 79 48.5 143.5t129.5 64.5zM287 317v1q0 36 -18.5 64t-58.5 28q-52 0 -86 -49.5t-34 -121.5q0 -49 20.5 -74t57.5 -25q56 0 87.5 53.5t31.5 123.5zM163 -189h1q61 0 97 28t36 64q0 25 -14 41.5
t-50 28.5q-78 26 -125 36q-43 -23 -70.5 -50.5t-27.5 -48.5q0 -40 44.5 -69.5t108.5 -29.5zM178 641h1q6 0 6 -8q0 -75 41 -75q24 0 41 16t30 60q3 7 10 7q8 0 16.5 -5t7.5 -12q-20 -108 -109 -108q-36 0 -57 28.5t-17 74.5q3 22 30 22z" />
    <glyph glyph-name="Gdotaccent" unicode="&#x120;" horiz-adv-x="594" 
d="M393 640h1q51 0 95 -13.5t66 -31.5q-7 -40 -43 -23q-54 27 -121 27q-133 0 -212.5 -91t-79.5 -220q0 -128 68.5 -197t196.5 -69q55 0 82 11q31 187 35 259q29 9 41 9q13 0 11 -15q-3 -27 -16.5 -120t-21.5 -160q-84 -21 -151 -21q-142 0 -222 78t-80 222q0 46 12 93.5
t40 95t67.5 84t99.5 59.5t132 23zM381 757h1q14 0 23.5 -11t9.5 -26q0 -17 -11 -28.5t-27 -11.5q-15 0 -25 10t-10 27q0 15 11 27.5t28 12.5z" />
    <glyph glyph-name="gdotaccent" unicode="&#x121;" horiz-adv-x="386" 
d="M219 446h1q39 0 75 -25q10 -7 19 -5q6 0 41 4.5t45 7.5q-3 -9 -8 -47h-71q14 -32 14 -69q0 -93 -51.5 -149.5t-122.5 -57.5q-23 0 -41 6q-24 -18 -24 -31q0 -24 45 -35q104 -29 140 -42q31 -12 47.5 -35.5t16.5 -50.5q0 -56 -53 -101.5t-139 -45.5q-92 0 -142 43t-50 92
q0 53 117 120q-29 20 -29 47q0 9 14.5 24.5t30.5 26.5q-53 35 -53 115q0 79 48.5 143.5t129.5 64.5zM287 317v1q0 36 -18.5 64t-58.5 28q-52 0 -86 -49.5t-34 -121.5q0 -49 20.5 -74t57.5 -25q56 0 87.5 53.5t31.5 123.5zM163 -189h1q61 0 97 28t36 64q0 25 -14 41.5
t-50 28.5q-78 26 -125 36q-43 -23 -70.5 -50.5t-27.5 -48.5q0 -40 44.5 -69.5t108.5 -29.5zM234 611h1q14 0 23.5 -10.5t9.5 -24.5q0 -18 -10.5 -29.5t-27.5 -11.5q-15 0 -25 9.5t-10 26.5q0 15 10.5 27.5t28.5 12.5z" />
    <glyph glyph-name="Gcommaaccent" unicode="&#x122;" horiz-adv-x="594" 
d="M393 640h1q51 0 95 -13.5t66 -31.5q-7 -40 -43 -23q-54 27 -121 27q-133 0 -212.5 -91t-79.5 -220q0 -128 68.5 -197t196.5 -69q55 0 82 11q31 187 35 259q29 9 41 9q13 0 11 -15q-3 -27 -16.5 -120t-21.5 -160q-84 -21 -151 -21q-142 0 -222 78t-80 222q0 46 12 93.5
t40 95t67.5 84t99.5 59.5t132 23zM304 -34h1q14 0 14 -30q0 -39 -30.5 -88t-65.5 -71q-13 -6 -36 -5q63 72 71 141q1 7 1 35q25 18 45 18z" />
    <glyph glyph-name="gcommaaccent" unicode="&#x123;" horiz-adv-x="386" 
d="M205 495h-1q-14 0 -14 29q0 40 30.5 89t65.5 71q13 6 36 5q-63 -72 -71 -141q-1 -7 -1 -35q-25 -18 -45 -18zM219 446h1q38 0 75 -24q9 -6 19 -6q6 0 41 4.5t45 7.5q-3 -9 -8 -47h-71q14 -32 14 -69q0 -93 -51.5 -149.5t-122.5 -57.5q-23 0 -41 6q-24 -18 -24 -32
q0 -24 45 -35q128 -35 141 -40q31 -12 47 -35.5t16 -50.5q0 -56 -55.5 -102t-142.5 -46q-91 0 -140.5 42.5t-49.5 90.5q0 55 117 124q-25 22 -25 44q0 9 14.5 25t30.5 27q-53 35 -53 115q0 79 48.5 143.5t129.5 64.5zM287 317v1q0 36 -18.5 64t-58.5 28q-52 0 -86 -49.5
t-34 -121.5q0 -49 20.5 -74t57.5 -25q56 0 87.5 53.5t31.5 123.5zM158 -192h1q60 0 99 30t39 66q0 25 -13.5 41t-48.5 28q-52 19 -132 36q-42 -24 -69.5 -52.5t-27.5 -48.5q0 -41 43.5 -70.5t108.5 -29.5z" />
    <glyph glyph-name="Hcircumflex" unicode="&#x124;" horiz-adv-x="590" 
d="M144 342h330l38 256q4 27 18 29q14 1 38 1l-74 -504q-11 -69 -16 -124q-17 -6 -43 -6q-13 0 -10 18l43 293q-24 -2 -159 -2h-170l-39 -279q-4 -26 -17 -28q-29 -2 -42 -2q21 130 73 497q15 112 15 131q8 1 17 2.5t14.5 2.5t11.5 1q4 0 5.5 -2t2.5 -8t0 -17.5t-4 -29.5z
M268 665h-1q-12 0 -23 11q56 48 101 93q5 5 13 10q9 2 15 2q32 -48 87 -100q-11 -16 -26 -16q-12 0 -17 6q-12 9 -58 59q-45 -42 -71 -58q-16 -7 -20 -7z" />
    <glyph glyph-name="hcircumflex" unicode="&#x125;" horiz-adv-x="488" 
d="M351 446h1q87 0 64 -151l-27 -157q-17 -99 -19 -139q-22 -11 -44 -11q-3 0 -3.5 11.5t4 45.5t13.5 87l31 182q16 90 -35 90q-29 0 -64.5 -22.5t-71 -64.5t-65.5 -113t-44 -157q-7 -39 -13 -45q-10 -8 -45 -10q19 94 79 525q13 93 19 151q24 12 41 12q7 0 7.5 -11.5
t-3.5 -34.5l-56 -385q51 97 115 147t116 50zM74 690h-1q-12 0 -23 11q56 48 101 93q5 6 13 10q9 2 15 2q32 -48 87 -100q-11 -16 -26 -16q-12 0 -17 6q-12 9 -58 59q-45 -42 -71 -58q-16 -7 -20 -7z" />
    <glyph glyph-name="Hbar" unicode="&#x126;" horiz-adv-x="590" 
d="M103 429h-56q4 37 42 37h19q17 121 19 156q8 1 17 2.5t14.5 2.5t11.5 1q4 0 5.5 -2t2.5 -8t0 -17.5t-4 -29.5l-15 -105h331l20 132q4 27 18 29q14 1 37 1q-9 -69 -23 -162h57q-1 -24 -12 -30.5t-40 -6.5h-10l-45 -305q-11 -69 -16 -124q-17 -6 -43 -6q-13 0 -10 18
l39 262q-24 -2 -159 -2h-170l-35 -248q-4 -26 -17 -28q-29 -2 -42 -2q22 121 64 435zM485 429h-331l-16 -118h330z" />
    <glyph glyph-name="hbar" unicode="&#x127;" horiz-adv-x="488" 
d="M238 539h-75l-43 -290q51 97 115 147t116 50q88 0 65 -151l-27 -157q-17 -99 -19 -139q-22 -11 -44 -11q-3 0 -3.5 11.5t4 45.5t13.5 87l31 182q7 38 -0.5 64t-33.5 26q-66 0 -143 -95.5t-104 -261.5q-7 -39 -13 -45q-10 -8 -45 -10q29 146 83 547h-73q4 37 42 37h36
q2 11 11 92q24 12 42 12q9 0 4 -38q-1 -5 -1 -8q-1 -9 -8 -58h125q-1 -24 -13.5 -30.5t-41.5 -6.5z" />
    <glyph glyph-name="Itilde" unicode="&#x128;" horiz-adv-x="208" 
d="M44 12l69 479q6 44 16 130q21 7 42 7q4 0 6 -1.5t2.5 -7.5t-0.5 -17t-4 -31l-64 -447q-13 -88 -16 -124q-17 -6 -40 -6q-14 0 -11 18zM120 770h1q31 0 60 -35q24 -29 32 -29q16 0 23 53q2 11 10 11q13 0 24 -16q-3 -40 -18 -64.5t-40 -24.5q-6 0 -11.5 2t-9 3.5t-9.5 7
t-8.5 8l-10 10.5l-10.5 11q-20 23 -33 23q-16 0 -28 -49q-2 -11 -8 -11t-27 8q10 92 63 92z" />
    <glyph glyph-name="itilde" unicode="&#x129;" horiz-adv-x="197" 
d="M136 446h1q9 0 6 -23l-53 -392q-2 -22 -12 -28q-21 -9 -41 -11q15 98 36 252q21 160 22 190q26 12 41 12zM83 625h1q27 0 57 -34q22 -27 30 -27q16 0 21 50q3 11 11 11q13 0 24 -15q-2 -40 -16.5 -64t-39.5 -24q-6 0 -11 1.5t-9 3.5t-9.5 7t-8.5 7.5t-10 10.5t-10 11
q-19 22 -30 22q-17 0 -27 -47q-2 -10 -8 -10t-27 8q3 35 17.5 62t44.5 27z" />
    <glyph glyph-name="Imacron" unicode="&#x12a;" horiz-adv-x="208" 
d="M44 12l69 479q6 44 16 130q21 7 42 7q4 0 6 -1.5t2.5 -7.5t-0.5 -17t-4 -31l-64 -447q-13 -88 -16 -124q-17 -6 -40 -6q-14 0 -11 18zM240 670h-168q-11 0 -13 11q0 16 13 29h172q11 0 11 -6q0 -5 -5 -17t-10 -17z" />
    <glyph glyph-name="imacron" unicode="&#x12b;" horiz-adv-x="197" 
d="M136 446h1q9 0 6 -23l-53 -392q-2 -22 -12 -28q-21 -9 -41 -11q15 98 36 252q21 160 22 190q26 12 41 12zM218 544h-169q-11 0 -11 10q0 21 13 31h173q9 0 9 -6q0 -17 -15 -35z" />
    <glyph glyph-name="Ibreve" unicode="&#x12c;" horiz-adv-x="208" 
d="M44 12l69 479q6 44 16 130q21 7 42 7q4 0 6 -1.5t2.5 -7.5t-0.5 -17t-4 -31l-64 -447q-13 -88 -16 -124q-17 -6 -40 -6q-14 0 -11 18zM101 784h1q8 0 8 -13q6 -31 18.5 -43t34.5 -12q24 0 40.5 11.5t33.5 44.5q8 12 15 12q8 0 17 -5t7 -12q-12 -47 -44.5 -72t-75.5 -25
t-65.5 29.5t-17.5 64.5q3 20 28 20z" />
    <glyph glyph-name="ibreve" unicode="&#x12d;" horiz-adv-x="197" 
d="M136 446h1q9 0 6 -23l-53 -392q-2 -22 -12 -28q-21 -9 -41 -11q15 98 36 252q21 160 22 190q26 12 41 12zM79 641h1q6 0 6 -8q0 -75 41 -75q24 0 41 16t30 60q4 7 10 7q8 0 16.5 -5t7.5 -12q-20 -108 -109 -108q-36 0 -57 28.5t-17 74.5q3 22 30 22z" />
    <glyph glyph-name="Iogonek" unicode="&#x12e;" horiz-adv-x="208" 
d="M175 571l-64 -447q-13 -88 -16 -124q-73 -65 -73 -135q0 -21 11.5 -32t28.5 -11q35 0 67 23l5 -4q2 -22 -8 -38q-27 -32 -79 -32q-37 0 -58.5 22.5t-21.5 58.5q0 76 82 145q-7 4 -5 15l69 479q6 44 16 130q21 7 42 7q4 0 6 -1.5t2.5 -7.5t-0.5 -17t-4 -31z" />
    <glyph glyph-name="iogonek" unicode="&#x12f;" horiz-adv-x="197" 
d="M142 662h1q11 0 19.5 -7.5t9.5 -22.5q1 -17 -10 -26t-23 -9q-27 0 -29 27q-1 20 9.5 29t22.5 9zM41 1l-4 2q34 224 36 241q21 160 22 190q26 12 41 12q10 0 7 -23l-53 -392q-3 -20 -13 -30q-68 -69 -68 -141q0 -20 11.5 -31.5t28.5 -11.5q36 0 70 23q4 -2 5 -3
q2 -26 -8 -39q-7 -10 -29 -22t-53 -12q-38 0 -59.5 23t-21.5 59q0 78 88 155z" />
    <glyph glyph-name="Idotaccent" unicode="&#x130;" horiz-adv-x="208" 
d="M44 12l69 479q6 44 16 130q21 7 42 7q4 0 6 -1.5t2.5 -7.5t-0.5 -17t-4 -31l-64 -447q-13 -88 -16 -124q-17 -6 -40 -6q-14 0 -11 18zM166 742h1q14 0 23.5 -11t9.5 -26q0 -17 -11 -28.5t-27 -11.5t-25.5 9.5t-9.5 27.5q0 15 11 27.5t28 12.5z" />
    <glyph glyph-name="dotlessi" unicode="&#x131;" horiz-adv-x="197" 
d="M136 446h1q9 0 6 -23l-53 -392q-2 -22 -12 -28q-21 -9 -41 -11q15 98 36 252q21 160 22 190q26 12 41 12z" />
    <glyph glyph-name="IJ" unicode="&#x132;" horiz-adv-x="418" 
d="M44 12l69 479q6 44 16 130q21 7 42 7q4 0 6 -1.5t2.5 -7.5t-0.5 -17t-4 -31l-64 -447q-13 -88 -16 -124q-17 -6 -40 -6q-14 0 -11 18zM113 -115l2 3q74 4 105.5 50t50.5 184q23 158 46 348q13 114 16 152q30 6 43 6q7 0 8.5 -5.5t-0.5 -26.5q-6 -50 -66 -505
q-7 -55 -20.5 -97.5t-31 -67t-33.5 -40.5t-35.5 -22t-30 -7.5t-23.5 -1.5q-11 0 -20 10t-11 20z" />
    <glyph glyph-name="ij" unicode="&#x133;" horiz-adv-x="397" 
d="M145 662h1q26 0 26 -31q0 -17 -11 -25.5t-23 -8.5q-27 0 -27 29q0 20 11 28t23 8zM136 446h1q9 0 6 -23l-53 -392q-2 -22 -12 -28q-21 -9 -41 -11q15 98 36 252q21 160 22 190q26 12 41 12zM342 662h1q26 0 26 -31q0 -17 -11 -25.5t-23 -8.5q-27 0 -27 29q0 20 11 28
t23 8zM336 446h1q7 0 4 -33q-14 -121 -52 -385q-7 -48 -14.5 -81.5t-20 -67t-29 -54t-42 -33t-58.5 -12.5q-19 0 -35 10q-9 6 -10.5 19t4.5 19q18 -10 40 -10q52 0 76 43t40 146q23 154 40 284q14 107 14 143q20 12 42 12z" />
    <glyph glyph-name="Jcircumflex" unicode="&#x134;" horiz-adv-x="210" 
d="M-95 -115l2 3q74 4 105.5 50t50.5 184q23 158 46 348q13 114 16 152q30 6 43 6q7 0 8.5 -5.5t-0.5 -26.5q-6 -50 -66 -505q-7 -55 -20.5 -97.5t-31 -67t-33.5 -40.5t-35.5 -22t-30 -7.5t-23.5 -1.5q-11 0 -20 10t-11 20zM67 665h-1q-12 0 -23 11q56 48 101 93q6 5 13 10
q9 2 15 2q32 -48 87 -100q-11 -16 -26 -16q-13 0 -17 6q-12 9 -58 59q-45 -42 -71 -58q-16 -7 -20 -7z" />
    <glyph glyph-name="jcircumflex" unicode="&#x135;" horiz-adv-x="200" 
d="M139 446h1q7 0 4 -32q-14 -122 -52 -386q-9 -62 -18.5 -100.5t-27 -75.5t-46 -54.5t-69.5 -17.5q-19 0 -35 10q-9 6 -10.5 19t4.5 19q18 -10 40 -10q51 0 74 42t39 147q23 154 40 284q14 107 14 144q18 11 42 11zM60 503h-1q-6 0 -15 4.5t-11 9.5l39.5 62t44.5 73
q8 13 18 16q16 4 19 4l68 -156q-16 -13 -27 -13q-7 0 -12 10q-4 7 -47 104l-68 -110q-4 -4 -8 -4z" />
    <glyph glyph-name="Kcommaaccent" unicode="&#x136;" horiz-adv-x="540" 
d="M44 12l68 461q6 37 21 149q20 6 39 6q9 0 9 -11t-3 -27l-40 -272l365 317q14 2 34 -5q16 -5 3 -17l-342 -294q5 -6 32.5 -37l45 -50.5l47.5 -53l52.5 -57l47.5 -49.5t44.5 -43.5t32.5 -26.5l-1 -4q-16 -6 -42 -6q-24 0 -69 47q-25 25 -81 87l-109.5 122.5t-59.5 66.5
l-42 -315q-21 -6 -44 -6q-11 0 -8 18zM267 -34h1q14 0 14 -30q0 -39 -30.5 -88t-65.5 -71q-13 -6 -36 -5q63 72 71 141q1 7 1 35q25 18 45 18z" />
    <glyph glyph-name="kcommaaccent" unicode="&#x137;" horiz-adv-x="428" 
d="M406 420q-34 -19 -115 -80.5t-124 -99.5q31 -45 101 -123.5t106 -106.5q-3 -6 -15.5 -14t-21.5 -8q-14 0 -69 59q-90 99 -155 185q-13 -98 -28 -182q-7 -39 -15 -46q-15 -12 -42 -12q29 137 83 526q18 133 18 148q20 14 43 14q8 0 3 -45l-60 -394q62 58 195 160
q59 45 72 45q8 0 16 -9t8 -17zM201 -34h1q14 0 14 -30q0 -39 -30.5 -88t-65.5 -71q-13 -6 -36 -5q63 72 71 141q1 7 1 35q25 18 45 18z" />
    <glyph glyph-name="kgreenlandic" unicode="&#x138;" horiz-adv-x="423" 
d="M409 423v-2q-32 -19 -115.5 -86t-128.5 -108q67 -83 148 -160q48 -48 66 -57q-1 -7 -14 -14.5t-22 -7.5q-17 0 -77 62l-48.5 50.5l-65 69.5t-41.5 48q-4 -36 -25 -168q-7 -40 -15 -47q-16 -11 -43 -11q17 79 47 285q19 130 20 154q20 14 43 14q5 -4 4.5 -16.5t-5.5 -45.5
l-24 -156q48 46 205 174q55 45 69 45q7 0 14 -9t8 -14z" />
    <glyph glyph-name="Lacute" unicode="&#x139;" horiz-adv-x="407" 
d="M47 20l65 471q15 112 15 131q32 6 44 6q3 0 4 -1.5t1.5 -8t-0.5 -17.5t-4 -31l-70 -528q26 -9 122 -9q109 0 140 6l1 -2q-3 -11 -13 -23.5t-23 -15.5q-23 -4 -100 -4q-118 0 -170 10q-8 8 -12 16zM263 769q8 -4 18.5 -14t14.5 -18q4 -11 -11 -16q-89 -25 -155 -56
q-8 5 -12 15q-5 11 7 18q26 18 74.5 43.5t63.5 27.5z" />
    <glyph glyph-name="lacute" unicode="&#x13a;" horiz-adv-x="197" 
d="M173 635l-86 -594q-5 -36 -17 -41q-16 -6 -39 -8q30 162 79 525q17 118 20 153q26 10 42 10q8 0 1 -45zM263 817q8 -4 18.5 -14t14.5 -18q4 -11 -11 -16q-89 -25 -155 -56q-8 5 -12 15q-5 11 7 18q26 18 74.5 43.5t63.5 27.5z" />
    <glyph glyph-name="Lcommaaccent" unicode="&#x13b;" horiz-adv-x="407" 
d="M47 20l65 471q15 112 15 131q32 6 44 6q3 0 4 -1.5t1.5 -8t-0.5 -17.5t-4 -31l-70 -528q26 -9 122 -9q109 0 140 6l1 -2q-3 -11 -13 -23.5t-23 -15.5q-23 -4 -100 -4q-118 0 -170 10q-8 8 -12 16zM211 -34h1q14 0 14 -30q0 -39 -30.5 -88t-65.5 -71q-13 -6 -36 -5
q63 72 71 141q1 7 1 35q25 18 45 18z" />
    <glyph glyph-name="lcommaaccent" unicode="&#x13c;" horiz-adv-x="197" 
d="M173 635l-86 -594q-5 -36 -17 -41q-16 -6 -39 -8q30 162 79 525q17 118 20 153q26 10 42 10q8 0 1 -45zM62 -34h1q14 0 14 -30q0 -39 -30.5 -88t-65.5 -71q-13 -6 -36 -5q63 72 71 141q1 7 1 35q25 18 45 18z" />
    <glyph glyph-name="Lcaron" unicode="&#x13d;" horiz-adv-x="407" 
d="M47 20l65 471q15 112 15 131q32 6 44 6q3 0 4 -1.5t1.5 -8t-0.5 -17.5t-4 -31l-70 -528q26 -9 122 -9q109 0 140 6l1 -2q-3 -11 -13 -23.5t-23 -15.5q-23 -4 -100 -4q-118 0 -170 10q-8 8 -12 16zM366 641h1q14 0 14 -30q0 -39 -30.5 -88t-65.5 -71q-13 -6 -36 -5
q63 72 71 141q1 7 1 35q25 18 45 18z" />
    <glyph glyph-name="lcaron" unicode="&#x13e;" horiz-adv-x="197" 
d="M173 635l-86 -594q-5 -36 -17 -41q-16 -6 -39 -8q30 162 79 525q17 118 20 153q26 10 42 10q8 0 1 -45zM301 696h1q14 0 14 -30q0 -39 -30.5 -88t-65.5 -71q-13 -6 -36 -5q63 72 71 141q1 7 1 35q25 18 45 18z" />
    <glyph glyph-name="Ldot" unicode="&#x13f;" horiz-adv-x="407" 
d="M47 20l65 471q15 112 15 131q32 6 44 6q3 0 4 -1.5t1.5 -8t-0.5 -17.5t-4 -31l-70 -528q26 -9 122 -9q109 0 140 6l1 -2q-3 -11 -13 -23.5t-23 -15.5q-23 -4 -100 -4q-118 0 -170 10q-8 8 -12 16zM297 367h1q14 0 23.5 -11t9.5 -26q0 -17 -11 -28.5t-27 -11.5
q-15 0 -25 10t-10 27q0 15 11 27.5t28 12.5z" />
    <glyph glyph-name="ldot" unicode="&#x140;" horiz-adv-x="206" 
d="M173 635l-87 -594q-5 -36 -17 -41q-16 -6 -39 -8q40 228 80 525q13 91 19 153q26 10 43 10q8 0 1 -45zM204 308h1q12 0 20 -7.5t9 -22.5q1 -18 -10 -26.5t-23 -8.5q-27 0 -29 28q0 14 6 23t12.5 11.5t13.5 2.5z" />
    <glyph glyph-name="Lslash" unicode="&#x141;" horiz-adv-x="419" 
d="M72 4l-12 16l35 255l-66 -31q-16 -7 -18 1q0 28 10 36l81 41l22 169q14 104 14 131q32 6 42 6q4 0 6 -1.5t3 -8t0 -17.5t-4 -31l-30 -225l108 54q15 6 15 -6q1 -15 -12 -38l-117 -58l-35 -255q27 -9 122 -9q108 0 140 6v-2q-3 -12 -12.5 -24t-22.5 -15q-23 -4 -100 -4
q-115 0 -169 10z" />
    <glyph glyph-name="lslash" unicode="&#x142;" horiz-adv-x="220" 
d="M223 411l-72 -43l-28.5 -194t-17.5 -124q-5 -40 -19 -47q-17 -10 -38 -11q28 168 52 352l-51 -27q-16 -9 -20 2q2 28 19 39l60 33q32 218 39 279q22 10 40 10q10 0 3 -45q-1 -3 -32 -218l66 37q14 10 14 -2q-1 -23 -15 -41z" />
    <glyph glyph-name="Nacute" unicode="&#x143;" horiz-adv-x="618" 
d="M505 320l39 282q2 21 19 23q24 3 30 3q-63 -415 -88 -630q-11 -11 -25 -11q-6 0 -16 17l-226 381l-78 136l-30 -234l-36 -263q-3 -23 -18 -27q-15 -3 -34 -3l83 563q3 16 -4 27l-20 33v5q22 6 38 6q7 0 18 -15q11 -17 41.5 -68l82 -138.5l82.5 -138.5q93 -155 112 -192
q15 133 30 244zM444 769q8 -4 18.5 -14t14.5 -18q4 -11 -11 -16q-89 -25 -155 -56q-8 5 -12 15q-5 11 7 18q26 18 74.5 43.5t63.5 27.5z" />
    <glyph glyph-name="nacute" unicode="&#x144;" horiz-adv-x="486" 
d="M120 248h3q46 88 109 143t118 55q18 0 30.5 -5t25.5 -21.5t14 -48.5t-5 -86q-3 -17 -10.5 -63.5l-13.5 -83.5q-17 -118 -17 -139q-22 -11 -47 -11q-2 3 -2 15t4 47t12 82q1 8 11.5 68t15.5 100q9 43 1 72.5t-38 29.5q-27 0 -61.5 -24t-70 -67t-66 -115t-44.5 -158
q-4 -19 -7.5 -26t-11.5 -11q-14 -8 -37 -9q20 109 41 256q21 148 18 186q16 12 44 12q2 0 2.5 -12.5t-2 -47.5t-9.5 -87q-1 -13 -7 -51zM336 674h1q18 0 32 -18q7 -8 -4 -19q-33 -37 -99 -134q-7 3 -18 16q-5 5 5 26q19 38 47.5 83.5t35.5 45.5z" />
    <glyph glyph-name="Ncommaaccent" unicode="&#x145;" horiz-adv-x="618" 
d="M505 320l39 282q2 21 19 23q24 3 30 3q-63 -415 -88 -630q-11 -11 -25 -11q-6 0 -16 17l-226 381l-78 136l-30 -234l-36 -263q-3 -23 -18 -27q-15 -3 -34 -3l83 563q3 16 -4 27l-20 33v5q22 6 38 6q7 0 18 -15q11 -17 41.5 -68l82 -138.5l82.5 -138.5q93 -155 112 -192
q15 133 30 244zM301 -34h1q14 0 14 -30q0 -39 -30.5 -88t-65.5 -71q-13 -6 -36 -5q63 72 71 141q1 7 1 35q25 18 45 18z" />
    <glyph glyph-name="ncommaaccent" unicode="&#x146;" horiz-adv-x="486" 
d="M120 248h3q46 88 109 143t118 55q18 0 30.5 -5t25.5 -21.5t14 -48.5t-5 -86q-3 -17 -10.5 -63.5l-13.5 -83.5q-17 -118 -17 -139q-22 -11 -47 -11q-2 3 -2 15t4 47t12 82q1 8 11.5 68t15.5 100q9 43 1 72.5t-38 29.5q-27 0 -61.5 -24t-70 -67t-66 -115t-44.5 -158
q-4 -19 -7.5 -26t-11.5 -11q-14 -8 -37 -9q20 109 41 256q21 148 18 186q16 12 44 12q2 0 2.5 -12.5t-2 -47.5t-9.5 -87q-1 -13 -7 -51zM215 -34h1q14 0 14 -30q0 -39 -30.5 -88t-65.5 -71q-13 -6 -36 -5q63 72 71 141q1 7 1 35q25 18 45 18z" />
    <glyph glyph-name="Ncaron" unicode="&#x147;" horiz-adv-x="618" 
d="M505 320l39 282q2 21 19 23q24 3 30 3q-63 -415 -88 -630q-11 -11 -25 -11q-6 0 -16 17l-226 381l-78 136l-30 -234l-36 -263q-3 -23 -18 -27q-15 -3 -34 -3l83 563q3 16 -4 27l-20 33v5q22 6 38 6q7 0 18 -15q11 -17 41.5 -68l82 -138.5l82.5 -138.5q93 -155 112 -192
q15 133 30 244zM452 781h1q13 0 24 -11q-82 -72 -101 -93q-2 -1 -6.5 -4t-6.5 -4q-8 -4 -16 -4q-34 53 -85 100q8 16 24 16q15 0 19 -5q22 -19 57 -59q38 35 70 58q11 6 20 6z" />
    <glyph glyph-name="ncaron" unicode="&#x148;" horiz-adv-x="486" 
d="M120 248h3q46 88 109 143t118 55q18 0 30.5 -5t25.5 -21.5t14 -48.5t-5 -86q-3 -17 -10.5 -63.5l-13.5 -83.5q-17 -118 -17 -139q-22 -11 -47 -11q-2 3 -2 15t4 47t12 82q1 8 11.5 68t15.5 100q9 43 1 72.5t-38 29.5q-27 0 -61.5 -24t-70 -67t-66 -115t-44.5 -158
q-4 -19 -7.5 -26t-11.5 -11q-14 -8 -37 -9q20 109 41 256q21 148 18 186q16 12 44 12q2 0 2.5 -12.5t-2 -47.5t-9.5 -87q-1 -13 -7 -51zM351 672h1q7 0 15.5 -4t10.5 -10l-37.5 -59t-46.5 -76q-9 -13 -19 -16q-14 -4 -18 -4q-18 46 -68 156q16 13 28 13q7 0 12 -10l20 -45.5
l25 -57.5q30 51 67 106q4 7 10 7z" />
    <glyph glyph-name="napostrophe" unicode="&#x149;" horiz-adv-x="486" 
d="M120 248h3q46 88 109 143t118 55q18 0 30.5 -5t25.5 -21.5t14 -48.5t-5 -86q-3 -17 -10.5 -63.5l-13.5 -83.5q-17 -118 -17 -139q-22 -11 -47 -11q-2 3 -2 15t4 47t12 82q1 8 11.5 68t15.5 100q9 43 1 72.5t-38 29.5q-27 0 -61.5 -24t-70 -67t-66 -115t-44.5 -158
q-4 -19 -7.5 -26t-11.5 -11q-14 -8 -37 -9q20 109 41 256q21 148 18 186q16 12 44 12q2 0 2.5 -12.5t-2 -47.5t-9.5 -87q-1 -13 -7 -51zM15 471l-2 3q20 36 36.5 87t17.5 85q21 19 39 19q11 0 11 -15q0 -32 -20.5 -82.5t-44.5 -81.5q-12 -15 -37 -15z" />
    <glyph glyph-name="Eng" unicode="&#x14a;" horiz-adv-x="618" 
d="M320 -154l2 3q27 -6 30 -6q48 0 74 37t38 124l-225 381l-79 136l-30 -234l-36 -263q-3 -23 -18 -27q-15 -3 -34 -3l83 563q3 16 -4 27l-18 31v7q22 6 36 6q7 0 17 -15q8 -11 207 -345q93 -155 112 -192q15 133 30 244l39 282q2 21 19 23q24 3 30 3q-3 -20 -18 -129
l-35 -254.5l-29 -213.5q-7 -52 -15.5 -87t-25 -69t-45 -51t-69.5 -17q-23 0 -32 11t-4 28z" />
    <glyph glyph-name="eng" unicode="&#x14b;" horiz-adv-x="485" 
d="M119 247h3q47 89 109.5 144t124.5 55q84 0 60 -160q-11 -75 -40 -258q-7 -49 -13 -78t-18 -65.5t-28 -56.5t-43 -34t-62 -14q-28 0 -48.5 11t-20.5 21q-2 18 13 24q30 -18 59 -18q48 0 69.5 39t40.5 150q36 231 44 293q6 50 -1 76t-34 26q-68 0 -144.5 -103.5
t-101.5 -260.5q-6 -30 -20 -37q-14 -8 -36 -9q20 109 41 256q21 148 18 186q16 12 45 12q2 0 2.5 -12.5t-2.5 -48t-9 -86.5z" />
    <glyph glyph-name="Omacron" unicode="&#x14c;" horiz-adv-x="618" 
d="M354 640h1q77 0 130.5 -39t77 -99t23.5 -135q0 -56 -11.5 -110t-36 -103.5t-60 -87t-88 -59.5t-114.5 -22q-108 0 -170 74t-62 200q0 95 35 180.5t107.5 143t167.5 57.5zM346 603h-1q-106 0 -175 -104.5t-69 -243.5q0 -101 47.5 -167t136.5 -66q80 0 137.5 53.5t82 129.5
t24.5 161q0 101 -43.5 169t-139.5 68zM447 695h-168q-11 0 -13 11q0 16 13 29h172q11 0 11 -6q0 -5 -5 -17t-10 -17z" />
    <glyph glyph-name="omacron" unicode="&#x14d;" horiz-adv-x="446" 
d="M258 446h1q72 0 106 -46t34 -121q0 -121 -66 -206t-161 -85q-144 0 -144 167q0 66 25.5 131t80 112.5t124.5 47.5zM252 409h-1q-67 0 -117.5 -76.5t-50.5 -181.5q0 -67 27 -96.5t68 -29.5q63 0 114.5 71t51.5 190q0 51 -21.5 87t-70.5 36zM357 544h-169q-11 0 -11 10
q0 21 13 31h173q9 0 9 -6q0 -17 -15 -35z" />
    <glyph glyph-name="Obreve" unicode="&#x14e;" horiz-adv-x="618" 
d="M354 640h1q77 0 130.5 -39t77 -99t23.5 -135q0 -56 -11.5 -110t-36 -103.5t-60 -87t-88 -59.5t-114.5 -22q-108 0 -170 74t-62 200q0 95 35 180.5t107.5 143t167.5 57.5zM346 603h-1q-106 0 -175 -104.5t-69 -243.5q0 -101 47.5 -167t136.5 -66q80 0 137.5 53.5t82 129.5
t24.5 161q0 101 -43.5 169t-139.5 68zM300 797h1q8 0 8 -13q6 -31 18.5 -43t34.5 -12q24 0 40.5 11.5t33.5 44.5q8 12 15 12q8 0 17 -5t7 -12q-12 -47 -44.5 -72t-75.5 -25t-65.5 29.5t-17.5 64.5q3 20 28 20z" />
    <glyph glyph-name="obreve" unicode="&#x14f;" horiz-adv-x="446" 
d="M258 446h1q72 0 106 -46t34 -121q0 -121 -66 -206t-161 -85q-144 0 -144 167q0 66 25.5 131t80 112.5t124.5 47.5zM252 409h-1q-67 0 -117.5 -76.5t-50.5 -181.5q0 -67 27 -96.5t68 -29.5q63 0 114.5 71t51.5 190q0 51 -21.5 87t-70.5 36zM218 641h1q6 0 6 -8
q0 -75 41 -75q24 0 41 16t30 60q3 7 10 7q8 0 16.5 -5t7.5 -12q-20 -108 -109 -108q-36 0 -57 28.5t-17 74.5q3 22 30 22z" />
    <glyph glyph-name="Ohungarumlaut" unicode="&#x150;" horiz-adv-x="618" 
d="M354 640h1q77 0 130.5 -39t77 -99t23.5 -135q0 -56 -11.5 -110t-36 -103.5t-60 -87t-88 -59.5t-114.5 -22q-108 0 -170 74t-62 200q0 95 35 180.5t107.5 143t167.5 57.5zM346 603h-1q-106 0 -175 -104.5t-69 -243.5q0 -101 47.5 -167t136.5 -66q80 0 137.5 53.5t82 129.5
t24.5 161q0 101 -43.5 169t-139.5 68zM322 812h1q12 0 32 -20q13 -13 -2 -24q-22 -21 -68 -91q-6 -7 -11 -7q-7 0 -21 17q13 36 35.5 80.5t33.5 44.5zM473 812h1q15 0 35 -22q9 -10 -2 -22q-25 -25 -69 -91q-4 -7 -11 -7q-9 0 -20 17q45 125 66 125z" />
    <glyph glyph-name="ohungarumlaut" unicode="&#x151;" horiz-adv-x="446" 
d="M258 446h1q72 0 106 -46t34 -121q0 -121 -66 -206t-161 -85q-144 0 -144 167q0 66 25.5 131t80 112.5t124.5 47.5zM252 409h-1q-67 0 -117.5 -76.5t-50.5 -181.5q0 -67 27 -96.5t68 -29.5q63 0 114.5 71t51.5 190q0 51 -21.5 87t-70.5 36zM198 503q-14 0 -22 15
q-4 8 2 24q18 46 41.5 91t31.5 45q15 0 31 -21q6 -9 -1 -19q-38 -52 -83 -135zM324 503q-10 3 -19 12q-6 11 -2 22q56 141 73 141q19 0 31 -21q8 -8 1 -17q-51 -73 -84 -137z" />
    <glyph glyph-name="OE" unicode="&#x152;" horiz-adv-x="825" 
d="M557 341h224q-10 -26 -22 -32.5t-47 -6.5h-159l-30 -260q28 -9 124 -9q110 0 151 6v-2q-2 -11 -11.5 -23.5t-23.5 -15.5q-23 -4 -105 -4q-128 0 -176 10l-12 20l8 57q-78 -96 -211 -96q-113 0 -168 78t-55 202q0 154 91 264.5t222 110.5q41 0 74.5 -10t53.5 -26.5
t30.5 -30t17.5 -28.5l7 68q7 6 39 12h226q2 -20 -13 -29q-14 -10 -66 -10h-138zM282 22h1q78 0 132 43.5t69 101.5q5 19 18 123l5 46q16 125 10 151q-7 42 -47 79t-108 37q-116 0 -189 -101.5t-73 -231.5q0 -49 9 -90.5t28.5 -78.5t56.5 -58t88 -21z" />
    <glyph glyph-name="oe" unicode="&#x153;" horiz-adv-x="690" 
d="M565 446h1q41 0 67.5 -23t26.5 -61q0 -46 -30 -80.5t-77.5 -52t-87.5 -25.5t-79 -10q-3 -16 -1 -49q2 -52 26 -84t63 -32q49 0 84.5 20t71.5 60q7 -4 7 -20q0 -21 -14 -33q-67 -68 -162 -68q-46 0 -77.5 29t-38.5 79q-61 -108 -172 -108q-145 0 -145 176q0 106 64 194
t164 88q51 0 85 -31t44 -91q26 47 74.5 84.5t105.5 37.5zM554 408h-1q-52 0 -97.5 -53t-62.5 -123q122 8 169.5 44t47.5 81q0 25 -15 38t-41 13zM249 409h-1q-69 0 -117 -75.5t-48 -169.5q0 -139 98 -139q58 0 110 66t52 175q0 34 -6 63t-28.5 54.5t-59.5 25.5z" />
    <glyph glyph-name="Racute" unicode="&#x154;" horiz-adv-x="497" 
d="M87 577l-2 3q3 15 19 31q51 19 127 19q89 0 137.5 -44t48.5 -120q0 -67 -41.5 -116.5t-109.5 -70.5q14 -14 86 -133t98 -145v-2q-12 -7 -37 -7q-26 0 -54 45l-103 169q-25 42 -40 51.5t-50 7.5q-9 -1 -32 -1l-36 -240q-4 -26 -21 -29q-18 -1 -37 -1q37 208 89 592
q-8 -1 -16 -2.5t-15.5 -3.5t-10.5 -3zM180 590l-40 -289q99 0 147 24q36 18 57 53.5t21 82.5q0 60 -37.5 95.5t-110.5 35.5q-19 0 -37 -2zM344 769q8 -4 18.5 -14t14.5 -18q4 -11 -11 -16q-89 -25 -155 -56q-8 5 -12 15q-5 11 7 18q26 18 74.5 43.5t63.5 27.5z" />
    <glyph glyph-name="racute" unicode="&#x155;" horiz-adv-x="313" 
d="M121 270h2q38 81 82.5 128.5t81.5 47.5q24 0 33 -16q1 -16 -18 -38q-14 8 -27 8q-9 0 -23.5 -8.5t-37 -33.5t-44.5 -62.5t-44.5 -104t-37.5 -149.5q-7 -37 -20 -42q-14 -6 -38 -8q20 94 48 291q15 105 6 151q14 12 41 12q3 0 5 -15t0.5 -57.5t-9.5 -103.5zM256 674h1
q18 0 32 -18q7 -8 -4 -19q-33 -37 -99 -134q-7 3 -18 16q-5 5 5 26q19 38 47.5 83.5t35.5 45.5z" />
    <glyph glyph-name="Rcommaaccent" unicode="&#x156;" horiz-adv-x="497" 
d="M87 577l-2 3q3 15 19 31q51 19 127 19q89 0 137.5 -44t48.5 -120q0 -67 -41.5 -116.5t-109.5 -70.5q14 -14 86 -133t98 -145v-2q-12 -7 -37 -7q-26 0 -54 45l-103 169q-25 42 -40 51.5t-50 7.5q-9 -1 -32 -1l-36 -240q-4 -26 -21 -29q-18 -1 -37 -1q37 208 89 592
q-8 -1 -16 -2.5t-15.5 -3.5t-10.5 -3zM180 590l-40 -289q99 0 147 24q36 18 57 53.5t21 82.5q0 60 -37.5 95.5t-110.5 35.5q-19 0 -37 -2zM241 -34h1q14 0 14 -30q0 -39 -30.5 -88t-65.5 -71q-13 -6 -36 -5q63 72 71 141q1 7 1 35q25 18 45 18z" />
    <glyph glyph-name="rcommaaccent" unicode="&#x157;" horiz-adv-x="313" 
d="M121 270h2q38 81 82.5 128.5t81.5 47.5q24 0 33 -16q1 -16 -18 -38q-14 8 -27 8q-9 0 -23.5 -8.5t-37 -33.5t-44.5 -62.5t-44.5 -104t-37.5 -149.5q-7 -37 -20 -42q-14 -6 -38 -8q20 94 48 291q15 105 6 151q14 12 41 12q3 0 5 -15t0.5 -57.5t-9.5 -103.5zM55 -34h1
q14 0 14 -30q0 -39 -30.5 -88t-65.5 -71q-13 -6 -36 -5q63 72 71 141q1 7 1 35q25 18 45 18z" />
    <glyph glyph-name="Rcaron" unicode="&#x158;" horiz-adv-x="497" 
d="M87 577l-2 3q3 15 19 31q51 19 127 19q89 0 137.5 -44t48.5 -120q0 -67 -41.5 -116.5t-109.5 -70.5q14 -14 86 -133t98 -145v-2q-12 -7 -37 -7q-26 0 -54 45l-103 169q-25 42 -40 51.5t-50 7.5q-9 -1 -32 -1l-36 -240q-4 -26 -21 -29q-18 -1 -37 -1q37 208 89 592
q-8 -1 -16 -2.5t-15.5 -3.5t-10.5 -3zM180 590l-40 -289q99 0 147 24q36 18 57 53.5t21 82.5q0 60 -37.5 95.5t-110.5 35.5q-19 0 -37 -2zM354 781h1q13 0 24 -11q-82 -72 -101 -93q-2 -1 -6.5 -4t-6.5 -4q-8 -4 -16 -4q-34 53 -85 100q8 16 24 16q15 0 19 -5q22 -19 57 -59
q38 35 70 58q11 6 20 6z" />
    <glyph glyph-name="rcaron" unicode="&#x159;" horiz-adv-x="313" 
d="M121 270h2q38 81 82.5 128.5t81.5 47.5q24 0 33 -16q1 -16 -18 -38q-14 8 -27 8q-9 0 -23.5 -8.5t-37 -33.5t-44.5 -62.5t-44.5 -104t-37.5 -149.5q-7 -37 -20 -42q-14 -6 -38 -8q20 94 48 291q15 105 6 151q14 12 41 12q3 0 5 -15t0.5 -57.5t-9.5 -103.5zM269 672h1
q7 0 15.5 -4t10.5 -10l-37.5 -59t-46.5 -76q-9 -13 -19 -16q-14 -4 -18 -4q-18 46 -68 156q16 13 28 13q7 0 12 -10l20 -45.5l25 -57.5q30 51 67 106q4 7 10 7z" />
    <glyph glyph-name="Sacute" unicode="&#x15a;" horiz-adv-x="409" 
d="M245 640h1q34 0 70.5 -13t49.5 -31q-2 -12 -11.5 -21t-19.5 -3q-47 28 -94 28q-56 0 -89 -29.5t-33 -84.5q0 -43 26.5 -76.5t92.5 -83.5q61 -45 89.5 -82.5t28.5 -87.5q0 -79 -53 -125t-140 -46q-88 0 -139 51q-14 13 -14 22q-1 6 3.5 15t12.5 14q64 -61 145 -61
q57 0 95.5 30.5t38.5 92.5q0 37 -27 72.5t-95 85.5q-62 44 -87.5 84t-25.5 87q0 73 49.5 117.5t125.5 44.5zM324 774q8 -4 18.5 -14t14.5 -18q4 -11 -11 -16q-89 -25 -155 -56q-8 5 -12 15q-5 11 7 18q26 18 74.5 43.5t63.5 27.5z" />
    <glyph glyph-name="sacute" unicode="&#x15b;" horiz-adv-x="331" 
d="M200 446h1q22 0 49 -10t38 -24q-8 -33 -31 -23q-41 18 -66 18q-36 0 -60.5 -22t-24.5 -57q0 -26 15.5 -44.5t67.5 -53.5q51 -33 66 -57t15 -56q0 -55 -41.5 -92t-104.5 -37q-77 0 -107 38q-9 13 6 40q51 -39 103 -39q47 0 71 22.5t24 57.5q0 26 -15 45.5t-68 54.5
q-46 29 -62.5 53.5t-16.5 58.5q0 54 41 90.5t100 36.5zM255 674h1q18 0 32 -18q8 -8 -4 -19q-33 -37 -99 -134q-7 3 -18 16q-5 5 5 26q19 38 47.5 83.5t35.5 45.5z" />
    <glyph glyph-name="Scircumflex" unicode="&#x15c;" horiz-adv-x="409" 
d="M245 640h1q34 0 70.5 -13t49.5 -31q-2 -12 -11.5 -21t-19.5 -3q-47 28 -94 28q-56 0 -89 -29.5t-33 -84.5q0 -43 26.5 -76.5t92.5 -83.5q61 -45 89.5 -82.5t28.5 -87.5q0 -79 -53 -125t-140 -46q-88 0 -139 51q-14 13 -14 22q-1 6 3.5 15t12.5 14q64 -61 145 -61
q57 0 95.5 30.5t38.5 92.5q0 37 -27 72.5t-95 85.5q-62 44 -87.5 84t-25.5 87q0 73 49.5 117.5t125.5 44.5zM151 674h-1q-12 0 -23 11q56 48 101 93q6 5 13 10q9 2 15 2q32 -48 87 -100q-11 -16 -26 -16q-13 0 -17 6q-12 9 -58 59q-45 -42 -71 -58q-16 -7 -20 -7z" />
    <glyph glyph-name="scircumflex" unicode="&#x15d;" horiz-adv-x="331" 
d="M200 446h1q22 0 49 -10t38 -24q-8 -33 -31 -23q-41 18 -66 18q-36 0 -60.5 -22t-24.5 -57q0 -26 15.5 -44.5t67.5 -53.5q51 -33 66 -57t15 -56q0 -55 -41.5 -92t-104.5 -37q-77 0 -107 38q-9 13 6 40q51 -39 103 -39q47 0 71 22.5t24 57.5q0 26 -15 45.5t-68 54.5
q-46 29 -62.5 53.5t-16.5 58.5q0 54 41 90.5t100 36.5zM126 495h-1q-6 0 -15 4.5t-11 9.5l39.5 62t44.5 73q8 13 18 16q16 4 19 4l68 -156q-16 -13 -27 -13q-7 0 -12 10q-4 7 -47 104l-68 -110q-4 -4 -8 -4z" />
    <glyph glyph-name="Scedilla" unicode="&#x15e;" horiz-adv-x="409" 
d="M99 -85l51 71q-79 4 -126 51q-14 13 -14 22q-1 6 3.5 15t12.5 14q64 -61 145 -61q57 0 95.5 30.5t38.5 92.5q0 37 -27 72t-95 86q-61 45 -87 85t-26 86q0 73 50 117t128 44q31 0 68 -13t50 -31q-2 -15 -10.5 -22.5t-20.5 -0.5q-47 28 -94 28q-56 0 -89 -29.5t-33 -85.5
q0 -43 27 -77t92 -83q61 -45 89.5 -82t28.5 -87q0 -71 -44.5 -116.5t-117.5 -53.5l-30 -40q57 -20 59 -69q0 -29 -20 -50.5t-45.5 -30.5t-53.5 -12q-7 1 -12.5 10t-4.5 15q0 5 10 8q80 17 78 54q0 39 -76 41v2z" />
    <glyph glyph-name="scedilla" unicode="&#x15f;" horiz-adv-x="331" 
d="M63 -85l54 73q-67 3 -98 38q-11 19 5 40q51 -39 103 -39q47 0 70.5 22.5t23.5 56.5q0 26 -15 46t-69 55q-45 30 -61.5 54.5t-16.5 58.5q0 54 40.5 90t99.5 36q23 0 50.5 -10t38.5 -24q-3 -14 -11 -21.5t-20 -1.5q-39 18 -67 18q-36 0 -60 -22t-24 -57q0 -26 15 -44.5
t68 -52.5q50 -33 65.5 -58.5t15.5 -57.5q0 -46 -30.5 -79.5t-74.5 -42.5l-34 -47q59 -21 59 -69q0 -42 -37 -65t-82 -28q-7 1 -12.5 10t-4.5 15q0 6 10 9q78 15 78 54q0 21 -23.5 30.5t-55.5 9.5v3z" />
    <glyph glyph-name="Scaron" unicode="&#x160;" horiz-adv-x="409" 
d="M245 640h1q34 0 70.5 -13t49.5 -31q-2 -12 -11.5 -21t-19.5 -3q-47 28 -94 28q-56 0 -89 -29.5t-33 -84.5q0 -43 26.5 -76.5t92.5 -83.5q61 -45 89.5 -82.5t28.5 -87.5q0 -79 -53 -125t-140 -46q-88 0 -139 51q-14 13 -14 22q-1 6 3.5 15t12.5 14q64 -61 145 -61
q57 0 95.5 30.5t38.5 92.5q0 37 -27 72.5t-95 85.5q-62 44 -87.5 84t-25.5 87q0 73 49.5 117.5t125.5 44.5zM337 789h1q13 0 24 -11q-82 -72 -101 -93q-2 -1 -6.5 -4t-6.5 -4q-8 -4 -16 -4q-34 53 -85 100q8 16 24 16q15 0 19 -5q22 -19 57 -59q38 35 70 58q11 6 20 6z" />
    <glyph glyph-name="scaron" unicode="&#x161;" horiz-adv-x="331" 
d="M200 446h1q22 0 49 -10t38 -24q-8 -33 -31 -23q-41 18 -66 18q-36 0 -60.5 -22t-24.5 -57q0 -26 15.5 -44.5t67.5 -53.5q51 -33 66 -57t15 -56q0 -55 -41.5 -92t-104.5 -37q-77 0 -107 38q-9 13 6 40q51 -39 103 -39q47 0 71 22.5t24 57.5q0 26 -15 45.5t-68 54.5
q-46 29 -62.5 53.5t-16.5 58.5q0 54 41 90.5t100 36.5zM281 672h1q7 0 15.5 -4t10.5 -10l-37.5 -59t-46.5 -76q-9 -13 -19 -16q-14 -4 -18 -4q-18 46 -68 156q16 13 28 13q7 0 12 -10l20 -45.5l25 -57.5q30 51 67 106q4 7 10 7z" />
    <glyph glyph-name="Tcommaaccent" unicode="&#x162;" horiz-adv-x="509" 
d="M189 11l78 575h-186q-27 0 -25 14q7 23 20 30q20 -5 143 -5h329q-5 -40 -48 -39h-181l-63 -463q-13 -98 -14 -124q-16 -5 -45 -5q-8 0 -8 17zM227 -34h1q14 0 14 -30q0 -39 -30.5 -88t-65.5 -71q-13 -6 -36 -5q63 72 71 141q1 7 1 35q25 18 45 18z" />
    <glyph glyph-name="tcommaaccent" unicode="&#x163;" horiz-adv-x="294" 
d="M243 100h2q15 -28 -11 -58q-48 -54 -107 -54q-40 0 -57 32t-5 114q9 67 40 253h-69q0 12 8 24.5t18 12.5h49q3 14 6 32t5 29t4.5 22.5t4.5 18t4 8.5q22 22 46 22l-23 -132q110 0 136 4q-6 -22 -25 -33q-12 -8 -117 -8q-30 -179 -40 -263q-6 -51 1 -72t30 -21q48 0 100 69
zM139 -39h1q14 0 14 -30q0 -39 -30.5 -88t-65.5 -71q-13 -6 -36 -5q63 72 71 141q1 7 1 35q25 18 45 18z" />
    <glyph glyph-name="Tcaron" unicode="&#x164;" horiz-adv-x="509" 
d="M189 11l78 575h-186q-27 0 -25 14q7 23 20 30q20 -5 143 -5h329q-5 -40 -48 -39h-181l-63 -463q-13 -98 -14 -124q-16 -5 -45 -5q-8 0 -8 17zM403 781h1q13 0 24 -11q-82 -72 -101 -93q-2 -1 -6.5 -4t-6.5 -4q-8 -4 -16 -4q-34 53 -85 100q8 16 24 16q15 0 19 -5
q22 -19 57 -59q38 35 70 58q11 6 20 6z" />
    <glyph glyph-name="tcaron" unicode="&#x165;" horiz-adv-x="294" 
d="M243 100h2q15 -28 -11 -58q-48 -54 -107 -54q-40 0 -57 32t-5 114q9 67 40 253h-69q0 12 8 24.5t18 12.5h49q3 14 6 32t5 29t4.5 22.5t4.5 18t4 8.5q22 22 46 22l-23 -132q110 0 136 4q-6 -22 -25 -33q-12 -8 -117 -8q-30 -179 -40 -263q-6 -51 1 -72t30 -21q48 0 100 69
zM339 686h1q14 0 14 -30q0 -39 -30.5 -88t-65.5 -71q-13 -6 -36 -5q63 72 71 141q1 7 1 35q25 18 45 18z" />
    <glyph glyph-name="Tbar" unicode="&#x166;" horiz-adv-x="509" 
d="M229 306h-99q5 37 42 37h62l33 243h-186q-15 0 -21 4.5t-4 11.5q12 23 20 28q20 -5 143 -5h329q-5 -40 -48 -39h-181l-33 -243h112q-1 -23 -13.5 -30t-41.5 -7h-62l-25 -183q-13 -98 -14 -124q-16 -5 -45 -5q-8 0 -8 17z" />
    <glyph glyph-name="tbar" unicode="&#x167;" horiz-adv-x="291" 
d="M243 100h2q16 -28 -11 -58q-52 -54 -108 -54q-40 0 -56.5 32.5t-4.5 114.5l13 92h-61q4 37 42 37h26q3 20 10.5 65t9.5 58h-69q0 12 8 24.5t18 12.5h49q3 14 6 32t5 29t4.5 22.5t4.5 18t4 8.5q22 22 46 22l-23 -132q110 0 136 4q-6 -22 -25 -33q-12 -8 -117 -8
q-11 -62 -20 -123h103q-1 -24 -13.5 -30.5t-41.5 -6.5h-54q-8 -52 -14 -102q-6 -52 -0.5 -73t27.5 -21q52 0 104 69z" />
    <glyph glyph-name="Utilde" unicode="&#x168;" horiz-adv-x="620" 
d="M164 568l-33 -258q-37 -285 159 -285q44 0 74.5 10.5t60 42.5t50.5 98t34 169l33 250q4 28 17 31q26 2 33 2l-10 -81t-16 -121l-18 -126q-24 -173 -88.5 -244t-175.5 -71q-120 0 -173 78t-31 253l22 173q5 38 11.5 80.5t7.5 50.5q19 8 39 8q7 0 7.5 -11t-3.5 -49z
M330 770h1q31 0 60 -35q24 -29 32 -29q16 0 23 53q2 11 10 11q13 0 24 -16q-3 -40 -18 -64.5t-40 -24.5q-6 0 -11.5 2t-9 3.5t-9.5 7t-8.5 8l-10 10.5l-10.5 11q-20 23 -33 23q-16 0 -28 -49q-2 -11 -8 -11t-27 8q10 92 63 92z" />
    <glyph glyph-name="utilde" unicode="&#x169;" horiz-adv-x="478" 
d="M342 156l-2 1q-88 -169 -210 -169q-51 0 -67.5 45.5t-4.5 117.5q10 64 24 139q12 75 19 143q24 13 44 13q8 0 4 -32q-31 -186 -45 -282q-8 -53 5.5 -77t39.5 -24q24 0 53.5 17t63.5 54t64 110.5t47 171.5q7 46 20 53q19 9 38 9q-33 -153 -50 -307q-12 -89 -9 -140
q-24 -11 -42 -11q-3 0 -3.5 19t2.5 59t9 90zM244 625h1q27 0 57 -34q22 -27 30 -27q16 0 21 50q3 11 11 11q13 0 24 -15q-2 -40 -16.5 -64t-39.5 -24q-6 0 -11 1.5t-9 3.5t-9.5 7t-8.5 7.5t-10 10.5t-10 11q-19 22 -30 22q-17 0 -27 -47q-2 -10 -8 -10t-27 8q3 35 17.5 62
t44.5 27z" />
    <glyph glyph-name="Umacron" unicode="&#x16a;" horiz-adv-x="620" 
d="M164 568l-33 -258q-37 -285 159 -285q44 0 74.5 10.5t60 42.5t50.5 98t34 169l33 250q4 28 17 31q26 2 33 2l-10 -81t-16 -121l-18 -126q-24 -173 -88.5 -244t-175.5 -71q-120 0 -173 78t-31 253l22 173q5 38 11.5 80.5t7.5 50.5q19 8 39 8q7 0 7.5 -11t-3.5 -49z
M447 670h-168q-11 0 -13 11q0 16 13 29h172q11 0 11 -6q0 -5 -5 -17t-10 -17z" />
    <glyph glyph-name="umacron" unicode="&#x16b;" horiz-adv-x="478" 
d="M342 156l-2 1q-88 -169 -210 -169q-51 0 -67.5 45.5t-4.5 117.5q10 64 24 139q12 75 19 143q24 13 44 13q8 0 4 -32q-31 -186 -45 -282q-8 -53 5.5 -77t39.5 -24q24 0 53.5 17t63.5 54t64 110.5t47 171.5q7 46 20 53q19 9 38 9q-33 -153 -50 -307q-12 -89 -9 -140
q-24 -11 -42 -11q-3 0 -3.5 19t2.5 59t9 90zM368 544h-169q-11 0 -11 10q0 21 13 31h173q9 0 9 -6q0 -17 -15 -35z" />
    <glyph glyph-name="Ubreve" unicode="&#x16c;" horiz-adv-x="620" 
d="M164 568l-33 -258q-37 -285 159 -285q44 0 74.5 10.5t60 42.5t50.5 98t34 169l33 250q4 28 17 31q26 2 33 2l-10 -81t-16 -121l-18 -126q-24 -173 -88.5 -244t-175.5 -71q-120 0 -173 78t-31 253l22 173q5 38 11.5 80.5t7.5 50.5q19 8 39 8q7 0 7.5 -11t-3.5 -49z
M296 779h1q8 0 8 -13q6 -31 18.5 -43t34.5 -12q24 0 40.5 11.5t33.5 44.5q8 12 15 12q8 0 17 -5t7 -12q-12 -47 -44.5 -72t-75.5 -25t-65.5 29.5t-17.5 64.5q3 20 28 20z" />
    <glyph glyph-name="ubreve" unicode="&#x16d;" horiz-adv-x="478" 
d="M342 156l-2 1q-88 -169 -210 -169q-51 0 -67.5 45.5t-4.5 117.5q10 64 24 139q12 75 19 143q24 13 44 13q8 0 4 -32q-31 -186 -45 -282q-8 -53 5.5 -77t39.5 -24q24 0 53.5 17t63.5 54t64 110.5t47 171.5q7 46 20 53q19 9 38 9q-33 -153 -50 -307q-12 -89 -9 -140
q-24 -11 -42 -11q-3 0 -3.5 19t2.5 59t9 90zM227 641h1q6 0 6 -8q0 -75 41 -75q24 0 41 16t30 60q4 7 10 7q8 0 16.5 -5t7.5 -12q-20 -108 -109 -108q-36 0 -57 28.5t-17 74.5q3 22 30 22z" />
    <glyph glyph-name="Uring" unicode="&#x16e;" horiz-adv-x="620" 
d="M164 568l-33 -258q-37 -285 159 -285q44 0 74.5 10.5t60 42.5t50.5 98t34 169l33 250q4 28 17 31q26 2 33 2l-10 -81t-16 -121l-18 -126q-24 -173 -88.5 -244t-175.5 -71q-120 0 -173 78t-31 253l22 173q5 38 11.5 80.5t7.5 50.5q19 8 39 8q7 0 7.5 -11t-3.5 -49z
M370 824h1q34 0 54.5 -22t20.5 -57q0 -38 -25 -61.5t-64 -23.5q-33 0 -54 21t-21 58q0 36 25 60.5t63 24.5zM366 788h-1q-19 0 -30.5 -15.5t-11.5 -33.5q0 -44 39 -44q19 0 31 14t12 33q0 46 -39 46z" />
    <glyph glyph-name="uring" unicode="&#x16f;" horiz-adv-x="478" 
d="M342 156l-2 1q-88 -169 -210 -169q-51 0 -67.5 45.5t-4.5 117.5q10 64 24 139q12 75 19 143q24 13 44 13q8 0 4 -32q-31 -186 -45 -282q-8 -53 5.5 -77t39.5 -24q24 0 53.5 17t63.5 54t64 110.5t47 171.5q7 46 20 53q19 9 38 9q-33 -153 -50 -307q-12 -89 -9 -140
q-24 -11 -42 -11q-3 0 -3.5 19t2.5 59t9 90zM284 655h1q34 0 54 -21t20 -55q0 -37 -24.5 -60t-61.5 -23q-33 0 -53 20t-20 55t23.5 59.5t60.5 24.5zM282 621h-1q-18 0 -29.5 -15t-11.5 -32q0 -43 37 -43q19 0 30.5 13.5t11.5 31.5q0 45 -37 45z" />
    <glyph glyph-name="Uhungarumlaut" unicode="&#x170;" horiz-adv-x="620" 
d="M164 568l-33 -258q-37 -285 159 -285q44 0 74.5 10.5t60 42.5t50.5 98t34 169l33 250q4 28 17 31q26 2 33 2l-10 -81t-16 -121l-18 -126q-24 -173 -88.5 -244t-175.5 -71q-120 0 -173 78t-31 253l22 173q5 38 11.5 80.5t7.5 50.5q19 8 39 8q7 0 7.5 -11t-3.5 -49z
M331 807h1q12 0 32 -20q13 -13 -2 -24q-22 -21 -68 -91q-6 -7 -11 -7q-7 0 -21 17q13 36 35.5 80.5t33.5 44.5zM482 807h1q15 0 35 -22q9 -10 -2 -22q-25 -25 -69 -91q-4 -7 -11 -7q-9 0 -20 17q45 125 66 125z" />
    <glyph glyph-name="uhungarumlaut" unicode="&#x171;" horiz-adv-x="478" 
d="M342 156l-2 1q-88 -169 -210 -169q-51 0 -67.5 45.5t-4.5 117.5q10 64 24 139q12 75 19 143q24 13 44 13q8 0 4 -32q-31 -186 -45 -282q-8 -53 5.5 -77t39.5 -24q24 0 53.5 17t63.5 54t64 110.5t47 171.5q7 46 20 53q19 9 38 9q-33 -153 -50 -307q-12 -89 -9 -140
q-24 -11 -42 -11q-3 0 -3.5 19t2.5 59t9 90zM222 503q-14 0 -22 15q-4 8 2 24q18 46 41.5 91t31.5 45q15 0 31 -21q6 -9 -1 -19q-38 -52 -83 -135zM348 503q-10 3 -19 12q-6 11 -2 22q56 141 73 141q19 0 31 -21q8 -8 1 -17q-51 -73 -84 -137z" />
    <glyph glyph-name="Uogonek" unicode="&#x172;" horiz-adv-x="620" 
d="M164 568l-33 -257q-37 -286 157 -286q35 0 60.5 6t52 25.5t45.5 54t35.5 93t27.5 141.5l33 250q4 28 17 31q26 2 33 2q-4 -22 -12.5 -89l-14.5 -113l-17 -125q-20 -142 -67 -214.5t-123 -92.5q-24 -7 -65.5 -44.5t-41.5 -86.5q0 -20 11 -30.5t28 -10.5q36 0 69 22l4 -3
q2 -22 -8 -38q-27 -32 -79 -32q-40 0 -60 21.5t-20 56.5t25 71.5t74 64.5q-76 -3 -126 24.5t-69 74.5t-25 107.5t5 124.5l22 173q5 38 11.5 80.5t7.5 50.5q19 8 39 8q7 0 7.5 -11t-3.5 -49z" />
    <glyph glyph-name="uogonek" unicode="&#x173;" horiz-adv-x="478" 
d="M376 -1q-36 -18 -66.5 -59.5t-30.5 -80.5q0 -21 11 -31.5t29 -10.5q40 0 72 23l3 -3q2 -26 -8 -39q-29 -34 -82 -34q-38 0 -60 23.5t-22 56.5q0 83 110 156q-2 6 -2 14q3 65 12 142l-2 1q-90 -169 -211 -169q-50 0 -66.5 45.5t-4.5 117.5q10 64 24 139q12 75 19 143
q24 13 44 13q8 0 4 -32q-31 -186 -45 -282q-8 -53 5.5 -77t38.5 -24q27 0 58 19t64.5 57.5t62.5 110.5t44 166q7 46 20 53q19 9 38 9q-33 -153 -50 -307q-12 -91 -9 -140z" />
    <glyph glyph-name="Wcircumflex" unicode="&#x174;" horiz-adv-x="846" 
d="M105 628h1q9 0 15 -40q7 -38 80 -519l235 532q2 3 2 14q21 13 34 13q8 0 12 -26l86 -531l256 557l27 -3q18 -5 11 -23l-269 -567q-14 -27 -28 -37q-18 -10 -30 -8l-86 552l-230 -521q-8 -16 -21 -24q-12 -9 -32 -9q-82 526 -103 631q18 9 40 9zM376 665h-1q-12 0 -23 11
q56 48 101 93q5 5 13 10q9 2 15 2q32 -48 87 -100q-11 -16 -26 -16q-12 0 -17 6q-12 9 -58 59q-45 -42 -71 -58q-16 -7 -20 -7z" />
    <glyph glyph-name="wcircumflex" unicode="&#x175;" horiz-adv-x="634" 
d="M353 416h1q8 0 8 -23q0 -64 10.5 -189.5t20.5 -149.5q59 63 116 161t57 185q0 17 -3 38q16 8 34 8q5 0 8.5 -17t3.5 -33q0 -66 -39.5 -149t-78.5 -135t-76 -91q-16 -16 -32 -25q-18 -9 -28 -9q-10 23 -21.5 135.5t-13.5 180.5q-32 -67 -88.5 -154t-95.5 -133
q-8 -10 -23 -19q-15 -8 -28 -9q-15 28 -17 148q-1 46 -0.5 151.5t0.5 146.5q30 12 41 12t10 -23q-6 -144 -4 -274q0 -68 7 -89q41 53 102 147t92 168v27q20 14 37 14zM280 503h-1q-6 0 -15 4.5t-11 9.5l39.5 62t44.5 73q8 13 18 16q16 4 19 4q10 -26 68 -156
q-16 -13 -27 -13q-7 0 -12 10q-4 7 -47 104l-68 -110q-4 -4 -8 -4z" />
    <glyph glyph-name="Ycircumflex" unicode="&#x176;" horiz-adv-x="526" 
d="M62 617l1 3q24 8 41 8q11 0 33 -44l59 -113l72 -140q24 26 127 158t109 139q15 -1 31 -7t-4 -29l-126 -153.5l-115 -143.5q-6 -7 -10 -34l-16 -137q-13 -109 -14 -124q-20 -6 -43 -6q-7 0 -8.5 3.5t-0.5 14.5l29 231q1 11 2 26.5t1 19.5q0 16 -12 38q-101 200 -156 290z
M216 665h-1q-12 0 -23 11q56 48 101 93q5 5 13 10q9 2 15 2q32 -48 87 -100q-11 -16 -26 -16q-12 0 -17 6q-12 9 -58 59q-45 -42 -71 -58q-16 -7 -20 -7z" />
    <glyph glyph-name="ycircumflex" unicode="&#x177;" horiz-adv-x="399" 
d="M-7 -225q-14 0 -27 9.5t-11 15.5q82 73 168 191q-11 24 -22 81q-38 202 -52 361q20 13 38 13q9 0 11 -18q16 -149 45 -322q9 -54 18 -69q84 118 128 225.5t47 176.5q14 7 33 7q8 0 8 -22q0 -55 -41 -158.5t-116 -217.5q-53 -80 -123 -162.5t-104 -110.5zM157 503h-1
q-6 0 -15 4.5t-11 9.5l39.5 62t44.5 73q8 13 18 16q16 4 19 4l68 -156q-16 -13 -27 -13q-7 0 -12 10q-4 7 -47 104l-68 -110q-4 -4 -8 -4z" />
    <glyph glyph-name="Ydieresis" unicode="&#x178;" horiz-adv-x="526" 
d="M62 617l1 3q24 8 41 8q11 0 33 -44l59 -113l72 -140q24 26 127 158t109 139q15 -1 31 -7t-4 -29l-126 -153.5l-115 -143.5q-6 -7 -10 -34l-16 -137q-13 -109 -14 -124q-20 -6 -43 -6q-7 0 -8.5 3.5t-0.5 14.5l29 231q1 11 2 26.5t1 19.5q0 16 -12 38q-101 200 -156 290z
M237 742h1q14 0 23.5 -11t9.5 -26q0 -17 -11 -28.5t-27 -11.5q-15 0 -25 10t-10 28q0 15 11 27t28 12zM390 742h1q14 0 24 -10.5t10 -25.5q0 -19 -10.5 -30t-27.5 -11q-15 0 -25 10t-10 27q0 15 11 27.5t27 12.5z" />
    <glyph glyph-name="Zacute" unicode="&#x179;" horiz-adv-x="471" 
d="M444 38l1 -2q-6 -15 -18.5 -25t-23.5 -13q-16 -4 -144 -4q-182 0 -243 8q-7 2 -13 9.5t-6 12.5q98 122 223.5 297.5t182.5 264.5h-304q-38 0 -38 10q0 16 23 35q28 -6 84 -6h305q1 -17 -15 -40q-52 -83 -165 -244t-222 -301q74 -7 195.5 -7t177.5 5zM379 769
q8 -4 18.5 -14t14.5 -18q4 -11 -11 -16q-89 -25 -155 -56q-8 5 -12 15q-5 11 7 18q26 18 74.5 43.5t63.5 27.5z" />
    <glyph glyph-name="zacute" unicode="&#x17a;" horiz-adv-x="345" 
d="M207 434h1q110 0 127 2q-4 -18 -18 -44q-21 -38 -98.5 -145t-158.5 -206q10 -6 116 -6q124 0 141 5q2 -8 -4 -19.5t-19 -17.5q-13 -8 -130 -8q-151 0 -167 11q-7 11 -9 17q55 63 154 192t128 181q-56 -2 -91 -2q-49 0 -74.5 0.5t-41.5 2.5t-19.5 4.5t-1.5 8.5q4 13 27 33
q6 -6 28.5 -7.5t109.5 -1.5zM257 674h1q18 0 32 -18q8 -8 -4 -19q-33 -37 -99 -134q-7 3 -18 16q-5 5 5 26q19 38 47.5 83.5t35.5 45.5z" />
    <glyph glyph-name="Zdotaccent" unicode="&#x17b;" horiz-adv-x="471" 
d="M444 38l1 -2q-6 -15 -18.5 -25t-23.5 -13q-16 -4 -144 -4q-182 0 -243 8q-7 2 -13 9.5t-6 12.5q98 122 223.5 297.5t182.5 264.5h-304q-38 0 -38 10q0 16 23 35q28 -6 84 -6h305q1 -17 -15 -40q-52 -83 -165 -244t-222 -301q74 -7 195.5 -7t177.5 5zM282 742h1
q14 0 23.5 -11t9.5 -26q0 -17 -11 -28.5t-27 -11.5t-25.5 9.5t-9.5 27.5q0 15 11 27.5t28 12.5z" />
    <glyph glyph-name="zdotaccent" unicode="&#x17c;" horiz-adv-x="345" 
d="M207 434h1q110 0 127 2q-4 -18 -18 -44q-21 -38 -98.5 -145t-158.5 -206q10 -6 116 -6q124 0 141 5q2 -8 -4 -19.5t-19 -17.5q-13 -8 -130 -8q-151 0 -167 11q-7 11 -9 17q55 63 154 192t128 181q-56 -2 -91 -2q-49 0 -74.5 0.5t-41.5 2.5t-19.5 4.5t-1.5 8.5q4 13 27 33
q6 -6 28.5 -7.5t109.5 -1.5zM208 611h1q14 0 23.5 -10.5t9.5 -24.5q0 -18 -10.5 -29.5t-27.5 -11.5q-15 0 -25 9.5t-10 26.5q0 15 10.5 27.5t28.5 12.5z" />
    <glyph glyph-name="Zcaron" unicode="&#x17d;" horiz-adv-x="471" 
d="M444 38l1 -2q-6 -15 -18.5 -25t-23.5 -13q-16 -4 -144 -4q-182 0 -243 8q-7 2 -13 9.5t-6 12.5q98 122 223.5 297.5t182.5 264.5h-304q-38 0 -38 10q0 16 23 35q28 -6 84 -6h305q1 -17 -15 -40q-52 -83 -165 -244t-222 -301q74 -7 195.5 -7t177.5 5zM367 781h1
q13 0 24 -11q-82 -72 -101 -93q-2 -1 -6.5 -4t-6.5 -4q-8 -4 -16 -4q-34 53 -85 100q8 16 24 16q15 0 19 -5q22 -19 57 -59q38 35 70 58q10 6 20 6z" />
    <glyph glyph-name="zcaron" unicode="&#x17e;" horiz-adv-x="345" 
d="M207 434h1q110 0 127 2q-4 -18 -18 -44q-21 -38 -98.5 -145t-158.5 -206q10 -6 116 -6q124 0 141 5q2 -8 -4 -19.5t-19 -17.5q-13 -8 -130 -8q-151 0 -167 11q-7 11 -9 17q55 63 154 192t128 181q-56 -2 -91 -2q-49 0 -74.5 0.5t-41.5 2.5t-19.5 4.5t-1.5 8.5q4 13 27 33
q6 -6 28.5 -7.5t109.5 -1.5zM284 672h1q7 0 15.5 -4t10.5 -10l-37.5 -59t-46.5 -76q-9 -13 -19 -16q-14 -4 -18 -4q-18 46 -68 156q16 13 28 13q7 0 12 -10l20 -45.5l25 -57.5q30 51 67 106q4 7 10 7z" />
    <glyph glyph-name="longs" unicode="&#x17f;" horiz-adv-x="204" 
d="M272 686h1q36 0 53 -19q0 -11 -7.5 -20.5t-16.5 -5.5q-16 7 -36 7q-23 0 -41 -10t-31 -31.5t-21.5 -42t-16 -56t-11 -58.5t-8.5 -63q-45 -341 -47 -353q-21 -141 -59.5 -197.5t-108.5 -56.5q-41 0 -61 22q-8 9 -7 20.5t8 16.5q36 -20 62 -20q55 0 80 51.5t47 201.5
q17 115 42 321q8 65 19 112.5t30.5 91t52 66.5t77.5 23z" />
    <glyph glyph-name="florin" unicode="&#x192;" horiz-adv-x="419" 
d="M344 625h1q40 0 58 -21q2 -9 -5.5 -19t-17.5 -6q-19 8 -41 8q-96 0 -121 -238q98 0 143 1q-9 -25 -32 -32q-17 -6 -115 -6l-32 -243q-26 -189 -153 -189q-40 0 -67 21q-7 6 -9 17q0 12 15 21q29 -21 60 -21q17 0 30.5 4t24.5 14t19.5 24t15.5 36.5t12.5 48.5t11 63
t10.5 77l12 94q3 22 4 33q-29 0 -73 4q-5 6 5 19q28 10 72 14q23 187 89 244q36 32 83 32z" />
    <glyph glyph-name="AEacute" unicode="&#x1fc;" horiz-adv-x="760" 
d="M482 300h224q-9 -25 -19.5 -32t-34.5 -7h-174l-26 -219q28 -8 123 -8q103 0 151 5l1 -5q-10 -17 -37 -34q-22 -5 -105 -5q-128 0 -174 10l-12 20l30 236q-170 0 -217 -12q-149 -217 -178 -252q-6 -8 -17 -8q-14 0 -34 12l1 4l422 582q3 3 15 28q16 6 68 10h246
q0 -22 -14 -30q-14 -9 -56 -9h-148zM469 586h-15l-212 -296q49 10 192 10zM648 774q8 -4 18.5 -14t14.5 -18q4 -11 -11 -16q-89 -25 -155 -56q-8 5 -12 15q-5 11 7 18q26 18 74.5 43.5t63.5 27.5z" />
    <glyph glyph-name="aeacute" unicode="&#x1fd;" horiz-adv-x="622" 
d="M270 105h-2q-93 -116 -177 -116q-31 0 -51.5 23t-20.5 71q0 62 34 131.5t94 119.5q105 84 273 94q39 18 84 18q41 0 64.5 -24t23.5 -61q-1 -44 -30.5 -77.5t-74 -51.5t-87.5 -27t-80 -10q-3 -34 -1 -70.5t25 -65t62 -28.5q83 0 156 80q9 -4 9 -22q0 -16 -14 -30
q-68 -71 -164 -71q-52 0 -83.5 31.5t-39.5 85.5zM490 409h-1q-49 0 -96 -50t-67 -126q216 14 216 127q0 22 -14.5 35.5t-37.5 13.5zM109 32h1q31 0 74 32.5t82 97.5q6 80 42 145.5t69 81.5q-58 -6 -116 -32t-99 -67q-39 -39 -64 -94.5t-25 -106.5q0 -57 36 -57zM426 674h1
q18 0 32 -18q7 -8 -4 -19q-33 -37 -99 -134q-7 3 -18 16q-5 5 5 26q19 38 47.5 83.5t35.5 45.5z" />
    <glyph glyph-name="Oslashacute" unicode="&#x1fe;" horiz-adv-x="618" 
d="M566 640l-48 -69q68 -72 68 -209q0 -71 -19.5 -137t-56.5 -120.5t-97 -87t-135 -32.5q-90 0 -148 52l-52 -71q-10 -13 -20 -5q-12 10 -17 22l59 83q-56 73 -56 200q0 96 37 181t109 139t163 54q83 0 133 -40l37 52q13 21 24 12q17 -15 19 -24zM132 109l328 456
q-43 38 -113 38q-105 0 -177 -100t-72 -231q0 -105 34 -163zM489 533l-332 -457q45 -54 123 -54q64 0 114 32t79 83.5t43.5 110t14.5 119.5q0 110 -42 166zM429 782q8 -4 18.5 -14t14.5 -18q4 -11 -11 -16q-89 -25 -155 -56q-8 5 -12 15q-5 11 7 18q26 18 74.5 43.5
t63.5 27.5z" />
    <glyph glyph-name="oslashacute" unicode="&#x1ff;" horiz-adv-x="439" 
d="M393 446l-34 -51q35 -45 35 -127q1 -118 -62 -199t-160 -81q-53 0 -88 27l-33 -46q-13 -15 -21 -8q-8 6 -12 24l42 58q-32 43 -32 125q0 65 27.5 128t81.5 106.5t120 43.5q47 0 75 -23l23 34q16 25 25 16q13 -13 13 -27zM93 89l214 298q-18 22 -55 22q-45 0 -84 -32.5
t-60 -80.5t-28 -104t13 -103zM328 352l-215 -299q19 -28 65 -28q47 0 86 34t57.5 84t23 106.5t-16.5 102.5zM310 674h1q18 0 32 -18q7 -8 -4 -19q-33 -37 -99 -134q-7 3 -18 16q-5 5 5 26q19 38 47.5 83.5t35.5 45.5z" />
    <glyph glyph-name="Scommaaccent" unicode="&#x218;" horiz-adv-x="409" 
d="M245 640h1q34 0 70.5 -13t49.5 -31q-2 -12 -11.5 -21t-19.5 -3q-47 28 -94 28q-56 0 -89 -29.5t-33 -84.5q0 -43 26.5 -76.5t92.5 -83.5q61 -45 89.5 -82.5t28.5 -87.5q0 -79 -53 -125t-140 -46q-88 0 -139 51q-14 13 -14 22q-1 6 3.5 15t12.5 14q64 -61 145 -61
q57 0 95.5 30.5t38.5 92.5q0 37 -27 72.5t-95 85.5q-62 44 -87.5 84t-25.5 87q0 73 49.5 117.5t125.5 44.5zM181 -49h1q14 0 14 -30q0 -39 -30.5 -88t-65.5 -71q-13 -6 -36 -5q63 72 71 141q1 7 1 35q25 18 45 18z" />
    <glyph glyph-name="scommaaccent" unicode="&#x219;" horiz-adv-x="331" 
d="M200 446h1q22 0 49 -10t38 -24q-8 -33 -31 -23q-41 18 -66 18q-36 0 -60.5 -22t-24.5 -57q0 -26 15.5 -44.5t67.5 -53.5q51 -33 66 -57t15 -56q0 -55 -41.5 -92t-104.5 -37q-77 0 -107 38q-9 13 6 40q51 -39 103 -39q47 0 71 22.5t24 57.5q0 26 -15 45.5t-68 54.5
q-46 29 -62.5 53.5t-16.5 58.5q0 54 41 90.5t100 36.5zM139 -39h1q14 0 14 -30q0 -39 -30.5 -88t-65.5 -71q-13 -6 -36 -5q63 72 71 141q1 7 1 35q25 18 45 18z" />
    <glyph glyph-name="uni021A" unicode="&#x21a;" horiz-adv-x="509" 
d="M189 11l78 575h-186q-27 0 -25 14q7 23 20 30q20 -5 143 -5h329q-5 -40 -48 -39h-181l-63 -463q-13 -98 -14 -124q-16 -5 -45 -5q-8 0 -8 17zM227 -34h1q14 0 14 -30q0 -39 -30.5 -88t-65.5 -71q-13 -6 -36 -5q63 72 71 141q1 7 1 35q25 18 45 18z" />
    <glyph glyph-name="uni021B" unicode="&#x21b;" horiz-adv-x="294" 
d="M243 100h2q15 -28 -11 -58q-48 -54 -107 -54q-40 0 -57 32t-5 114q9 67 40 253h-69q0 12 8 24.5t18 12.5h49q3 14 6 32t5 29t4.5 22.5t4.5 18t4 8.5q22 22 46 22l-23 -132q110 0 136 4q-6 -22 -25 -33q-12 -8 -117 -8q-30 -179 -40 -263q-6 -51 1 -72t30 -21q48 0 100 69
zM139 -39h1q14 0 14 -30q0 -39 -30.5 -88t-65.5 -71q-13 -6 -36 -5q63 72 71 141q1 7 1 35q25 18 45 18z" />
    <glyph glyph-name="uni0237" unicode="&#x237;" horiz-adv-x="200" 
d="M139 446h1q7 0 4 -32q-14 -122 -52 -386q-9 -62 -18.5 -100.5t-27 -75.5t-46 -54.5t-69.5 -17.5q-19 0 -35 10q-9 6 -10.5 19t4.5 19q18 -10 40 -10q51 0 74 42t39 147q23 154 40 284q14 107 14 144q18 11 42 11z" />
    <glyph glyph-name="circumflex" unicode="&#x2c6;" horiz-adv-x="400" 
d="M160 503h-1q-6 0 -15 4.5t-11 9.5l39.5 62t44.5 73q8 13 18 16q16 4 19 4q10 -26 68 -156q-16 -13 -27 -13q-7 0 -12 10q-4 7 -47 104l-68 -110q-4 -4 -8 -4z" />
    <glyph glyph-name="caron" unicode="&#x2c7;" horiz-adv-x="400" 
d="M308 672h1q7 0 15.5 -4t10.5 -10l-37.5 -59t-46.5 -76q-9 -13 -19 -16q-14 -4 -18 -4q-18 46 -68 156q16 13 28 13q7 0 12 -10l20 -45.5l25 -57.5q30 51 67 106q4 7 10 7z" />
    <glyph glyph-name="uni02C9" unicode="&#x2c9;" horiz-adv-x="400" 
d="M319 544h-169q-11 0 -11 10q0 21 13 31h173q9 0 9 -6q0 -17 -15 -35z" />
    <glyph glyph-name="breve" unicode="&#x2d8;" horiz-adv-x="400" 
d="M180 641h1q6 0 6 -8q0 -75 41 -75q24 0 41 16t30 60q3 7 10 7q8 0 16.5 -5t7.5 -12q-20 -108 -109 -108q-36 0 -57 28.5t-17 74.5q3 22 30 22z" />
    <glyph glyph-name="dotaccent" unicode="&#x2d9;" horiz-adv-x="400" 
d="M241 611h1q14 0 23.5 -10.5t9.5 -24.5q0 -18 -10.5 -29.5t-27.5 -11.5q-15 0 -25 9.5t-10 26.5q0 15 10.5 27.5t28.5 12.5z" />
    <glyph glyph-name="ring" unicode="&#x2da;" horiz-adv-x="400" 
d="M238 655h1q34 0 54 -21t20 -55q0 -37 -24.5 -60t-61.5 -23q-33 0 -53 20t-20 55t23.5 59.5t60.5 24.5zM236 621h-1q-18 0 -29.5 -15t-11.5 -32q0 -43 37 -43q19 0 30.5 13.5t11.5 31.5q0 45 -37 45z" />
    <glyph glyph-name="ogonek" unicode="&#x2db;" horiz-adv-x="400" 
d="M154 4h43q-93 -66 -93 -140q0 -42 40 -42q36 0 69 22l3 -2q2 -26 -8 -39q-27 -32 -80 -32q-37 0 -58 22.5t-21 56.5q0 85 105 154z" />
    <glyph glyph-name="tilde" unicode="&#x2dc;" horiz-adv-x="400" 
d="M182 625h1q27 0 57 -34q22 -27 30 -27q16 0 21 50q3 11 11 11q13 0 24 -15q-2 -40 -16.5 -64t-39.5 -24q-6 0 -11 1.5t-9 3.5t-9.5 7t-8.5 7.5t-10 10.5t-10 11q-19 22 -30 22q-17 0 -27 -47q-2 -10 -8 -10t-27 8q3 35 17.5 62t44.5 27z" />
    <glyph glyph-name="hungarumlaut" unicode="&#x2dd;" horiz-adv-x="400" 
d="M155 503q-6 0 -13 5t-9 10q-4 8 2 24q18 46 41.5 91t31.5 45q15 0 31 -21q6 -9 -1 -19q-38 -52 -83 -135zM281 503q-11 3 -19 12q-6 11 -2 22q56 141 73 141q19 0 31 -21q8 -8 1 -17q-51 -73 -84 -137z" />
    <glyph glyph-name="uni0394" unicode="&#x394;" horiz-adv-x="585" 
d="M6 1l-6 22l101 184l131.5 249t75.5 143l-2 20q20 9 33 9q9 0 13 -15l170 -590l-13 -23q-73 -5 -333 -5q-150 0 -170 6zM66 44q28 -6 104 -6q273 0 292 5l-139 497z" />
    <glyph glyph-name="uni03A9" unicode="&#x3a9;" horiz-adv-x="679" 
d="M26 45l5 2q15 -10 100 -10q42 0 54 4q5 2 -1 8q-50 37 -84 105.5t-34 149.5q0 140 81.5 238t226.5 98q122 0 191.5 -81.5t69.5 -202.5q0 -102 -44.5 -175.5t-133.5 -133.5q-2 -1 -1.5 -2.5t2.5 -2.5q18 -6 62 -5q100 0 112 3l2 -3q-7 -33 -41 -39q-13 -2 -38.5 -3t-65 -1
h-54.5q-59 0 -74 7l-2 6q3 5 9.5 14l9.5 13q92 51 147 133t55 182q0 107 -54.5 179.5t-156.5 72.5q-121 0 -183 -83t-62 -209q0 -91 37.5 -164t96.5 -112l1 -7q-6 -11 -18 -19q-7 -7 -23 -8q-11 0 -50.5 -2.5t-73.5 -2.5q-81 0 -98 9q-12 4 -4 15q5 7 13 13t15 10z" />
    <glyph glyph-name="uni03BC" unicode="&#x3bc;" horiz-adv-x="480" 
d="M83 290q12 75 19 143q24 13 44 13q8 0 4 -32q-31 -186 -44 -282q-8 -53 5.5 -77t38.5 -24q24 0 53.5 17t63.5 54t64 110.5t47 171.5q5 30 8.5 39.5t11.5 13.5q19 9 38 9q-33 -153 -50 -307q-12 -89 -9 -140q-24 -11 -42 -11q-3 0 -3.5 19t2.5 59t9 90l-2 1
q-88 -169 -209 -169q-32 0 -49 27q-9 -64 -35 -235q-17 0 -32 9q-18 9 -12 38z" />
    <glyph glyph-name="pi" unicode="&#x3c0;" horiz-adv-x="495" 
d="M392 395l-43 -307q-4 -31 2.5 -44.5t25.5 -13.5q18 0 46 14q4 -24 -12 -38q-20 -20 -55 -20q-69 0 -56 93l45 316h-167q-10 -84 -43.5 -217.5t-52.5 -175.5q-12 -13 -16 -14q-16 0 -33 12q27 63 56.5 178.5t42.5 216.5q-73 0 -100 -7q-2 18 -4 28q24 22 97 22h369
q-4 -25 -12 -34t-32 -9h-58z" />
    <glyph glyph-name="Wgrave" unicode="&#x1e80;" horiz-adv-x="846" 
d="M105 628h1q9 0 15 -40q7 -38 80 -519l235 532q2 3 2 14q21 13 34 13q8 0 12 -26l86 -531l256 557l27 -3q18 -5 11 -23l-269 -567q-14 -27 -28 -37q-18 -10 -30 -8l-86 552l-230 -521q-8 -16 -21 -24q-12 -9 -32 -9q-82 526 -103 631q18 9 40 9zM377 770h1q12 0 57.5 -26
t72.5 -47q11 -8 4 -18q-5 -7 -14 -14q-90 46 -152 65q-10 2 -5 10q4 10 15.5 20t20.5 10z" />
    <glyph glyph-name="wgrave" unicode="&#x1e81;" horiz-adv-x="634" 
d="M353 416h1q8 0 8 -23q0 -64 10.5 -189.5t20.5 -149.5q59 63 116 161t57 185q0 17 -3 38q16 8 34 8q5 0 8.5 -17t3.5 -33q0 -66 -39.5 -149t-78.5 -135t-76 -91q-16 -16 -32 -25q-18 -9 -28 -9q-10 23 -21.5 135.5t-13.5 180.5q-32 -67 -88.5 -154t-95.5 -133
q-8 -10 -23 -19q-15 -8 -28 -9q-15 28 -17 148q-1 46 -0.5 151.5t0.5 146.5q30 12 41 12t10 -23q-6 -144 -4 -274q0 -68 7 -89q41 53 102 147t92 168v27q20 14 37 14zM298 676h1q8 -1 38.5 -51.5t45.5 -83.5q6 -16 -1 -22q-4 -3 -7.5 -6t-5.5 -5t-3 -2q-46 74 -99 135
q-8 10 0 17q20 18 31 18z" />
    <glyph glyph-name="Wacute" unicode="&#x1e82;" horiz-adv-x="846" 
d="M105 628h1q9 0 15 -40q7 -38 80 -519l235 532q2 3 2 14q21 13 34 13q8 0 12 -26l86 -531l256 557l27 -3q18 -5 11 -23l-269 -567q-14 -27 -28 -37q-18 -10 -30 -8l-86 552l-230 -521q-8 -16 -21 -24q-12 -9 -32 -9q-82 526 -103 631q18 9 40 9zM551 769q8 -4 18.5 -14
t14.5 -18q4 -11 -11 -16q-89 -25 -155 -56q-8 5 -12 15q-5 11 7 18q26 18 74.5 43.5t63.5 27.5z" />
    <glyph glyph-name="wacute" unicode="&#x1e83;" horiz-adv-x="634" 
d="M353 416h1q8 0 8 -23q0 -64 10.5 -189.5t20.5 -149.5q59 63 116 161t57 185q0 17 -3 38q16 8 34 8q5 0 8.5 -17t3.5 -33q0 -66 -39.5 -149t-78.5 -135t-76 -91q-16 -16 -32 -25q-18 -9 -28 -9q-10 23 -21.5 135.5t-13.5 180.5q-32 -67 -88.5 -154t-95.5 -133
q-8 -10 -23 -19q-15 -8 -28 -9q-15 28 -17 148q-1 46 -0.5 151.5t0.5 146.5q30 12 41 12t10 -23q-6 -144 -4 -274q0 -68 7 -89q41 53 102 147t92 168v27q20 14 37 14zM410 674h1q18 0 32 -18q7 -8 -4 -19q-33 -37 -99 -134q-7 3 -18 16q-5 5 5 26q19 38 47.5 83.5t35.5 45.5
z" />
    <glyph glyph-name="Wdieresis" unicode="&#x1e84;" horiz-adv-x="846" 
d="M105 628h1q9 0 15 -40q7 -38 80 -519l235 532q2 3 2 14q21 13 34 13q8 0 12 -26l86 -531l256 557l27 -3q18 -5 11 -23l-269 -567q-14 -27 -28 -37q-18 -10 -30 -8l-86 552l-230 -521q-8 -16 -21 -24q-12 -9 -32 -9q-82 526 -103 631q18 9 40 9zM387 742h1q14 0 23.5 -11
t9.5 -26q0 -17 -11 -28.5t-27 -11.5q-15 0 -25 10t-10 28q0 15 11 27t28 12zM540 742h1q14 0 24 -10.5t10 -25.5q0 -19 -10.5 -30t-27.5 -11q-15 0 -25 10t-10 27q0 15 11 27.5t27 12.5z" />
    <glyph glyph-name="wdieresis" unicode="&#x1e85;" horiz-adv-x="634" 
d="M353 416h1q8 0 8 -23q0 -64 10.5 -189.5t20.5 -149.5q59 63 116 161t57 185q0 17 -3 38q16 8 34 8q5 0 8.5 -17t3.5 -33q0 -66 -39.5 -149t-78.5 -135t-76 -91q-16 -16 -32 -25q-18 -9 -28 -9q-10 23 -21.5 135.5t-13.5 180.5q-32 -67 -88.5 -154t-95.5 -133
q-8 -10 -23 -19q-15 -8 -28 -9q-15 28 -17 148q-1 46 -0.5 151.5t0.5 146.5q30 12 41 12t10 -23q-6 -144 -4 -274q0 -68 7 -89q41 53 102 147t92 168v27q20 14 37 14zM277 611h1q14 0 23.5 -10.5t9.5 -25.5q0 -17 -11 -28.5t-28 -11.5q-15 0 -24.5 10t-9.5 26
q0 15 10.5 27.5t28.5 12.5zM427 611h1q15 0 24 -10.5t9 -25.5q0 -17 -11 -28.5t-27 -11.5q-15 0 -25 9.5t-10 25.5q0 15 11 28t28 13z" />
    <glyph glyph-name="Ygrave" unicode="&#x1ef2;" horiz-adv-x="526" 
d="M62 617l1 3q24 8 41 8q11 0 33 -44l59 -113l72 -140q24 26 127 158t109 139q15 -1 31 -7t-4 -29l-126 -153.5l-115 -143.5q-6 -7 -10 -34l-16 -137q-13 -109 -14 -124q-20 -6 -43 -6q-7 0 -8.5 3.5t-0.5 14.5l29 231q1 11 2 26.5t1 19.5q0 16 -12 38q-101 200 -156 290z
M220 770h1q12 0 57.5 -26t72.5 -47q11 -8 4 -18q-5 -7 -14 -14q-90 46 -152 65q-10 2 -5 10q4 10 15.5 20t20.5 10z" />
    <glyph glyph-name="ygrave" unicode="&#x1ef3;" horiz-adv-x="399" 
d="M-7 -225q-14 0 -27 9.5t-11 15.5q82 73 168 191q-11 24 -22 81q-38 202 -52 361q20 13 38 13q9 0 11 -18q16 -149 45 -322q9 -54 18 -69q84 118 128 225.5t47 176.5q14 7 33 7q8 0 8 -22q0 -55 -41 -158.5t-116 -217.5q-53 -80 -123 -162.5t-104 -110.5zM176 676h1
q8 -1 38.5 -51.5t45.5 -83.5q6 -16 -1 -22q-4 -3 -7.5 -6t-5.5 -5t-3 -2q-46 74 -99 135q-8 10 0 17q20 18 31 18z" />
    <glyph glyph-name="uni2010" unicode="&#x2010;" horiz-adv-x="252" 
d="M221 268l1 -2q-3 -15 -16 -29.5t-35 -19.5q-76 -18 -155 -20l-2 3q11 37 27 41q154 20 180 27z" />
    <glyph glyph-name="figuredash" unicode="&#x2012;" horiz-adv-x="360" 
d="M66 314h274l-4 -14q-7 -29 -23 -29h-280l3 14q6 29 30 29z" />
    <glyph glyph-name="endash" unicode="&#x2013;" horiz-adv-x="521" 
d="M60 262h410q-2 -15 -7 -26q-9 -13 -22 -13h-410q1 5 3 12.5t3 9.5q8 17 23 17z" />
    <glyph glyph-name="emdash" unicode="&#x2014;" horiz-adv-x="873" 
d="M61 262h761q-1 -13 -5 -23q-5 -16 -24 -16h-763q2 16 8 27q6 12 23 12z" />
    <glyph glyph-name="quoteleft" unicode="&#x2018;" horiz-adv-x="135" 
d="M168 661l1 -2q-21 -37 -37.5 -88t-16.5 -85q-21 -19 -38 -19q-13 0 -13 17q0 32 20.5 81.5t44.5 80.5q13 15 39 15z" />
    <glyph glyph-name="quoteright" unicode="&#x2019;" horiz-adv-x="135" 
d="M49 461l-2 3q20 36 36.5 87t17.5 85q21 19 39 19q11 0 11 -15q0 -32 -20.5 -82.5t-44.5 -81.5q-12 -15 -37 -15z" />
    <glyph glyph-name="quotesinglbase" unicode="&#x201a;" horiz-adv-x="141" 
d="M-46 -104l-1 3q30 34 50.5 84t19.5 86q22 18 39 18q18 0 13 -42q-4 -35 -27 -75.5t-53 -63.5q-15 -12 -41 -10z" />
    <glyph glyph-name="quotedblleft" unicode="&#x201c;" horiz-adv-x="255" 
d="M287 661l2 -2q-21 -37 -37.5 -88t-16.5 -85q-21 -19 -38 -19q-11 0 -13 16q-1 31 19.5 81.5t45.5 81.5q13 15 38 15zM168 661l1 -2q-21 -38 -37 -88t-16 -85q-24 -19 -38 -19q-12 0 -14 16q-1 32 20 82t46 81q11 15 38 15z" />
    <glyph glyph-name="quotedblright" unicode="&#x201d;" horiz-adv-x="255" 
d="M50 462l-1 3q21 37 37 88t16 84q21 19 40 19q11 0 11 -15q0 -35 -20 -84t-45 -80q-12 -15 -38 -15zM169 462v3q20 36 36 87.5t16 84.5q24 19 40 19q12 0 12 -15q0 -35 -20 -84t-46 -81q-11 -14 -38 -14z" />
    <glyph glyph-name="quotedblbase" unicode="&#x201e;" horiz-adv-x="267" 
d="M-47 -104l-1 3q30 31 51 82t20 88q22 18 39 18q14 0 14 -30q0 -37 -24.5 -81.5t-56.5 -69.5q-16 -12 -42 -10zM78 -104l-1 3q31 31 52.5 82t20.5 88q22 18 39 18q14 0 14 -30q0 -38 -24.5 -82.5t-56.5 -68.5q-18 -12 -44 -10z" />
    <glyph glyph-name="dagger" unicode="&#x2020;" horiz-adv-x="420" 
d="M65 398h128l23 185q5 5 21.5 12t23.5 7t5 -15l-28 -189h164q-9 -29 -34 -36q-13 -2 -136 -2q-38 -286 -52 -376q-6 -36 -16.5 -65.5t-17.5 -29.5q-15 0 -5 91q31 291 47 381h-150q6 26 27 37z" />
    <glyph glyph-name="daggerdbl" unicode="&#x2021;" horiz-adv-x="420" 
d="M65 424h129l21 159q24 19 39 19q11 0 8 -20l-24 -158h164q-14 -29 -39 -34q-13 -4 -129 -4l-19 -143h164q-15 -29 -39 -34q-22 -3 -130 -3l-33 -221q-6 -41 -15 -68.5t-16 -27.5q-16 0 -8 92q1 11 28 225h-152q1 5 10 18t18 19h129l19 144h-152q1 5 9.5 18.5t17.5 18.5z
" />
    <glyph glyph-name="bullet" unicode="&#x2022;" horiz-adv-x="255" 
d="M130 315h1q32 0 52 -24t20 -56q0 -41 -24 -66.5t-63 -25.5q-32 0 -53.5 21.5t-21.5 56.5q0 42 24 68t65 26z" />
    <glyph glyph-name="onedotenleader" unicode="&#x2024;" horiz-adv-x="500" 
d="M217 72h1q15 0 23.5 -11t8.5 -28q0 -19 -11.5 -31.5t-29.5 -12.5q-16 0 -26 9.5t-10 26.5q0 21 11.5 34t32.5 13z" />
    <glyph glyph-name="twodotenleader" unicode="&#x2025;" horiz-adv-x="500" 
d="M91 72h1q15 0 24 -11.5t9 -27.5q0 -20 -11 -32t-29 -12q-16 0 -26.5 9.5t-10.5 26.5q0 21 11.5 34t31.5 13zM355 72h1q15 0 24 -11t9 -27q0 -20 -11 -32.5t-30 -12.5q-16 0 -26 9.5t-10 26.5q0 21 11.5 34t31.5 13z" />
    <glyph glyph-name="ellipsis" unicode="&#x2026;" horiz-adv-x="732" 
d="M83 72h1q15 0 24 -11.5t9 -27.5q0 -20 -11 -32t-30 -12q-16 0 -26 9.5t-10 26.5q0 21 11.5 34t31.5 13zM327 72h1q15 0 24 -11.5t9 -27.5q0 -20 -11.5 -32t-30.5 -12q-16 0 -25.5 10t-9.5 26q0 21 11.5 34t31.5 13zM571 72h1q16 0 24.5 -11.5t8.5 -27.5q0 -20 -11.5 -32
t-29.5 -12q-16 0 -26 9.5t-10 26.5q0 21 11.5 34t31.5 13z" />
    <glyph glyph-name="perthousand" unicode="&#x2030;" horiz-adv-x="971" 
d="M604 656q12 -18 9 -32l-491 -665q-9 -12 -13 0q-8 14 -11 29l410 562q-35 -19 -79 -25t-76.5 -3t-56.5 11q10 -27 10 -71q0 -78 -42.5 -134.5t-107.5 -56.5q-52 0 -77.5 39t-25.5 94q0 79 42.5 138.5t111.5 59.5q30 0 64 -20q50 -28 123.5 -25t117.5 28q30 16 54 45
l21 26q9 11 17 0zM200 568h-1q-45 0 -75 -49t-29 -120q0 -38 15.5 -66t50.5 -28q40 0 71.5 41t31.5 120q0 102 -64 102zM536 319h1q53 0 77.5 -41t24.5 -97q0 -80 -40.5 -136.5t-108.5 -56.5q-53 0 -79 40t-26 97q0 78 41 136t110 58zM821 319h1q54 0 78 -41t24 -97
q-1 -80 -41 -136.5t-108 -56.5q-52 0 -78.5 40t-26.5 97q0 78 41 136t110 58zM529 285h-1q-43 0 -72 -48.5t-29 -118.5q0 -39 16.5 -67.5t54.5 -28.5q39 0 69 43t30 121q0 99 -68 99zM814 285h-1q-43 0 -71.5 -48.5t-28.5 -118.5q0 -39 16.5 -67.5t53.5 -28.5q39 0 69.5 43
t29.5 121q0 99 -68 99z" />
    <glyph glyph-name="guilsinglleft" unicode="&#x2039;" horiz-adv-x="366" 
d="M95 223q25 -33 61 -92t37 -76q1 -10 -7.5 -20t-15.5 -13q-41 92 -121 187q-7 10 -7 25q96 89 170 189q19 -10 19 -28q1 -21 -136 -172z" />
    <glyph glyph-name="guilsinglright" unicode="&#x203a;" horiz-adv-x="366" 
d="M261 223q-24 30 -60.5 90.5t-37.5 76.5q-1 11 8 20.5t17 12.5q39 -92 120 -187q6 -10 6 -25q-98 -91 -168 -189q-19 12 -21 28q0 7 11.5 25t31 41l36.5 43l35.5 40.5t21.5 23.5z" />
    <glyph glyph-name="fraction" unicode="&#x2044;" horiz-adv-x="83" 
d="M235 571l-390 -650q-13 -20 -22 -9q-12 14 -15 24l399 665q7 12 15 4q8 -6 12.5 -16t0.5 -18z" />
    <glyph glyph-name="zero.superior" unicode="&#x2070;" 
d="M194 750h1q52 0 75 -39t23 -93q0 -80 -36.5 -137.5t-99.5 -57.5q-53 0 -78 38t-25 94q0 76 38 135.5t102 59.5zM193 718h-1q-45 0 -70 -50.5t-25 -120.5q0 -39 16 -65.5t47 -26.5q38 0 64 45.5t26 112.5q0 23 -4 44.5t-17.5 41t-35.5 19.5z" />
    <glyph glyph-name="four.superior" unicode="&#x2074;" 
d="M283 767l2 -4q-96 -87 -192 -213q27 -4 113 -6l14 80q15 13 38 17h2l-14 -95q20 0 50 4l1 -3q-4 -17 -18 -29q-2 -1 -37 -6q-2 -10 -6 -40.5t-5 -39.5q-21 -8 -38 -10l-5 5q9 51 14 83q-106 0 -146 8q-3 2 -8 10t-5 12q32 46 89 110.5t85 89.5q26 24 66 27z" />
    <glyph glyph-name="five.superior" unicode="&#x2075;" 
d="M74 592l-4 7q6 30 21 78.5t24 64.5q137 7 152 8q0 -17 -6 -26q-9 -13 -26 -14q-40 -2 -95 -2q-16 -37 -27 -85q74 -21 110 -40q43 -25 43 -72q0 -50 -38.5 -80t-95.5 -30q-51 0 -66 15q-12 10 -14 33l1 1q34 -15 74 -15q43 0 68 18t25 53q0 36 -47 56q-14 6 -99 30z" />
    <glyph glyph-name="six.superior" unicode="&#x2076;" 
d="M290 746v-1q-82 -17 -126 -55q-30 -26 -47 -66t-17 -81q0 -46 19 -67t46 -21q67 0 67 75q0 29 -15.5 44.5t-37.5 15.5q-24 0 -52 -14q-2 2 1 11.5t8 15.5q23 21 64 21q34 0 55.5 -25t21.5 -60q0 -54 -32 -85t-85 -31q-47 0 -75.5 31t-28.5 88q0 102 79 170q63 54 125 54
q18 0 30 -20z" />
    <glyph glyph-name="seven.superior" unicode="&#x2077;" 
d="M300 743l2 -4q-37 -105 -86.5 -189.5t-76.5 -113.5q-13 -13 -28 -19q-17 -5 -37 -5l-1 4q102 102 179 290q-7 0 -51 -0.5t-91 -0.5q-21 0 -26.5 3.5t-1.5 11.5q9 20 26 27q16 -4 60 -4h132z" />
    <glyph glyph-name="eight.superior" unicode="&#x2078;" 
d="M185 750h1q36 0 64.5 -21t28.5 -56q0 -48 -66 -81q31 -18 46.5 -36t15.5 -45q0 -39 -29.5 -63.5t-83.5 -24.5q-47 0 -78.5 23t-31.5 60q0 28 18.5 48t60.5 39q-46 32 -46 71q0 36 27 61t73 25zM183 720h-1q-25 0 -40 -14t-15 -37q0 -33 57 -61q54 25 54 63q0 23 -16 36
t-39 13zM232 507v1q0 19 -17 34t-54 34q-65 -27 -65 -67q0 -22 19.5 -38.5t49.5 -16.5q67 0 67 53z" />
    <glyph glyph-name="nine.superior" unicode="&#x2079;" 
d="M53 436v2q92 20 130 51q58 46 59 134q1 40 -15.5 68.5t-50.5 28.5q-28 0 -46 -21.5t-18 -55.5q0 -29 18 -45t41 -16q25 0 46 8q0 -23 -15 -30q-22 -11 -47 -11q-37 0 -62.5 25t-25.5 63q0 46 30.5 79.5t83.5 33.5q55 0 81.5 -38.5t26.5 -95.5q0 -94 -77 -154
q-35 -27 -72.5 -39t-59.5 -12q-17 0 -27 25z" />
    <glyph glyph-name="parenleft.superior" unicode="&#x207d;" horiz-adv-x="210" 
d="M80 580v1q0 185 152 295q16 -5 21 -18q-134 -119 -134 -280q0 -58 18 -116.5t52 -99.5q-8 -14 -25 -14q-42 38 -63 102.5t-21 129.5z" />
    <glyph glyph-name="parenright.superior" unicode="&#x207e;" horiz-adv-x="210" 
d="M212 645v-1q0 -187 -151 -296q-17 5 -21 20q133 118 133 277q0 135 -70 216q8 15 25 15q41 -38 62.5 -103t21.5 -128z" />
    <glyph glyph-name="n.superior" unicode="&#x207f;" horiz-adv-x="324" 
d="M119 467h2q62 105 133 105q61 0 44 -99l-19 -106q-11 -73 -11 -83q-36 -9 -38 -9q-2 1 -2 12t3 34.5t9 55.5q16 80 21 113q8 45 -20 45q-47 0 -88.5 -68.5t-56.5 -155.5q-4 -24 -13 -28q-15 -7 -34 -8q3 21 13 80.5t14 85.5q5 32 8 58t4.5 43.5t1.5 21.5q14 8 35 8
q2 0 3.5 -7t-1 -32t-8.5 -66z" />
    <glyph glyph-name="zero.inferior" unicode="&#x2080;" 
d="M134 198h1q52 0 75 -39t23 -93q0 -80 -36.5 -137.5t-99.5 -57.5q-53 0 -78 38t-25 94q0 76 38 135.5t102 59.5zM133 166h-1q-45 0 -70 -50.5t-25 -120.5q0 -39 16 -65.5t47 -26.5q38 0 64 45.5t26 112.5q0 23 -4 44.5t-17.5 41t-35.5 19.5z" />
    <glyph glyph-name="one.inferior" unicode="&#x2081;" 
d="M166 198l3 -2l-40 -306q-1 -15 -19 -17l-25 -2q9 40 38 271q-52 -17 -88 -19l-1 2q3 12 15 27q29 7 66 22t51 24z" />
    <glyph glyph-name="two.inferior" unicode="&#x2082;" 
d="M19 123h-2q-2 9 1.5 22t9.5 18q41 35 92 35q42 0 68 -24.5t26 -66.5q0 -18 -6 -36.5t-18.5 -36l-23 -31t-29.5 -30l-28 -24t-28.5 -22t-20.5 -15.5q65 -4 165 0q-10 -25 -20 -31q-15 -6 -90 -6q-89 0 -127 6l-1 3l9 18q2 1 37 27.5t49.5 39t40 38t36.5 49t11 47.5
q0 28 -16.5 43.5t-41.5 15.5q-51 0 -93 -39z" />
    <glyph glyph-name="three.inferior" unicode="&#x2083;" 
d="M46 11l-2 4q11 22 14 24q95 21 95 78q0 20 -13 32t-36 12q-43 0 -80 -37q-2 2 -4 7q-4 21 9 34q36 33 85 33q35 0 59 -19.5t24 -53.5q0 -32 -17 -51t-46 -34q72 -21 72 -82q0 -52 -39 -80.5t-90 -28.5q-29 0 -53 7.5t-31 18.5q-7 14 -5 30h2q40 -21 83 -21q37 0 62.5 17
t25.5 54q0 28 -22 44t-56 16q-19 0 -37 -4z" />
    <glyph glyph-name="four.inferior" unicode="&#x2084;" 
d="M223 215l2 -4q-96 -87 -192 -213q27 -4 113 -6l14 80q15 13 38 17h2l-14 -95q20 0 50 4l1 -3q-4 -17 -18 -29q-2 -1 -37 -6q-2 -10 -6 -40.5t-5 -39.5q-21 -8 -38 -10l-5 5q9 51 14 83q-106 0 -146 8q-3 2 -8 10t-5 12q32 46 89 110.5t85 89.5q26 24 66 27z" />
    <glyph glyph-name="five.inferior" unicode="&#x2085;" 
d="M14 40l-4 7q6 30 21 78.5t24 64.5q137 7 152 8q0 -17 -6 -26q-9 -13 -26 -14q-40 -2 -95 -2q-16 -37 -27 -85q74 -21 110 -40q43 -25 43 -72q0 -50 -38.5 -80t-95.5 -30q-51 0 -66 15q-12 10 -14 33l1 1q34 -15 74 -15q43 0 68 18t25 53q0 36 -47 56q-14 6 -99 30z" />
    <glyph glyph-name="six.inferior" unicode="&#x2086;" 
d="M230 194v-1q-82 -17 -126 -55q-30 -26 -47 -66t-17 -81q0 -46 19 -67t46 -21q67 0 67 75q0 29 -15.5 44.5t-37.5 15.5q-24 0 -52 -14q-2 2 1 11.5t8 15.5q23 21 64 21q34 0 55.5 -25t21.5 -60q0 -54 -32 -85t-85 -31q-47 0 -75.5 31t-28.5 88q0 102 79 170q63 54 125 54
q18 0 30 -20z" />
    <glyph glyph-name="seven.inferior" unicode="&#x2087;" 
d="M240 191l2 -4q-37 -105 -86.5 -189.5t-76.5 -113.5q-13 -13 -28 -19q-17 -5 -37 -5l-1 4q102 102 179 290q-7 0 -51 -0.5t-91 -0.5q-21 0 -26.5 3.5t-1.5 11.5q9 20 26 27q16 -4 60 -4h132z" />
    <glyph glyph-name="eight.inferior" unicode="&#x2088;" 
d="M125 198h1q36 0 64.5 -21t28.5 -56q0 -48 -66 -81q31 -18 46.5 -36t15.5 -45q0 -39 -29.5 -63.5t-83.5 -24.5q-47 0 -78.5 23t-31.5 60q0 28 18.5 48t60.5 39q-46 32 -46 71q0 36 27 61t73 25zM123 168h-1q-25 0 -40 -14t-15 -37q0 -33 57 -61q54 25 54 63q0 23 -16 36
t-39 13zM172 -45v1q0 19 -17 34t-54 34q-65 -27 -65 -67q0 -22 19.5 -38.5t49.5 -16.5q67 0 67 53z" />
    <glyph glyph-name="nine.inferior" unicode="&#x2089;" 
d="M-7 -116v2q92 20 130 51q58 46 59 134q1 40 -15.5 68.5t-50.5 28.5q-28 0 -46 -21.5t-18 -55.5q0 -29 18 -45t41 -16q25 0 46 8q0 -23 -15 -30q-22 -11 -47 -11q-37 0 -62.5 25t-25.5 63q0 46 30.5 79.5t83.5 33.5q55 0 81.5 -38.5t26.5 -95.5q0 -94 -77 -154
q-35 -27 -72.5 -39t-59.5 -12q-17 0 -27 25z" />
    <glyph glyph-name="parenleft.inferior" unicode="&#x208d;" horiz-adv-x="210" 
d="M20 28v1q0 185 152 295q16 -5 21 -18q-134 -119 -134 -280q0 -58 18 -116.5t52 -99.5q-8 -14 -25 -14q-42 38 -63 102.5t-21 129.5z" />
    <glyph glyph-name="parenright.inferior" unicode="&#x208e;" horiz-adv-x="210" 
d="M152 93v-1q0 -187 -151 -296q-17 5 -21 20q133 118 133 277q0 135 -70 216q8 15 25 15q41 -38 62.5 -103t21.5 -128z" />
    <glyph glyph-name="colonmonetary" unicode="&#x20a1;" horiz-adv-x="419" 
d="M310 578l12 42q4 12 15 14q17 4 29 1l-16 -59q67 -8 90 -39q-7 -31 -32 -19q-39 21 -69 24l-124 -507q17 -5 46 -5q58 0 112 29l1 -1q-3 -32 -25 -43q-39 -21 -94 -21q-22 0 -49 3l-14 -53q-2 -7 -19 -12q-15 -2 -26 -1l20 74q-69 24 -100.5 89t-31.5 146
q0 138 78.5 238.5t196.5 99.5zM177 44l123 499q-96 -4 -156 -93t-60 -207q0 -63 21.5 -118t71.5 -81z" />
    <glyph glyph-name="Euro" unicode="&#x20ac;" horiz-adv-x="419" 
d="M381 56l1 -3q-2 -21 -19 -38q-31 -27 -101 -27q-94 0 -139.5 65t-47.5 176h-64q7 24 15 30.5t29 6.5h21q1 24 7 58h-45q8 26 15 31.5t28 5.5h10q23 97 86.5 169t154.5 72q38 0 66.5 -12t36.5 -28q-2 -12 -9.5 -18.5t-20.5 0.5q-31 21 -74 21q-65 0 -117 -52t-76 -152h232
q-7 -25 -16.5 -31t-30.5 -6h-193q-4 -32 -5 -58h208q-7 -26 -15.5 -31.5t-32.5 -5.5h-161q0 -204 152 -204q55 0 105 31z" />
    <glyph glyph-name="uni2113" unicode="&#x2113;" horiz-adv-x="409" 
d="M111 263l31 230q17 129 52.5 175.5t86.5 46.5q38 0 56.5 -29.5t18.5 -73.5q-1 -96 -58.5 -190.5t-141.5 -172.5l-8 -65q-12 -89 9 -120t65 -31q68 0 126 96q14 -2 19 -11.5t-2 -23.5q-52 -106 -158 -106q-68 0 -94.5 48t-14.5 131q3 20 7 51q-47 -31 -61 -39
q-18 -8 -21.5 -5t-11.5 22l1 2q23 12 99 65zM192 517l-28 -215q62 65 104.5 147t43.5 163q0 28 -10 47.5t-30 19.5q-59 0 -80 -162z" />
    <glyph glyph-name="uni2116" unicode="&#x2116;" horiz-adv-x="792" 
d="M103 615l1 3q30 10 42 10q7 0 21 -16q25 -31 49 -85t36.5 -92t36.5 -118q5 -15 7 -23l15 -49.5l16 -52.5t15 -44.5t17 -44t16 -31.5q4 49 27 247l34 278q2 16 6 21t14 6q25 4 29 4q-11 -58 -26 -184l-55 -444q-16 -13 -29 -13l-8 4q-40 37 -113 279q-63 218 -93 265
q-7 -74 -28 -250l-32 -255q-2 -18 -6.5 -23.5t-15.5 -8.5q-19 -4 -27 -4q14 77 26 182l49 404zM622 311h-1q-59 0 -87 36t-28 89q0 70 41.5 121t108.5 51q57 0 86.5 -35.5t29.5 -90.5q0 -69 -40.5 -120t-109.5 -51zM653 572h-1q-48 0 -74 -43.5t-24 -96.5q1 -43 21.5 -64
t50.5 -21q49 0 73.5 40t24.5 94q0 40 -18 65.5t-53 25.5zM498 210l-2 4q14 36 34 38q164 20 207 31l2 -3q-10 -21 -22 -29.5t-39 -15.5q-26 -7 -89 -15.5t-91 -9.5z" />
    <glyph glyph-name="trademark" unicode="&#x2122;" horiz-adv-x="310" 
d="M97 499v107h-44q-6 0 -5 6q1 1 9 14q4 -1 33 -1h81q0 -13 -12 -19h-40v-83q0 -8 0.5 -16.5t0.5 -9.5l-17 -2q-6 0 -6 4zM320 619l13 -76l9 -46q-8 -4 -20 -4q-6 0 -6 6t-2 18t-2 18l-9 56q-2 -4 -17 -37t-26 -55q-8 -2 -12 -2q-39 84 -41 90q-1 -3 -6.5 -39t-8.5 -49
q0 -6 -4 -6q-8 0 -18 4q5 20 24 116l-2 8q10 5 19 5q1 0 2 -1.5t4 -9.5t8 -17l32 -64l43 86v2q10 4 17 4q3 0 3 -7z" />
    <glyph glyph-name="Omega" unicode="&#x2126;" horiz-adv-x="679" 
d="M26 45l5 2q15 -10 100 -10q42 0 54 4q5 2 -1 8q-50 37 -84 105.5t-34 149.5q0 140 81.5 238t226.5 98q122 0 191.5 -81.5t69.5 -202.5q0 -102 -44.5 -175.5t-133.5 -133.5q-2 -1 -1.5 -2.5t2.5 -2.5q18 -6 62 -5q100 0 112 3l2 -3q-7 -33 -41 -39q-13 -2 -38.5 -3t-65 -1
h-54.5q-59 0 -74 7l-2 6q3 5 9.5 14l9.5 13q92 51 147 133t55 182q0 107 -54.5 179.5t-156.5 72.5q-121 0 -183 -83t-62 -209q0 -91 37.5 -164t96.5 -112l1 -7q-6 -11 -18 -19q-7 -7 -23 -8q-11 0 -50.5 -2.5t-73.5 -2.5q-81 0 -98 9q-12 4 -4 15q5 7 13 13t15 10z" />
    <glyph glyph-name="estimated" unicode="&#x212e;" horiz-adv-x="744" 
d="M719 286h-551q-5 0 -5 -4v-166q0 -12 8 -20q86 -91 209 -91q132 0 219 102h50q-47 -55 -118.5 -87t-151.5 -32q-142 0 -241.5 89.5t-99.5 217.5q0 127 99.5 217t241.5 90q141 0 240.5 -90t99.5 -217v-9zM595 308v169q0 10 -8 20q-85 87 -207 87q-120 0 -208 -90
q-9 -11 -9 -21v-165q0 -5 5 -5h423q4 0 4 5z" />
    <glyph glyph-name="onethird" unicode="&#x2153;" horiz-adv-x="650" 
d="M205 602l3 -2l-40 -306q-1 -15 -19 -17l-25 -2q7 32 37 269q-40 -13 -88 -15l-1 1q2 9 16 26q29 7 66 22t51 24zM523 599l-437 -621q-11 -14 -18 -4q-13 11 -13 25l437 622q10 13 21 0q8 -10 10 -22zM473 321h1q35 0 59 -19.5t24 -53.5q0 -52 -64 -85q72 -21 72 -82
q0 -52 -39 -80.5t-90 -28.5q-29 0 -53 7.5t-30 18.5q-8 13 -6 29l2 1q40 -21 83 -21q37 0 62.5 17t25.5 54q0 29 -22 44.5t-56 15.5q-2 0 -38 -4l-1 2q8 22 14 26q95 22 95 78q0 21 -13 32.5t-35 11.5q-47 0 -83 -36q-3 3 -4 8q-2 19 11 32q36 33 85 33z" />
    <glyph glyph-name="twothirds" unicode="&#x2154;" horiz-adv-x="650" 
d="M169 602h1q42 0 67.5 -24.5t25.5 -66.5q0 -19 -6 -37.5t-18 -35.5t-23.5 -31t-29.5 -30t-28.5 -24l-28 -21.5t-20.5 -15.5q65 -4 165 0q-10 -25 -20 -31q-15 -6 -90 -6q-88 0 -127 6l-1 3l9 18l31 23.5l39.5 30.5t36 31.5t35.5 37.5t22 37.5t10 40.5q0 28 -16.5 43.5
t-41.5 15.5q-50 0 -91 -38l-2 1q-2 7 1 20.5t9 17.5q41 35 91 35zM572 599l-438 -621q-10 -15 -18 -4q-14 12 -12 25l437 622q11 13 21 0q8 -10 10 -22zM502 321h1q35 0 59 -19.5t24 -53.5q0 -52 -65 -85q73 -20 73 -82q0 -52 -39 -80.5t-91 -28.5q-29 0 -52.5 7.5
t-30.5 18.5q-7 14 -5 29l1 1q40 -21 83 -21q37 0 63 17t26 54q0 29 -21.5 44.5t-56.5 15.5q-3 0 -39 -4l-1 2q3 18 15 26q95 22 95 78q0 21 -13 32.5t-35 11.5q-45 0 -81 -36q-2 3 -4 7q-2 22 9 33q36 33 85 33z" />
    <glyph glyph-name="oneeighth" unicode="&#x215b;" horiz-adv-x="650" 
d="M206 602l2 -1l-40 -307q-1 -15 -19 -17l-25 -2q7 32 37 269q-40 -13 -87 -15l-1 1q2 11 15 26q78 20 118 46zM521 599l-438 -621q-10 -15 -18 -4q-14 12 -12 25l437 622q9 13 21 0q8 -10 10 -22zM476 319h1q36 0 64 -21t28 -56q0 -49 -67 -80q32 -19 47 -37t15 -45
q0 -39 -29.5 -63.5t-83.5 -24.5q-46 0 -77 23t-31 60q0 28 18 48t59 39q-46 32 -46 70q0 36 27.5 61.5t74.5 25.5zM473 289h-1q-25 0 -40.5 -14t-15.5 -37q0 -33 57 -61q54 25 54 62q0 22 -15.5 36t-38.5 14zM451 146q-65 -28 -65 -68q0 -22 20 -38.5t50 -16.5q66 0 66 53
q0 20 -17 35t-54 35z" />
    <glyph glyph-name="threeeighths" unicode="&#x215c;" horiz-adv-x="650" 
d="M164 602h1q35 0 58.5 -19.5t23.5 -53.5q0 -53 -64 -85q72 -23 72 -82q0 -52 -39 -80.5t-90 -28.5q-29 0 -53 7.5t-31 18.5q-8 16 -6 29l2 1q40 -21 84 -21q37 0 62.5 17t25.5 54q0 29 -22 44.5t-56 15.5q-3 0 -39 -4l-1 2q6 20 16 26q95 23 95 78q0 20 -13 32t-36 12
q-44 0 -80 -36q-4 2 -4 7q-4 20 9 33q36 33 85 33zM556 599l-438 -621q-10 -15 -18 -4q-14 12 -12 25l437 622q10 15 21 0q8 -10 10 -22zM494 319h1q36 0 64 -21t28 -56q0 -27 -16.5 -45.5t-50.5 -35.5q31 -18 46.5 -35.5t15.5 -45.5q0 -39 -29.5 -63.5t-83.5 -24.5
q-46 0 -77 23t-31 60q0 28 18 48t59 39q-46 32 -46 70q0 36 27.5 61.5t74.5 25.5zM491 289h-1q-25 0 -40.5 -14t-15.5 -37q0 -33 57 -61q54 25 54 62q0 22 -15.5 36t-38.5 14zM469 146q-65 -28 -65 -68q0 -22 20 -38.5t50 -16.5q66 0 66 53q0 20 -17 35t-54 35z" />
    <glyph glyph-name="fiveeighths" unicode="&#x215d;" horiz-adv-x="650" 
d="M105 594l73.5 4t52 3t24.5 1q0 -16 -6 -27q-7 -12 -24 -13q-40 -2 -95 -2q-16 -37 -27 -85q74 -21 110 -40q43 -25 43 -72q0 -50 -38.5 -80t-95.5 -30q-51 0 -66 15q-12 10 -14 33l1 1q34 -15 74 -15q43 0 68 18t25 53q0 36 -47 56q-14 6 -99 30l-4 7q25 104 45 143z
M556 599l-438 -621q-10 -15 -18 -4q-14 12 -12 25l437 622q10 15 21 0q8 -10 10 -22zM494 319h1q36 0 64 -21t28 -56q0 -27 -16.5 -45.5t-50.5 -35.5q31 -18 46.5 -35.5t15.5 -45.5q0 -39 -29.5 -63.5t-83.5 -24.5q-46 0 -77 23t-31 60q0 28 18 48t59 39q-46 32 -46 70
q0 36 27.5 61.5t74.5 25.5zM491 289h-1q-25 0 -40.5 -14t-15.5 -37q0 -33 57 -61q54 25 54 62q0 22 -15.5 36t-38.5 14zM469 146q-65 -28 -65 -68q0 -22 20 -38.5t50 -16.5q66 0 66 53q0 20 -17 35t-54 35z" />
    <glyph glyph-name="seveneighths" unicode="&#x215e;" horiz-adv-x="650" 
d="M307 595l3 -5q-35 -99 -86 -186t-78 -116q-13 -13 -28 -19q-17 -5 -38 -5v3q101 101 179 291q-7 0 -51 -0.5t-91 -0.5q-21 0 -26.5 3t-1.5 12q8 18 25 26q13 -3 61 -3h132zM536 598l-437 -620q-11 -14 -18 -4q-13 11 -13 25l437 622q11 13 21 0q9 -10 10 -23zM483 319h1
q36 0 64 -21t28 -56q0 -48 -66 -81q31 -18 46.5 -35.5t15.5 -45.5q0 -39 -29.5 -63.5t-83.5 -24.5q-47 0 -78 23t-31 60q0 28 18 48t60 39q-46 32 -46 70q0 36 27.5 61.5t73.5 25.5zM480 289h-1q-25 0 -40 -14t-15 -37q0 -34 56 -61q54 25 54 62q0 22 -15.5 36t-38.5 14z
M459 146q-66 -28 -66 -68q0 -22 20 -38.5t51 -16.5q66 0 66 53q0 20 -17 35t-54 35z" />
    <glyph glyph-name="partialdiff" unicode="&#x2202;" horiz-adv-x="442" 
d="M101 602l-5 9q-8 20 9 29q54 26 108 26q55 0 95.5 -29.5t60.5 -77.5t28.5 -96.5t8.5 -100.5q0 -69 -11.5 -131t-36.5 -117.5t-70.5 -88t-107.5 -32.5q-72 0 -113.5 47t-41.5 117q0 91 53.5 148t145.5 57q39 0 76.5 -17.5t54.5 -43.5q1 0 1 1q3 42 3 66q0 44 -6.5 84
t-22.5 81.5t-49 66.5t-80 25q-52 0 -100 -23zM188 26h1q62 0 104 59.5t56 166.5q-15 33 -52 53.5t-77 20.5q-74 0 -110 -44t-36 -120q0 -60 33 -98t81 -38z" />
    <glyph glyph-name="Delta" unicode="&#x2206;" horiz-adv-x="585" 
d="M6 1l-6 22l101 184l131.5 249t75.5 143l-2 20q20 9 33 9q9 0 13 -15l170 -590l-13 -23q-73 -5 -333 -5q-150 0 -170 6zM66 44q28 -6 104 -6q273 0 292 5l-139 497z" />
    <glyph glyph-name="product" unicode="&#x220f;" horiz-adv-x="625" 
d="M620 585h-62l-88 -671q-3 -26 -27 -26h-27l92 697h-300l-88 -668q-3 -18 -9 -23.5t-18 -5.5h-27l91 697h-95l6 22q4 21 34 21h553l-5 -19q-4 -16 -9.5 -20t-20.5 -4z" />
    <glyph glyph-name="summation" unicode="&#x2211;" horiz-adv-x="474" 
d="M149 585l-1 -4l144 -304l-223 -316l-1 -5q52 -10 188 -10q126 0 173 5l1 -3q-10 -24 -32 -38q-50 -10 -186 -10q-157 0 -213 10l-6 16l246 348l-160 338l10 16h384q-3 -21 -13 -32t-37 -11h-274z" />
    <glyph glyph-name="minus" unicode="&#x2212;" horiz-adv-x="565" 
d="M469 224h-408q1 15 8.5 27.5t21.5 12.5h410q-2 -40 -32 -40z" />
    <glyph glyph-name="uni2215" unicode="&#x2215;" horiz-adv-x="83" 
d="M235 571l-390 -650q-13 -20 -22 -9q-12 14 -15 24l399 665q7 12 15 4q8 -6 12.5 -16t0.5 -18z" />
    <glyph glyph-name="uni2219" unicode="&#x2219;" horiz-adv-x="148" 
d="M74 266h1q15 0 24 -11t9 -27q0 -20 -11.5 -32.5t-30.5 -12.5q-16 0 -25.5 10t-9.5 26q0 21 11.5 34t31.5 13z" />
    <glyph glyph-name="radical" unicode="&#x221a;" horiz-adv-x="485" 
d="M505 791l-199 -899q-2 -10 -5 -12.5t-11 -2.5h-23l-128 449l-90 -30q-11 12 -14 31l140 51l82 -298q4 -16 14.5 -62t13.5 -58h1l22 128l152 698q5 19 23 13l11 -3.5t11 -4.5z" />
    <glyph glyph-name="infinity" unicode="&#x221e;" horiz-adv-x="691" 
d="M502 117h-1q-25 0 -45.5 7t-44.5 27.5t-33 30l-38 41.5q-31 -36 -47 -52t-49.5 -35t-68.5 -19q-57 0 -92.5 36.5t-35.5 99.5q0 56 40.5 97t96.5 41q16 0 30 -3t27.5 -10.5t23 -13.5t22 -18.5l19 -19t20 -22.5t18.5 -21l36 39.5t34.5 31.5t46.5 28.5t50 8.5q55 0 90.5 -38
t35.5 -99q0 -56 -40 -96.5t-95 -40.5zM182 158h1q12 0 23.5 2.5t23.5 9.5l19 11t19 17t15.5 16.5t17.5 19.5t15 18q-7 7 -23.5 26t-26 28t-24.5 21.5t-30 18t-31 5.5q-40 0 -64.5 -28t-24.5 -69q0 -42 26 -69t64 -27zM504 158h1q38 0 62.5 27.5t24.5 68.5q0 43 -23 70
t-62 27q-28 0 -57 -18t-41 -31t-40 -46l23.5 -26.5t26.5 -28t24 -21t29.5 -17.5t31.5 -5z" />
    <glyph glyph-name="integral" unicode="&#x222b;" horiz-adv-x="303" 
d="M235 742h1q20 0 36 -11q8 -6 3 -18t-14 -15q-14 5 -28 5q-23 0 -39.5 -13.5t-23.5 -34t-11 -46t-3 -48.5t0 -41q1 -74 8.5 -243t8.5 -235q0 -30 -0.5 -47t-3.5 -48t-10.5 -49.5t-19.5 -38.5t-32.5 -30t-48.5 -10q-22 0 -44 12q-9 8 -7.5 20.5t11.5 18.5q23 -10 41 -10
q13 0 24 4t18.5 13t12.5 18.5t8 24t5 25.5t2 27.5v26t-0.5 25t-0.5 20.5q-1 70 -9 240t-8 239q0 219 124 219z" />
    <glyph glyph-name="approxequal" unicode="&#x2248;" horiz-adv-x="565" 
d="M175 392h1q14 0 27.5 -2.5t28 -9.5l22.5 -11t25 -14.5t21 -12.5q71 -42 94 -42q27 0 42 15.5t25 54.5q2 9 4 11.5t9 2.5q5 0 8.5 -1t5 -2.5t5 -5.5t5.5 -6q-12 -61 -38 -86t-69 -25q-35 0 -133 58q-53 31 -87 31q-56 0 -74 -66q-2 -9 -4.5 -11.5t-9.5 -2.5q-8 0 -24 14
q6 54 38.5 82.5t77.5 28.5zM175 236h1q18 0 36.5 -5.5t28 -10t32.5 -18t27 -16.5q71 -42 94 -42q27 0 42 15.5t25 54.5q2 9 4 11.5t9 2.5q5 0 8.5 -1t5 -2.5t5 -5.5t5.5 -6q-12 -61 -38 -86t-69 -25q-35 0 -133 58q-53 31 -87 31q-56 0 -74 -66q-2 -9 -4.5 -11.5t-9.5 -2.5
q-4 0 -6.5 0.5t-5 2t-3.5 2.5l-4 4l-5 5q6 54 38.5 82.5t77.5 28.5z" />
    <glyph glyph-name="notequal" unicode="&#x2260;" horiz-adv-x="565" 
d="M376 465l30 -19l-44 -83h138q-1 -23 -7.5 -31.5t-24.5 -8.5h-128l-81 -152h241q-1 -22 -7.5 -31t-24.5 -9h-230l-50 -93l-31 19l40 74h-137q2 40 32 40h126l82 152h-240q2 40 32 40h229z" />
    <glyph glyph-name="lessequal" unicode="&#x2264;" horiz-adv-x="565" 
d="M493 505l-377 -190v-3l377 -188q0 -15 -10 -30q-9 -12 -26 -4l-391 201q-13 7 -13 14q0 19 11 26l396 205q16 8 25 -6q2 -3 8 -25zM461 0h-408q2 40 32 40h408q-1 -22 -7.5 -31t-24.5 -9z" />
    <glyph glyph-name="greaterequal" unicode="&#x2265;" horiz-adv-x="565" 
d="M59 121l377 190v3l-377 188q0 15 10 30q9 12 26 4l391 -201q13 -7 13 -14q0 -19 -11 -26l-396 -205q-17 -8 -25 6q-2 3 -8 25zM467 0h-408q2 40 32 40h408q-1 -22 -7.5 -31t-24.5 -9z" />
    <glyph glyph-name="lozenge" unicode="&#x25ca;" horiz-adv-x="487" 
d="M454 324l-183 -352q-4 -2 -9.5 -5t-9.5 -4.5t-10 -1.5q-14 0 -19 12l-175 348l179 358q17 15 34 15q4 0 5.5 -1t2.5 -2t2.5 -4.5t3.5 -6.5zM403 318l-153 322h-2l-150 -313l153 -310h1z" />
    <glyph glyph-name="A.swash" unicode="&#xe001;" horiz-adv-x="605" 
d="M449 231q-135 -3 -185 1q-86 -154 -129 -203t-98 -49q-28 0 -42 10t-14 23q2 18 11 25h2q17 -17 43 -17q35 0 67 36.5t99 150.5l227 395l3 13q4 4 21 10.5t24 6.5t7 -13q1 -142 18 -529q2 -45 8 -90q-19 -13 -45 -13q-8 0 -10 29q-6 124 -7 214zM448 268q0 32 -3 136.5
t-2 150.5l-79 -142l-81 -145q81 -4 165 0z" />
    <glyph glyph-name="AE.sc" unicode="&#xe002;" horiz-adv-x="643" 
d="M390 233h181q-4 -24 -14.5 -31.5t-33.5 -7.5h-138l-22 -154q29 -6 95 -6q88 0 133 5l1 -2q-6 -24 -29 -36q-25 -5 -100 -5q-115 0 -143 10l-8 11l28 177q-138 0 -171 -8l-80 -111t-51 -71q-8 -8 -20 -8q-23 0 -35 6v3l322 436q16 18 18 22q70 7 79 7h201q0 -21 -18 -32
q-11 -8 -56 -8h-112zM375 433l-27 -2l-151 -205q28 7 148 7z" />
    <glyph glyph-name="AE.swash" unicode="&#xe003;" horiz-adv-x="788" 
d="M416 12l45 276q-119 -2 -163 -10q-55 -150 -110 -221.5t-130 -71.5q-31 0 -53 10.5t-22 24.5q0 15 14 25h3q22 -19 65 -19q50 0 99 66.5t102 215.5q112 320 251 319q29 0 40 -2h209q0 -20 -13 -29t-66 -9h-131l-41 -262h207q-5 -23 -16.5 -30.5t-35.5 -7.5h-162l-38 -248
q68 -13 138 -13q88 0 129 41q11 -1 11 -16q1 -10 -8 -24q-32 -39 -133 -39q-91 0 -185 17zM467 325l45 266q-24 -2 -46.5 -16t-43.5 -42.5t-35 -50.5t-31.5 -62.5l-23 -54l-18.5 -47.5q52 7 153 7z" />
    <glyph glyph-name="AEacute.sc" unicode="&#xe004;" horiz-adv-x="643" 
d="M390 233h181q-4 -24 -14.5 -31.5t-33.5 -7.5h-138l-22 -154q29 -6 95 -6q88 0 133 5l1 -2q-6 -24 -29 -36q-25 -5 -100 -5q-115 0 -143 10l-8 11l28 177q-138 0 -171 -8l-80 -111t-51 -71q-8 -8 -20 -8q-23 0 -35 6v3l322 436q16 18 18 22q70 7 79 7h201q0 -21 -18 -32
q-11 -8 -56 -8h-112zM375 433l-27 -2l-151 -205q28 7 148 7zM515 674q19 -6 29 -24q5 -9 -8 -19q-40 -34 -120 -118q-6 5 -13 19q-5 5 7 26q91 117 105 116z" />
    <glyph glyph-name="AEacute.swash" unicode="&#xe005;" horiz-adv-x="788" 
d="M416 12l45 276q-119 -2 -163 -10q-55 -150 -110 -221.5t-130 -71.5q-31 0 -53 10.5t-22 24.5q0 15 14 25h3q22 -19 65 -19q50 0 99 66.5t102 215.5q112 320 251 319q29 0 40 -2h209q0 -20 -13 -29t-66 -9h-131l-41 -262h207q-5 -23 -16.5 -30.5t-35.5 -7.5h-162l-38 -248
q68 -13 138 -13q88 0 129 41q11 -1 11 -16q1 -10 -8 -24q-32 -39 -133 -39q-91 0 -185 17zM467 325l45 266q-24 -2 -46.5 -16t-43.5 -42.5t-35 -50.5t-31.5 -62.5l-23 -54l-18.5 -47.5q52 7 153 7zM684 769q8 -4 18.5 -14t14.5 -18q4 -11 -11 -16q-89 -25 -155 -56
q-8 5 -12 15q-5 11 7 18q26 18 74.5 43.5t63.5 27.5z" />
    <glyph glyph-name="Aacute.sc" unicode="&#xe006;" horiz-adv-x="485" 
d="M328 158h-205l-39 -67l-33 -55.5l-17 -28.5q-6 -11 -22 -11q-18 0 -30 6v2l143 242.5t112 196.5l-6 20q2 13 28 13q16 0 18 -12l107 -316l51 -146v-1q-20 -5 -42 -5q-10 0 -15 15zM143 195h176l-66 200l-57.5 -104.5t-52.5 -95.5zM336 674q19 -6 29 -24q5 -9 -8 -19
q-40 -34 -120 -118q-6 5 -13 19q-5 5 7 26q91 117 105 116z" />
    <glyph glyph-name="Aacute.swash" unicode="&#xe007;" horiz-adv-x="605" 
d="M449 231q-135 -3 -185 1q-86 -154 -129 -203t-98 -49q-28 0 -42 10t-14 23q2 18 11 25h2q17 -17 43 -17q35 0 67 36.5t99 150.5l227 395l3 13q4 4 21 10.5t24 6.5t7 -13q1 -142 18 -529q2 -45 8 -90q-19 -13 -45 -13q-8 0 -10 29q-6 124 -7 214zM448 268q0 32 -3 136.5
t-2 150.5l-79 -142l-81 -145q81 -4 165 0zM548 769q8 -4 18.5 -14t14.5 -18q4 -11 -11 -16q-89 -25 -155 -56q-8 5 -12 15q-5 11 7 18q26 18 74.5 43.5t63.5 27.5z" />
    <glyph glyph-name="Abreve.sc" unicode="&#xe008;" horiz-adv-x="485" 
d="M328 158h-205l-39 -67l-33 -55.5l-17 -28.5q-6 -11 -22 -11q-18 0 -30 6v2l143 242.5t112 196.5l-6 20q2 13 28 13q16 0 18 -12l107 -316l51 -146v-1q-20 -5 -42 -5q-10 0 -15 15zM143 195h176l-66 200l-57.5 -104.5t-52.5 -95.5zM214 651h1q6 0 6 -8q0 -75 38 -75
q31 0 47 20t27 56q3 7 10 7q8 0 16.5 -5t7.5 -12q-10 -54 -38.5 -81t-70.5 -27q-37 0 -57.5 28t-16.5 75q3 22 30 22z" />
    <glyph glyph-name="Abreve.swash" unicode="&#xe009;" horiz-adv-x="605" 
d="M449 231q-135 -3 -185 1q-86 -154 -129 -203t-98 -49q-28 0 -42 10t-14 23q2 18 11 25h2q17 -17 43 -17q35 0 67 36.5t99 150.5l227 395l3 13q4 4 21 10.5t24 6.5t7 -13q1 -142 18 -529q2 -45 8 -90q-19 -13 -45 -13q-8 0 -10 29q-6 124 -7 214zM448 268q0 32 -3 136.5
t-2 150.5l-79 -142l-81 -145q81 -4 165 0zM396 779h1q8 0 8 -13q6 -31 18.5 -43t34.5 -12q24 0 40.5 11.5t33.5 44.5q8 12 15 12q8 0 17 -5t7 -12q-12 -47 -44.5 -72t-75.5 -25t-65.5 29.5t-17.5 64.5q3 20 28 20z" />
    <glyph glyph-name="Acircumflex.swash" unicode="&#xe00b;" horiz-adv-x="605" 
d="M449 231q-135 -3 -185 1q-86 -154 -129 -203t-98 -49q-28 0 -42 10t-14 23q2 18 11 25h2q17 -17 43 -17q35 0 67 36.5t99 150.5l227 395l3 13q4 4 21 10.5t24 6.5t7 -13q1 -142 18 -529q2 -45 8 -90q-19 -13 -45 -13q-8 0 -10 29q-6 124 -7 214zM448 268q0 32 -3 136.5
t-2 150.5l-79 -142l-81 -145q81 -4 165 0zM376 670h-1q-12 0 -23 11q56 48 101 93q5 6 13 10q9 2 15 2q32 -48 87 -100q-11 -16 -26 -16q-12 0 -17 6q-12 9 -58 59q-45 -42 -71 -58q-16 -7 -20 -7z" />
    <glyph glyph-name="Adieresis.sc" unicode="&#xe00c;" horiz-adv-x="485" 
d="M328 158h-205l-39 -67l-33 -55.5l-17 -28.5q-6 -11 -22 -11q-18 0 -30 6v2l143 242.5t112 196.5l-6 20q2 13 28 13q16 0 18 -12l107 -316l51 -146v-1q-20 -5 -42 -5q-10 0 -15 15zM143 195h176l-66 200l-57.5 -104.5t-52.5 -95.5zM194 621h1q15 0 24 -10.5t9 -25.5
q0 -17 -11 -28.5t-27 -11.5q-15 0 -25 9.5t-10 26.5q0 15 11 27.5t28 12.5zM343 621h1q14 0 23.5 -10.5t9.5 -25.5q0 -18 -11 -29t-28 -11q-15 0 -24.5 9.5t-9.5 26.5q0 15 11 27.5t28 12.5z" />
    <glyph glyph-name="Adieresis.swash" unicode="&#xe00d;" horiz-adv-x="605" 
d="M449 231q-135 -3 -185 1q-86 -154 -129 -203t-98 -49q-28 0 -42 10t-14 23q2 18 11 25h2q17 -17 43 -17q35 0 67 36.5t99 150.5l227 395l3 13q4 4 21 10.5t24 6.5t7 -13q1 -142 18 -529q2 -45 8 -90q-19 -13 -45 -13q-8 0 -10 29q-6 124 -7 214zM448 268q0 32 -3 136.5
t-2 150.5l-79 -142l-81 -145q81 -4 165 0zM388 747h1q14 0 23.5 -11t9.5 -26q0 -17 -11 -28.5t-27 -11.5q-15 0 -25 10t-10 28q0 15 11 27t28 12zM541 747h1q14 0 24 -10.5t10 -25.5q0 -19 -10.5 -30t-27.5 -11q-15 0 -25 10t-10 27q0 15 11 27.5t27 12.5z" />
    <glyph glyph-name="Agrave.sc" unicode="&#xe00e;" horiz-adv-x="485" 
d="M328 158h-205l-39 -67l-33 -55.5l-17 -28.5q-6 -11 -22 -11q-18 0 -30 6v2l143 242.5t112 196.5l-6 20q2 13 28 13q16 0 18 -12l107 -316l51 -146v-1q-20 -5 -42 -5q-10 0 -15 15zM143 195h176l-66 200l-57.5 -104.5t-52.5 -95.5zM216 693h1q8 -1 37.5 -50.5t43.5 -81.5
q6 -15 -2 -22q-5 -3 -8 -6.5t-4.5 -5t-2.5 -1.5q-44 70 -96 130q-9 11 -1 19q20 18 32 18z" />
    <glyph glyph-name="Agrave.swash" unicode="&#xe00f;" horiz-adv-x="605" 
d="M449 231q-135 -3 -185 1q-86 -154 -129 -203t-98 -49q-28 0 -42 10t-14 23q2 18 11 25h2q17 -17 43 -17q35 0 67 36.5t99 150.5l227 395l3 13q4 4 21 10.5t24 6.5t7 -13q1 -142 18 -529q2 -45 8 -90q-19 -13 -45 -13q-8 0 -10 29q-6 124 -7 214zM448 268q0 32 -3 136.5
t-2 150.5l-79 -142l-81 -145q81 -4 165 0zM375 775h1q12 0 57.5 -26t72.5 -47q11 -8 4 -18q-5 -7 -14 -14q-90 46 -152 65q-10 2 -5 10q4 10 15.5 20t20.5 10z" />
    <glyph glyph-name="Amacron.sc" unicode="&#xe010;" horiz-adv-x="485" 
d="M328 158h-205l-39 -67l-33 -55.5l-17 -28.5q-6 -11 -22 -11q-18 0 -30 6v2l143 242.5t112 196.5l-6 20q2 13 28 13q16 0 18 -12l107 -316l51 -146v-1q-20 -5 -42 -5q-10 0 -15 15zM143 195h176l-66 200l-57.5 -104.5t-52.5 -95.5zM350 554h-169q-11 0 -11 10
q-1 10 3.5 19t9.5 12h172q10 0 10 -6t-5 -18t-10 -17z" />
    <glyph glyph-name="Amacron.swash" unicode="&#xe011;" horiz-adv-x="605" 
d="M449 231q-135 -3 -185 1q-86 -154 -129 -203t-98 -49q-28 0 -42 10t-14 23q2 18 11 25h2q17 -17 43 -17q35 0 67 36.5t99 150.5l227 395l3 13q4 4 21 10.5t24 6.5t7 -13q1 -142 18 -529q2 -45 8 -90q-19 -13 -45 -13q-8 0 -10 29q-6 124 -7 214zM448 268q0 32 -3 136.5
t-2 150.5l-79 -142l-81 -145q81 -4 165 0zM541 680h-168q-11 0 -13 11q0 16 13 29h172q11 0 11 -6q0 -5 -5 -17t-10 -17z" />
    <glyph glyph-name="Aogonek.sc" unicode="&#xe012;" horiz-adv-x="485" 
d="M433 7v-6q-45 -27 -69.5 -66t-24.5 -75q0 -21 11.5 -32t29.5 -11q35 0 70 22l4 -3q2 -27 -8 -39q-28 -33 -83 -33q-38 0 -59.5 22t-21.5 59q0 82 103 154q-5 5 -7 12q-16 52 -50 148h-205l-55 -93.5t-34 -58.5q-6 -11 -21 -11q-20 0 -30 6v4q224 377 254 436l-6 20
q2 13 28 13q14 0 18 -12l106 -316zM143 195h176l-66 199l-57.5 -104t-52.5 -95z" />
    <glyph glyph-name="Aogonek.swash" unicode="&#xe013;" horiz-adv-x="642" 
d="M485 288v91v106.5v82.5q-81 -134 -151 -277q147 -3 151 -3zM454 -136v-1q0 -19 11.5 -30t28.5 -11q35 0 67 23l5 -4q2 -22 -8 -38q-27 -32 -80 -32q-38 0 -58.5 21.5t-20.5 57.5q0 37 25.5 78t69.5 70q-2 7 -5 62q-1 38 -0.5 85t-1.5 106q-74 -1 -172 4
q-78 -141 -140.5 -205.5t-136.5 -64.5q-29 0 -47.5 13.5t-18.5 26.5q0 6 5.5 14t11.5 11h3q20 -24 57 -24q45 0 101.5 59.5t116.5 170.5q-86 1 -116 -34q-21 8 -10 32q13 13 24.5 20.5t43.5 14t78 5.5q1 1 25.5 46l44.5 81l47 82t47 76.5t29 38.5q17 15 39 15q9 0 9 -13
q0 -270 10 -527q1 -59 5 -92q-35 -23 -62 -60.5t-27 -76.5z" />
    <glyph glyph-name="Aring.swash" unicode="&#xe015;" horiz-adv-x="605" 
d="M449 231q-135 -3 -185 1q-86 -154 -129 -203t-98 -49q-28 0 -42 10t-14 23q2 18 11 25h2q17 -17 43 -17q35 0 67 36.5t99 150.5l227 395l3 13q4 4 21 10.5t24 6.5t7 -13q1 -142 18 -529q2 -45 8 -90q-19 -13 -45 -13q-8 0 -10 29q-6 124 -7 214zM448 268q0 32 -3 136.5
t-2 150.5l-79 -142l-81 -145q81 -4 165 0zM478 821h1q34 0 54.5 -22t20.5 -57q0 -38 -25 -61.5t-64 -23.5q-33 0 -54 21t-21 58q0 36 25 60.5t63 24.5zM474 785h-1q-19 0 -30.5 -15.5t-11.5 -33.5q0 -44 39 -44q19 0 31 14t12 33q0 46 -39 46z" />
    <glyph glyph-name="Atilde.sc" unicode="&#xe016;" horiz-adv-x="485" 
d="M328 158h-205l-39 -67l-33 -55.5l-17 -28.5q-6 -11 -22 -11q-18 0 -30 6v2l143 242.5t112 196.5l-6 20q2 13 28 13q16 0 18 -12l107 -316l51 -146v-1q-20 -5 -42 -5q-10 0 -15 15zM143 195h176l-66 200l-57.5 -104.5t-52.5 -95.5zM222 640h1q27 0 57 -34q22 -27 30 -27
q16 0 21 50q3 11 11 11q13 0 24 -15q-2 -40 -16.5 -64t-39.5 -24q-6 0 -11 1.5t-9 3.5t-9.5 7t-8.5 7.5t-10 10.5t-10 11q-19 22 -30 22q-17 0 -27 -47q-2 -10 -8 -10q-3 0 -8 1.5l-10.5 3t-8.5 2.5q8 90 62 90z" />
    <glyph glyph-name="Atilde.swash" unicode="&#xe017;" horiz-adv-x="605" 
d="M449 231q-135 -3 -185 1q-86 -154 -129 -203t-98 -49q-28 0 -42 10t-14 23q2 18 11 25h2q17 -17 43 -17q35 0 67 36.5t99 150.5l227 395l3 13q4 4 21 10.5t24 6.5t7 -13q1 -142 18 -529q2 -45 8 -90q-19 -13 -45 -13q-8 0 -10 29q-6 124 -7 214zM448 268q0 32 -3 136.5
t-2 150.5l-79 -142l-81 -145q81 -4 165 0zM420 775h1q31 0 60 -35q24 -29 32 -29q16 0 23 53q2 11 10 11q13 0 24 -16q-3 -40 -18 -64.5t-40 -24.5q-6 0 -11.5 2t-9 3.5t-9.5 7t-8.5 8l-10 10.5l-10.5 11q-20 23 -33 23q-16 0 -28 -49q-2 -11 -8 -11t-27 8q10 92 63 92z" />
    <glyph glyph-name="B.sc" unicode="&#xe018;" horiz-adv-x="406" 
d="M68 427l-1 1q0 19 12 31q48 17 121 17q65 0 106 -28.5t41 -86.5q0 -44 -26.5 -73.5t-66.5 -41.5q98 -26 98 -110q0 -73 -57.5 -108.5t-132.5 -35.5q-61 0 -125 18q11 57 30 179t23 145q14 91 15 99q-6 -1 -20 -3t-17 -3zM296 357v1q0 42 -30.5 62.5t-79.5 20.5
q-5 0 -18 -1t-15 -1l-26 -183q21 0 55 3q52 4 83 29t31 69zM299 135v1q0 40 -34 65t-95 25q-39 0 -49 -3q-26 -169 -30 -186q25 -9 65 -9q63 0 103 26.5t40 80.5z" />
    <glyph glyph-name="B.swash" unicode="&#xe019;" horiz-adv-x="581" 
d="M519 485v-1q0 -107 -117 -150q129 -33 129 -150q0 -91 -71 -142.5t-163 -51.5q-85 0 -140 22l99 576q-61 -11 -118 -47t-83 -83h-2q-12 5 -12 23q0 14 7 25q30 44 103.5 85t184.5 41q87 0 135 -37.5t48 -109.5zM468 482v1q0 60 -47 86.5t-116 23.5q-10 -71 -24.5 -152
t-17.5 -103q86 2 145.5 37t59.5 107zM477 183v1q0 59 -42 91t-108 32q-51 0 -70 -6l-21 -126t-22 -136q25 -10 76 -10q80 0 133.5 38.5t53.5 115.5z" />
    <glyph glyph-name="C.swash" unicode="&#xe01b;" horiz-adv-x="428" 
d="M363 65h2q14 -10 10 -31q-18 -33 -63.5 -58t-99.5 -25q-49 0 -85 21.5t-56 56.5t-29 74t-9 81q0 217 121 362q78 94 182 94q36 0 70 -15.5t43 -37.5q-14 -31 -36 -14q-34 28 -80 28q-68 0 -125.5 -59t-89 -151t-31.5 -191q0 -34 6 -66.5t20 -65.5t42.5 -53t67.5 -20
q81 0 140 70z" />
    <glyph glyph-name="Cacute.sc" unicode="&#xe01c;" horiz-adv-x="431" 
d="M385 53l2 -3q-3 -23 -16 -38q-42 -24 -123 -24q-99 0 -157.5 59.5t-58.5 162.5q0 110 75.5 191t200.5 81q34 0 67 -8t45 -23q-3 -14 -11 -23t-18 -4q-38 16 -86 16q-96 0 -157 -63.5t-61 -161.5q0 -83 46 -134t128 -51q70 0 124 23zM354 679q19 -6 29 -24q5 -9 -8 -19
q-40 -34 -120 -118q-6 5 -13 19q-5 5 7 26q91 117 105 116z" />
    <glyph glyph-name="Cacute.swash" unicode="&#xe01d;" horiz-adv-x="428" 
d="M363 65h2q14 -10 10 -31q-18 -33 -63.5 -58t-99.5 -25q-49 0 -85 21.5t-56 56.5t-29 74t-9 81q0 217 121 362q78 94 182 94q36 0 70 -15.5t43 -37.5q-14 -31 -36 -14q-34 28 -80 28q-68 0 -125.5 -59t-89 -151t-31.5 -191q0 -34 6 -66.5t20 -65.5t42.5 -53t67.5 -20
q81 0 140 70zM419 782q8 -4 18.5 -14t14.5 -18q4 -11 -11 -16q-89 -25 -155 -56q-8 5 -12 15q-5 11 7 18q26 18 74.5 43.5t63.5 27.5z" />
    <glyph glyph-name="Ccaron.sc" unicode="&#xe01e;" horiz-adv-x="431" 
d="M385 53l2 -3q-3 -23 -16 -38q-42 -24 -123 -24q-99 0 -157.5 59.5t-58.5 162.5q0 110 75.5 191t200.5 81q34 0 67 -8t45 -23q-3 -14 -11 -23t-18 -4q-38 16 -86 16q-96 0 -157 -63.5t-61 -161.5q0 -83 46 -134t128 -51q70 0 124 23zM365 687h1q7 0 15.5 -4t10.5 -10
l-40.5 -64t-43.5 -71q-7 -12 -19 -16q-14 -4 -18 -4q-11 28 -34.5 80t-33.5 76q16 13 27 13q7 0 12 -10q7 -13 20.5 -46t25.5 -57q12 21 35 56t33 52q5 5 9 5z" />
    <glyph glyph-name="Ccaron.swash" unicode="&#xe01f;" horiz-adv-x="428" 
d="M363 65h2q14 -10 10 -31q-18 -33 -63.5 -58t-99.5 -25q-49 0 -85 21.5t-56 56.5t-29 74t-9 81q0 217 121 362q78 94 182 94q36 0 70 -15.5t43 -37.5q-14 -31 -36 -14q-34 28 -80 28q-68 0 -125.5 -59t-89 -151t-31.5 -191q0 -34 6 -66.5t20 -65.5t42.5 -53t67.5 -20
q81 0 140 70zM415 789h1q13 0 24 -11q-82 -72 -101 -93q-2 -1 -6.5 -4t-6.5 -4q-8 -4 -16 -4q-34 53 -85 100q8 16 24 16q15 0 19 -5q22 -19 57 -59q38 35 70 58q11 6 20 6z" />
    <glyph glyph-name="Ccedilla.sc" unicode="&#xe020;" horiz-adv-x="431" 
d="M169 -86l55 75q-90 7 -141.5 66t-51.5 154q0 110 76 191.5t201 81.5q34 0 67 -8t45 -23q-2 -14 -9 -23.5t-20 -3.5q-38 16 -86 16q-96 0 -157.5 -63t-61.5 -163q0 -83 46 -133.5t129 -50.5q70 0 124 23l2 -4q-2 -21 -16 -36q-36 -21 -103 -24l-30 -43q59 -21 59 -69
q0 -43 -37 -66t-84 -28q-6 1 -11 10t-4 15q-1 3 1 5t9 4q79 17 79 53q0 21 -24 31t-57 11v2z" />
    <glyph glyph-name="Ccedilla.swash" unicode="&#xe021;" horiz-adv-x="405" 
d="M130 -128l45 60q-54 7 -88.5 48t-45.5 88.5t-11 102.5q0 112 34 212t87 163q79 94 172 94q36 0 67.5 -16.5t40.5 -39.5q-15 -32 -36 -12q-31 29 -73 29q-64 0 -120 -62t-87 -157t-31 -194q0 -35 4.5 -67t17 -67.5t39 -57t64.5 -21.5q76 0 136 72h2q14 -10 10 -32
q-15 -29 -53.5 -53.5t-84.5 -29.5l-23 -31q56 -20 58 -67q1 -42 -35 -64t-82 -27q-6 1 -11.5 10.5t-3.5 15.5q0 4 5 6q83 16 81 53q-1 38 -78 40v4z" />
    <glyph glyph-name="Ccircumflex.sc" unicode="&#xe022;" horiz-adv-x="431" 
d="M385 53l2 -3q-3 -23 -16 -38q-42 -24 -123 -24q-99 0 -157.5 59.5t-58.5 162.5q0 110 75.5 191t200.5 81q34 0 67 -8t45 -23q-3 -14 -11 -23t-18 -4q-38 16 -86 16q-96 0 -157 -63.5t-61 -161.5q0 -83 46 -134t128 -51q70 0 124 23zM217 513h-1q-6 0 -15.5 4.5t-10.5 9.5
l40.5 64t43.5 71q9 14 18 16q14 4 18 4q12 -31 38.5 -89.5t29.5 -66.5q-16 -13 -27 -13q-7 0 -12 10q-8 15 -22.5 49l-23.5 54l-66 -106q-2 -7 -10 -7z" />
    <glyph glyph-name="Ccircumflex.swash" unicode="&#xe023;" horiz-adv-x="428" 
d="M363 65h2q14 -10 10 -31q-18 -33 -63.5 -58t-99.5 -25q-49 0 -85 21.5t-56 56.5t-29 74t-9 81q0 217 121 362q78 94 182 94q36 0 70 -15.5t43 -37.5q-14 -31 -36 -14q-34 28 -80 28q-68 0 -125.5 -59t-89 -151t-31.5 -191q0 -34 6 -66.5t20 -65.5t42.5 -53t67.5 -20
q81 0 140 70zM231 673h-1q-12 0 -23 11q56 48 101 93q6 5 13 10q9 2 15 2q32 -48 87 -100q-11 -16 -26 -16q-13 0 -17 6q-12 9 -58 59q-45 -42 -71 -58q-16 -7 -20 -7z" />
    <glyph glyph-name="Cdotaccent.sc" unicode="&#xe024;" horiz-adv-x="431" 
d="M385 53l2 -3q-3 -23 -16 -38q-42 -24 -123 -24q-99 0 -157.5 59.5t-58.5 162.5q0 110 75.5 191t200.5 81q34 0 67 -8t45 -23q-3 -14 -11 -23t-18 -4q-38 16 -86 16q-96 0 -157 -63.5t-61 -161.5q0 -83 46 -134t128 -51q70 0 124 23zM298 621h1q14 0 23.5 -10.5t9.5 -25.5
q0 -18 -10.5 -29t-27.5 -11q-15 0 -25 10t-10 26q0 15 10.5 27.5t28.5 12.5z" />
    <glyph glyph-name="Cdotaccent.swash" unicode="&#xe025;" horiz-adv-x="428" 
d="M363 65h2q14 -10 10 -31q-18 -33 -63.5 -58t-99.5 -25q-49 0 -85 21.5t-56 56.5t-29 74t-9 81q0 217 121 362q78 94 182 94q36 0 70 -15.5t43 -37.5q-14 -31 -36 -14q-34 28 -80 28q-68 0 -125.5 -59t-89 -151t-31.5 -191q0 -34 6 -66.5t20 -65.5t42.5 -53t67.5 -20
q81 0 140 70zM335 755h1q14 0 23.5 -11t9.5 -26q0 -17 -11 -28.5t-27 -11.5q-15 0 -25 10t-10 27q0 15 11 27.5t28 12.5z" />
    <glyph glyph-name="D.sc" unicode="&#xe026;" horiz-adv-x="495" 
d="M63 428l-2 2q2 21 12 31q41 15 126 15q116 0 183.5 -56.5t67.5 -173.5q0 -119 -77.5 -185.5t-203.5 -66.5q-76 0 -131 19l47 306q4 25 6.5 44t4.5 38t4 32q-21 -2 -37 -5zM395 240v1q0 104 -52 150.5t-151 46.5q-34 0 -41 -1q-8 -65 -27.5 -198t-28.5 -200q29 -9 81 -9
q98 0 158.5 55t60.5 155z" />
    <glyph glyph-name="D.swash" unicode="&#xe027;" horiz-adv-x="729" 
d="M694 343v-1q0 -157 -101 -254.5t-249 -97.5q-75 0 -161 25q52 289 90 564q-55 -9 -119.5 -47t-98.5 -91h-2q-11 11 -11 24q0 16 12 29q33 46 123 92t214 46q154 0 228.5 -69.5t74.5 -219.5zM641 339v1q0 130 -62.5 192t-192.5 62q-10 0 -22 -1t-24.5 -2.5t-16.5 -1.5
l-81 -547q40 -14 100 -14q57 0 109 19t95 56t69 98t26 138z" />
    <glyph glyph-name="Dcaron.sc" unicode="&#xe028;" horiz-adv-x="495" 
d="M63 428l-2 2q2 21 12 31q41 15 126 15q116 0 183.5 -56.5t67.5 -173.5q0 -119 -77.5 -185.5t-203.5 -66.5q-76 0 -131 19l47 306q4 25 6.5 44t4.5 38t4 32q-21 -2 -37 -5zM395 240v1q0 104 -52 150.5t-151 46.5q-34 0 -41 -1q-8 -65 -27.5 -198t-28.5 -200q29 -9 81 -9
q98 0 158.5 55t60.5 155zM337 687h1q7 0 15.5 -4t10.5 -10l-40.5 -64t-43.5 -71q-7 -12 -19 -16q-14 -4 -18 -4q-11 28 -34.5 80t-33.5 76q16 13 27 13q7 0 12 -10q7 -13 20.5 -46t25.5 -57q12 21 35 56t33 52q5 5 9 5z" />
    <glyph glyph-name="Dcaron.swash" unicode="&#xe029;" horiz-adv-x="729" 
d="M694 343v-1q0 -157 -101 -254.5t-249 -97.5q-75 0 -161 25q52 289 90 564q-55 -9 -119.5 -47t-98.5 -91h-2q-11 11 -11 24q0 16 12 29q33 46 123 92t214 46q154 0 228.5 -69.5t74.5 -219.5zM641 339v1q0 130 -62.5 192t-192.5 62q-10 0 -22 -1t-24.5 -2.5t-16.5 -1.5
l-81 -547q40 -14 100 -14q57 0 109 19t95 56t69 98t26 138zM523 785h1q13 0 24 -11q-82 -72 -101 -93q-2 -1 -6.5 -4t-6.5 -4q-8 -4 -16 -4q-34 53 -85 100q8 16 24 16q15 0 19 -5q22 -19 57 -59q38 35 70 58q11 6 20 6z" />
    <glyph glyph-name="Dcroat.sc" unicode="&#xe02a;" horiz-adv-x="505" 
d="M72 426l-1 1q2 21 14 33q47 15 125 15q118 0 184.5 -56t66.5 -173q0 -119 -77.5 -185.5t-203.5 -66.5q-76 0 -131 19l31 211h-66q6 22 15 30t25 8h33q5 30 9 57l15 112q-23 -2 -39 -5zM239 224h-108q-13 -81 -27 -185q28 -9 83 -9q98 0 159.5 55t61.5 155
q0 104 -52 150.5t-152 46.5q-29 0 -45 -2q-15 -123 -23 -173h142q-4 -38 -39 -38z" />
    <glyph glyph-name="Dcroat.swash" unicode="&#xe02b;" horiz-adv-x="729" 
d="M181 342h56q20 123 36 238q-55 -9 -121.5 -50.5t-96.5 -94.5q-17 6 -17 24q0 13 12 29q33 48 124.5 96t215.5 48q154 0 229 -70t75 -222q0 -153 -101 -251.5t-249 -98.5q-75 0 -161 25l49 288h-99q5 39 48 39zM407 303h-126l-39 -261q40 -14 99 -14q124 0 212 84.5
t88 223.5q0 132 -63 195.5t-194 63.5q-8 0 -19.5 -1t-24.5 -2.5t-17 -1.5l-36 -248h172q-8 -39 -52 -39z" />
    <glyph glyph-name="E.swash" unicode="&#xe02e;" horiz-adv-x="428" 
d="M380 77l2 -1q4 -28 -10 -42q-16 -17 -56.5 -33t-99.5 -16q-84 0 -136.5 46.5t-52.5 132.5q0 34 11.5 65t49 64.5t96.5 50.5q-77 41 -77 128q0 74 53.5 121t125.5 47q44 0 75.5 -17t41.5 -32q-2 -13 -10 -20.5t-20 0.5q-48 29 -89 29q-52 0 -89.5 -33t-37.5 -91
q0 -119 148 -125q-2 -15 -9.5 -24t-15.5 -9h-29q-81 0 -125.5 -41t-44.5 -113q0 -63 40 -99.5t108 -36.5q87 0 151 49z" />
    <glyph glyph-name="Eacute.sc" unicode="&#xe02f;" horiz-adv-x="370" 
d="M122 263h178q-4 -23 -14.5 -31t-33.5 -8h-135l-26 -183q32 -6 99 -6q86 0 130 5l1 -2q-7 -22 -28 -37q-26 -5 -106 -5q-100 0 -141 9l-7 12l48 349q8 54 10 94q28 9 38 11h194q0 -21 -17 -31q-13 -8 -54 -8h-114zM294 679q19 -6 29 -24q5 -9 -8 -19q-40 -34 -120 -118
q-6 5 -13 19q-5 5 7 26q91 117 105 116z" />
    <glyph glyph-name="Eacute.swash" unicode="&#xe030;" horiz-adv-x="428" 
d="M380 77l2 -1q4 -28 -10 -42q-16 -17 -56.5 -33t-99.5 -16q-84 0 -136.5 46.5t-52.5 132.5q0 34 11.5 65t49 64.5t96.5 50.5q-77 41 -77 128q0 74 53.5 121t125.5 47q44 0 75.5 -17t41.5 -32q-2 -13 -10 -20.5t-20 0.5q-48 29 -89 29q-52 0 -89.5 -33t-37.5 -91
q0 -119 148 -125q-2 -15 -9.5 -24t-15.5 -9h-29q-81 0 -125.5 -41t-44.5 -113q0 -63 40 -99.5t108 -36.5q87 0 151 49zM369 777q8 -4 18.5 -14t14.5 -18q4 -11 -11 -16q-89 -25 -155 -56q-8 5 -12 15q-5 11 7 18q26 18 74.5 43.5t63.5 27.5z" />
    <glyph glyph-name="Ebreve.sc" unicode="&#xe031;" horiz-adv-x="370" 
d="M122 263h178q-4 -23 -14.5 -31t-33.5 -8h-135l-26 -183q32 -6 99 -6q86 0 130 5l1 -2q-7 -22 -28 -37q-26 -5 -106 -5q-100 0 -141 9l-7 12l48 349q8 54 10 94q28 9 38 11h194q0 -21 -17 -31q-13 -8 -54 -8h-114zM170 651h1q6 0 6 -8q0 -75 38 -75q31 0 47 20t27 56
q3 7 10 7q8 0 16.5 -5t7.5 -12q-10 -54 -38.5 -81t-70.5 -27q-37 0 -57.5 28t-16.5 75q3 22 30 22z" />
    <glyph glyph-name="Ebreve.swash" unicode="&#xe032;" horiz-adv-x="428" 
d="M380 77l2 -1q4 -28 -10 -42q-16 -17 -56.5 -33t-99.5 -16q-84 0 -136.5 46.5t-52.5 132.5q0 34 11.5 65t49 64.5t96.5 50.5q-77 41 -77 128q0 74 53.5 121t125.5 47q44 0 75.5 -17t41.5 -32q-2 -13 -10 -20.5t-20 0.5q-48 29 -89 29q-52 0 -89.5 -33t-37.5 -91
q0 -119 148 -125q-2 -15 -9.5 -24t-15.5 -9h-29q-81 0 -125.5 -41t-44.5 -113q0 -63 40 -99.5t108 -36.5q87 0 151 49zM225 797h1q8 0 8 -13q6 -31 18.5 -43t34.5 -12q24 0 40.5 11.5t33.5 44.5q8 12 15 12q8 0 17 -5t7 -12q-12 -47 -44.5 -72t-75.5 -25t-65.5 29.5
t-17.5 64.5q3 20 28 20z" />
    <glyph glyph-name="Ecaron.sc" unicode="&#xe033;" horiz-adv-x="370" 
d="M122 263h178q-4 -23 -14.5 -31t-33.5 -8h-135l-26 -183q32 -6 99 -6q86 0 130 5l1 -2q-7 -22 -28 -37q-26 -5 -106 -5q-100 0 -141 9l-7 12l48 349q8 54 10 94q28 9 38 11h194q0 -21 -17 -31q-13 -8 -54 -8h-114zM297 682h1q7 0 15.5 -4t10.5 -10l-40.5 -64t-43.5 -71
q-7 -12 -19 -16q-14 -4 -18 -4q-11 28 -34.5 80t-33.5 76q16 13 27 13q7 0 12 -10q7 -13 20.5 -46t25.5 -57q12 21 35 56t33 52q5 5 9 5z" />
    <glyph glyph-name="Ecaron.swash" unicode="&#xe034;" horiz-adv-x="428" 
d="M380 77l2 -1q4 -28 -10 -42q-16 -17 -56.5 -33t-99.5 -16q-84 0 -136.5 46.5t-52.5 132.5q0 34 11.5 65t49 64.5t96.5 50.5q-77 41 -77 128q0 74 53.5 121t125.5 47q44 0 75.5 -17t41.5 -32q-2 -13 -10 -20.5t-20 0.5q-48 29 -89 29q-52 0 -89.5 -33t-37.5 -91
q0 -119 148 -125q-2 -15 -9.5 -24t-15.5 -9h-29q-81 0 -125.5 -41t-44.5 -113q0 -63 40 -99.5t108 -36.5q87 0 151 49zM377 794h1q13 0 24 -11q-82 -72 -101 -93q-2 -1 -6.5 -4t-6.5 -4q-8 -4 -16 -4q-34 53 -85 100q8 16 24 16q15 0 19 -5q22 -19 57 -59q38 35 70 58
q10 6 20 6z" />
    <glyph glyph-name="Ecircumflex.swash" unicode="&#xe036;" horiz-adv-x="428" 
d="M380 77l2 -1q4 -28 -10 -42q-16 -17 -56.5 -33t-99.5 -16q-84 0 -136.5 46.5t-52.5 132.5q0 34 11.5 65t49 64.5t96.5 50.5q-77 41 -77 128q0 74 53.5 121t125.5 47q44 0 75.5 -17t41.5 -32q-2 -13 -10 -20.5t-20 0.5q-48 29 -89 29q-52 0 -89.5 -33t-37.5 -91
q0 -119 148 -125q-2 -15 -9.5 -24t-15.5 -9h-29q-81 0 -125.5 -41t-44.5 -113q0 -63 40 -99.5t108 -36.5q87 0 151 49zM197 678h-1q-12 0 -23 11q56 48 101 93q6 6 13 10q9 2 15 2q32 -48 87 -100q-11 -16 -26 -16q-13 0 -17 6q-12 9 -58 59q-45 -42 -71 -58q-16 -7 -20 -7z
" />
    </font>
</defs>
</svg>
